<svg xmlns="http://www.w3.org/2000/svg" width="1440" height="1024" style="shape-rendering:geometricPrecision;text-rendering:geometricPrecision;image-rendering:optimizeQuality;fill-rule:evenodd;clip-rule:evenodd"><path fill="#ca15f5" d="M1262.5 38.5a14.696 14.696 0 0 1-3 3.5c1.56.318 2.73 1.15 3.5 2.5 2.48-1.563 3.98-.896 4.5 2-.7 1.363-.7 2.53 0 3.5-1.06 1.188-2.4 1.688-4 1.5v4c-.59 6.453-3.25 11.786-8 16a82.914 82.914 0 0 0-3-2.5c2.51-1.873 2.35-3.707-.5-5.5a7.35 7.35 0 0 0-2 3l-1.5-1.5a7.012 7.012 0 0 0 2.5-3.5c4.27 2.297 4.43 1.797.5-1.5a58.426 58.426 0 0 1 8-7.5 198.25 198.25 0 0 1-2-3c-16.08-5.09-24.75-16.09-26-33 15.1.71 25.44 8.043 31 22Z" style="opacity:.263"/><path fill="#c20afa" d="M1280.5 44.5c-.73-1.545-2.06-2.378-4-2.5 1.13-1.016.8-1.683-1-2 2.29-.984 1.96-1.817-1-2.5-.67.333-1.33.667-2 1-.5-1.103-.83-2.103-1-3a10.288 10.288 0 0 0-1.5 4c-1.49-1.61-1.66-3.276-.5-5-.46-.797-1.12-1.13-2-1 6.43-11.054 16.1-16.72 29-17-.24 9.976-3.9 18.476-11 25.5a19.121 19.121 0 0 1-5 2.5Z" style="opacity:.249"/><path fill="#e849e0" d="M1107.5 9.5c6.01-.166 12.01 0 18 .5a274.418 274.418 0 0 1 16 27 1064.2 1064.2 0 0 1-15 26.5c-.82.886-1.82 1.219-3 1a46.721 46.721 0 0 1-8-3c3.07.317 6.07-.016 9-1 4.54-7.916 9.21-15.75 14-23.5a833.176 833.176 0 0 1-14-23.5 49.884 49.884 0 0 0-14-1 10.257 10.257 0 0 0-3-3Z" style="opacity:.311"/><path fill="#d624ef" d="M1219.5-.5h3c-8.57 15.47-17.4 30.802-26.5 46-.67 1-.67 2 0 3a2471.354 2471.354 0 0 0 33.5 58c12.65.999 25.32 1.332 38 1 .61.891.94 1.891 1 3-13.68.333-27.35-.001-41-1l-36-62c9.34-16.027 18.68-32.028 28-48Z" style="opacity:.275"/><path fill="#b50fb6" d="M557.5-.5h3l29 50a2.427 2.427 0 0 0-2 .5c.837 1.011 1.17 2.178 1 3.5a1073.356 1073.356 0 0 1-31-54Z" style="opacity:.176"/><path fill="#cd15f4" d="M1257.5 49.5c.64.982 1.31 1.982 2 3a58.426 58.426 0 0 0-8 7.5c3.93 3.297 3.77 3.797-.5 1.5a7.012 7.012 0 0 1-2.5 3.5l1.5 1.5a7.35 7.35 0 0 1 2-3c2.85 1.793 3.01 3.627.5 5.5 1.07.852 2.07 1.685 3 2.5-6.51 6.622-14.51 9.956-24 10 1-16.988 9.66-27.655 26-32Z" style="opacity:.261"/><path fill="#c60af8" d="M1267.5 33.5c.88-.13 1.54.203 2 1-1.16 1.724-.99 3.39.5 5 .22-1.438.72-2.771 1.5-4 .17.897.5 1.897 1 3 .67-.333 1.33-.667 2-1 2.96.683 3.29 1.516 1 2.5 1.8.317 2.13.984 1 2 1.94.122 3.27.955 4 2.5-2.87 2.261-6.2 3.761-10 4.5 16.28 4.78 24.95 15.614 26 32.5-16.91-1.245-27.91-9.912-33-26v-4c1.6.188 2.94-.312 4-1.5-.7-.97-.7-2.137 0-3.5-.52-2.896-2.02-3.563-4.5-2-.77-1.35-1.94-2.182-3.5-2.5a14.696 14.696 0 0 0 3-3.5c.79 1.108 1.29 2.442 1.5 4 1.18-3.026 2.35-6.026 3.5-9Z" style="opacity:.244"/><path fill="#ee54da" d="M1107.5 9.5c1.19.772 2.19 1.772 3 3a98.4 98.4 0 0 0-14 .5c-4.67 8-9.33 16-14 24 4.67 8 9.33 16 14 24 6.32.5 12.66.666 19 .5a46.721 46.721 0 0 0 8 3c-9.69.332-19.36-.002-29-1a1064.2 1064.2 0 0 1-15-26.5 1064.2 1064.2 0 0 1 15-26.5 43.125 43.125 0 0 1 13-1Z" style="opacity:.354"/><path fill="#ff71c9" d="M801.5 61.5c19.162.313 26.329 9.647 21.5 28-7.825 9.788-17.325 11.622-28.5 5.5-8.968-9.354-9.301-19.02-1-29a48.484 48.484 0 0 1 8-4.5Zm2 10c7.984-.514 11.817 3.152 11.5 11-2.451 5.59-6.617 7.422-12.5 5.5-4.361-2.226-5.861-5.726-4.5-10.5 1.36-2.523 3.193-4.523 5.5-6Z" style="opacity:.312"/><path fill="#c102fd" d="M1306.5-.5h4c8.94 15.966 17.94 31.966 27 48l-36 62a273.104 273.104 0 0 1-33 1c-.06-1.109-.39-2.109-1-3 10.67.167 21.34 0 32-.5a4944.161 4944.161 0 0 1 33.5-57.5c.63-2.135.3-4.135-1-6a1470.131 1470.131 0 0 1-25.5-44Z" style="opacity:.208"/><path fill="#c83986" d="M461.5 81.5c-.904.709-1.237 1.709-1 3a600.293 600.293 0 0 1-12-20.5c.3-2.024 1.133-2.524 2.5-1.5a291.028 291.028 0 0 1 10.5 19Z" style="opacity:.227"/><path fill="#f966d1" d="M988.5-.5h3a355.49 355.49 0 0 1-17.5 31c-1.885 2.414-2.552 5.08-2 8A1783.385 1783.385 0 0 0 992.5 73a144.464 144.464 0 0 0 23.5 1.5l21.5-.5c7.59-12.503 14.92-25.17 22-38a669.624 669.624 0 0 1-21-36.5h3c7.26 12.18 14.26 24.514 21 37a863.073 863.073 0 0 1-19.5 34c-1.48 3.202-1.82 6.536-1 10a312.384 312.384 0 0 1 16.5 29c-1.42-1.531-2.09-1.198-2 1a609.239 609.239 0 0 1-17-29 20.062 20.062 0 0 1-4-3.5 267.227 267.227 0 0 0-40 .5 467.12 467.12 0 0 0-21.5 35 82.5 82.5 0 0 0-2.5 7.5 511.226 511.226 0 0 0-25-.5 5.727 5.727 0 0 1-1-3c7.341.166 14.674 0 22-.5a365.505 365.505 0 0 0 23-38A572.905 572.905 0 0 0 972 44.5c-1.167-2.5-3-4.333-5.5-5.5a420.479 420.479 0 0 0-41 0c-4.184 3.403-6.184 2.236-6-3.5a412.16 412.16 0 0 0 49-1.5 592.876 592.876 0 0 0 20-34.5Z" style="opacity:.363"/><path fill="#f967d1" d="M1014.5 12.5c7.43 12.02 14.77 24.187 22 36.5-14.01.833-28.01.666-42-.5 6.69-12.054 13.36-24.054 20-36Z" style="opacity:.389"/><path fill="#fdab02" d="M215.5 117.5c.237 1.291-.096 2.291-1 3a847.487 847.487 0 0 1-15-24.5 155.189 155.189 0 0 0-24-1.5 235.4 235.4 0 0 0-21.5 1L132.5 133a2097.938 2097.938 0 0 1 22 37.5c8.307.998 16.64 1.331 25 1-.763.768-1.763 1.268-3 1.5-7.993.5-15.993.666-24 .5a2385.25 2385.25 0 0 1-23-40.5 2439.854 2439.854 0 0 1 23-40.5c15.414-.53 30.748-1.363 46-2.5A697.498 697.498 0 0 0 220 52.5c1.667-2.667 3.333-2.667 5 0 .332 3.19-1.168 5.19-4.5 6a523.867 523.867 0 0 1-19 32.5 992.858 992.858 0 0 0 14 26.5Z" style="opacity:.182"/><path fill="#fe70cc" d="M832.5 43.5a1734.46 1734.46 0 0 0 20 33.5c16.707.607 33.374.607 50 0a351.986 351.986 0 0 0 21 38 7.293 7.293 0 0 1 3 2c6.325.5 12.658.666 19 .5a5.727 5.727 0 0 0 1 3c-6.675-.166-13.342 0-20 .5a9.454 9.454 0 0 0-2.5 1.5 2716.325 2716.325 0 0 0-21-37 14.503 14.503 0 0 0-4.5-4.5 308.732 308.732 0 0 0-43 .5 703.635 703.635 0 0 0-23 37.5 511.764 511.764 0 0 0 23 41.5c-1.391 3.292-3.224 3.625-5.5 1-.684-1.284-.517-2.451.5-3.5a1573.095 1573.095 0 0 0-19-32.5l-3-2.5a50.464 50.464 0 0 0-10-.5c.763-.768 1.763-1.268 3-1.5-1.237-.232-2.237-.732-3-1.5 3.35.165 6.683-.002 10-.5a649.514 649.514 0 0 0 22-37 691.631 691.631 0 0 0-21-37.5 5.728 5.728 0 0 0 3-1Z" style="opacity:.344"/><path fill="#bf2aa4" d="M461.5 81.5a40810.35 40810.35 0 0 1 19 32 5.727 5.727 0 0 0-3 1 12420.525 12420.525 0 0 1-17-30c-.237-1.291.096-2.291 1-3Z" style="opacity:.198"/><path fill="#ff72c9" d="M832.5 43.5a5.728 5.728 0 0 1-3 1c-.111-.617-.444-1.117-1-1.5a484.226 484.226 0 0 0-44 0 1379.76 1379.76 0 0 0-22 38.5 2097.231 2097.231 0 0 0 22 37.5c11.328.5 22.662.667 34 .5.763.768 1.763 1.268 3 1.5-1.237.232-2.237.732-3 1.5-12.005.167-24.005 0-36-.5a810.53 810.53 0 0 1-23-40.5 1242.84 1242.84 0 0 1 23-41 384.57 384.57 0 0 1 48-.5 18.476 18.476 0 0 1 2 3.5Z" style="opacity:.229"/><path fill="#f152dc" d="M1058.5 109.5a35.722 35.722 0 0 1 4 5.5c14.66.5 29.33.667 44 .5.3.65.64 1.317 1 2-4.48.667-8.82 1.334-13 2-10.69-.332-21.35.001-32 1a1013.666 1013.666 0 0 1-21 37 176.827 176.827 0 0 1 12 22c-.67.333-1.33.667-2 1a380.848 380.848 0 0 1-13-23c7.06-13.125 14.4-26.125 22-39-1.36-2.72-2.69-5.386-4-8-.09-2.198.58-2.531 2-1Z" style="opacity:.337"/><path fill="#dc25f0" d="M1137.5 75.5c13.67-.167 27.34 0 41 .5 7.83 13.167 15.67 26.333 23.5 39.5.67 1 .67 2 0 3a347.375 347.375 0 0 0-20.5 38 412.42 412.42 0 0 0 23 41c-.69 2.927-2.36 3.594-5 2-.83-1.635-1-3.302-.5-5a1791.183 1791.183 0 0 0-20.5-34.5 333.506 333.506 0 0 0-44-1.5c-.44.065-.77-.101-1-.5 1.62-.236 2.62-1.069 3-2.5 13 .167 26 0 39-.5a20.737 20.737 0 0 1 3.5-2.5 620.04 620.04 0 0 1 20.5-35.5 2109.342 2109.342 0 0 1-22-37.5 289.876 289.876 0 0 0-34-1c-2.34-.44-4.34-1.44-6-3Z" style="opacity:.267"/><path fill="#ca3f85" d="M393.5 110.5c6.009-.166 12.009.001 18 .5a102.95 102.95 0 0 1 8 14.5 5.727 5.727 0 0 0-1 3 163.774 163.774 0 0 1-9-15 64.873 64.873 0 0 0-16-1v-2Z" style="opacity:.175"/><path fill="#aa07db" d="M589.5 49.5c1.94 3.78 4.107 7.446 6.5 11 .667 1.333.667 2.667 0 4a2088.593 2088.593 0 0 1-31 53c-2.188 3.292-3.355 6.625-3.5 10-.282 1.278-.949 2.278-2 3-2.522.372-4.522-.461-6-2.5a881.746 881.746 0 0 0-42-.5 13.94 13.94 0 0 1 6-3 324.95 324.95 0 0 0 36-1c1.559-1.631 3.559-2.464 6-2.5a3210.43 3210.43 0 0 0 34-58.5 59.572 59.572 0 0 1-5-9c.17-1.322-.163-2.489-1-3.5a2.427 2.427 0 0 1 2-.5Z" style="opacity:.208"/><path fill="#e942e2" d="M1137.5 75.5c1.66 1.56 3.66 2.56 6 3-3.73-.323-7.39.01-11 1a946.798 946.798 0 0 0-20.5 36c-.67 1.333-.67 2.667 0 4a132.611 132.611 0 0 1 10.5 19 6.927 6.927 0 0 1-1 4 759.946 759.946 0 0 0-13-21.5c-4.54-1.379-9.2-1.879-14-1.5 4.18-.666 8.52-1.333 13-2-.36-.683-.7-1.35-1-2a30.486 30.486 0 0 0 3.5-3 1204.312 1204.312 0 0 1 20.5-36 13.119 13.119 0 0 1 7-1Z" style="opacity:.306"/><path fill="#ef8b25" d="m280.5 150.5-1 2a215.97 215.97 0 0 1-11-17 28.819 28.819 0 0 0-10-1c-1.719-.522-3.052-1.522-4-3a84.902 84.902 0 0 0 13-.5l3-2.5a348.081 348.081 0 0 0 20.5-38c2.493-1.445 4.327-.779 5.5 2-.87 2.026-2.37 3.36-4.5 4a805.256 805.256 0 0 1-19 33 12.494 12.494 0 0 0 0 7c2.78 4.562 5.28 9.228 7.5 14Z" style="opacity:.212"/><path fill="#d6536b" d="M393.5 110.5v2a31.116 31.116 0 0 0-11 1 249.856 249.856 0 0 1-13 22.5c1.323.816 1.989 1.983 2 3.5l-4 1a43.836 43.836 0 0 0-1-2 49.87 49.87 0 0 0-14-1c-.111-.617-.444-1.117-1-1.5 3.195-.181 6.195-.681 9-1.5a13.116 13.116 0 0 0 7-1l13-22a43.117 43.117 0 0 1 13-1Z" style="opacity:.209"/><path fill="#f89d0e" d="M215.5 117.5a106.482 106.482 0 0 1 7.5 12 9.454 9.454 0 0 0 2.5 1.5c9.661.5 19.328.666 29 .5.948 1.478 2.281 2.478 4 3-11.005-.167-22.005 0-33 .5a9.454 9.454 0 0 0-2.5 1.5 274.559 274.559 0 0 0-19.5 36.5 260.301 260.301 0 0 0 12 23.5c0 1.333-.667 2-2 2a162.917 162.917 0 0 1-12.5-21 6.978 6.978 0 0 0-3.5-2.5 1004.045 1004.045 0 0 1-45-1.5c8.007.166 16.007 0 24-.5 1.237-.232 2.237-.732 3-1.5 6.009.166 12.009-.001 18-.5l3-2.5a958.743 958.743 0 0 0 18.5-32 12.494 12.494 0 0 0 0-7 28.53 28.53 0 0 1-4.5-9c.904-.709 1.237-1.709 1-3Z" style="opacity:.19"/><path fill="#db5f56" d="M360.5 134.5c-2.805.819-5.805 1.319-9 1.5.556.383.889.883 1 1.5a43.117 43.117 0 0 0-13 1 747.57 747.57 0 0 0-13 22.5 11.105 11.105 0 0 1 3 4.5c-1 .333-1.667 1-2 2a60.874 60.874 0 0 1-4-6.5 310.114 310.114 0 0 1 15-26 242.43 242.43 0 0 1 22-.5Z" style="opacity:.175"/><path fill="#c0329d" d="M419.5 125.5c2.552 3.084 4.552 6.584 6 10.5a894.27 894.27 0 0 1-14 24.5 64.873 64.873 0 0 1-16 1 5.727 5.727 0 0 1 1-3c4.599.3 9.099-.033 13.5-1a228.933 228.933 0 0 1 12.5-21.5 81.417 81.417 0 0 1-4-7.5 5.727 5.727 0 0 1 1-3Z" style="opacity:.216"/><path fill="#b318c6" d="M480.5 113.5c1.741 4.693 4.741 8.193 9 10.5 9.327.5 18.661.666 28 .5a13.94 13.94 0 0 0-6 3c-6.675-.166-13.342 0-20 .5-1.111 2.624-3.111 4.124-6 4.5a4752.008 4752.008 0 0 0-33 56.5c1.323.816 1.989 1.983 2 3.5.237 1.291-.096 2.291-1 3-2.022-2.369-3.189-5.036-3.5-8l33.5-57.5c-.463-5.76-2.463-10.927-6-15.5a5.727 5.727 0 0 1 3-1Z" style="opacity:.207"/><path fill="#f3911c" d="M253.5 156.5c-.056 2.894-.89 5.561-2.5 8a10.91 10.91 0 0 0-4.5 5c1.109 1.714.442 2.381-2 2 .041-3.743-.626-3.91-2-.5l1 1a16.661 16.661 0 0 1-4 4l2 1c-.482 1.008-.648 2.175-.5 3.5a7.293 7.293 0 0 1-2-3c-2.104 2.238-4.438 3.238-7 3-2.233-2.364-3.733-5.031-4.5-8-.69-4.425.31-8.259 3-11.5a184.184 184.184 0 0 1 16-8.5c2.849.586 5.182 1.92 7 4Z" style="opacity:.183"/><path fill="#a605ec" d="M530.5 159.5c7.219 1.778 12.886 5.778 17 12a14.386 14.386 0 0 1-4.5 0c-2.102 1.502-3.268 3.168-3.5 5-1.299-.59-2.132-1.59-2.5-3l-1 2c-1.204-.971-1.704-1.971-1.5-3-2.431.86-3.764 2.527-4 5 2.412-.256 4.079.744 5 3-2.137.58-3.97 1.58-5.5 3-.604-2.186-1.77-2.352-3.5-.5 1.456.423 1.956 1.256 1.5 2.5l-5.5-.5c.299 1.32.466 2.82.5 4.5 2.914.82 3.081 1.82.5 3a20.48 20.48 0 0 0-5.5-3c-1.744 1.149-1.911 2.483-.5 4-1.849 2.407-4.016 3.74-6.5 4a22.981 22.981 0 0 1-2 5c-1.32.299-2.82.466-4.5.5-2.391 1.309-2.391 2.309 0 3 .03 1.429-.303 2.929-1 4.5-2.968-1.977-5.302-4.644-7-8 2.908-.659 3.242-1.493 1-2.5a4.457 4.457 0 0 0 2-1.5c.14-1.403.14-2.903 0-4.5l4-1c-3.493-1.088-3.659-2.255-.5-3.5a18.08 18.08 0 0 0 3.5 2c1.071-1.825.404-2.992-2-3.5a6.978 6.978 0 0 0 2.5-3.5l3 5a6.978 6.978 0 0 1 2.5-3.5c-2.401-.805-2.234-1.638.5-2.5l1 1a25.893 25.893 0 0 0 5.5-6.5c-2.776-1.779-2.443-2.779 1-3a6.978 6.978 0 0 0 2.5-3.5c.085 1.585.251 2.918.5 4a10.258 10.258 0 0 0 1.5-4 55.337 55.337 0 0 0 8-6 8.43 8.43 0 0 0 .5-4c-1.679.215-2.679-.452-3-2Z" style="opacity:.207"/><path fill="#a808e4" d="M530.5 159.5c.321 1.548 1.321 2.215 3 2a8.43 8.43 0 0 1-.5 4 55.337 55.337 0 0 1-8 6 10.258 10.258 0 0 1-1.5 4c-.249-1.082-.415-2.415-.5-4a6.978 6.978 0 0 1-2.5 3.5c-3.443.221-3.776 1.221-1 3a25.893 25.893 0 0 1-5.5 6.5l-1-1c-2.734.862-2.901 1.695-.5 2.5a6.978 6.978 0 0 0-2.5 3.5l-3-5a6.978 6.978 0 0 1-2.5 3.5c2.404.508 3.071 1.675 2 3.5a18.08 18.08 0 0 1-3.5-2c-3.159 1.245-2.993 2.412.5 3.5l-4 1c.14 1.597.14 3.097 0 4.5a4.457 4.457 0 0 1-2 1.5c2.242 1.007 1.908 1.841-1 2.5-6.761-15.69-3.427-28.856 10-39.5 7.552-4.351 15.552-5.517 24-3.5Z" style="opacity:.211"/><path fill="#ee8927" d="M253.5 156.5a88.602 88.602 0 0 1 11 6c1.313 7.558 1.313 15.058 0 22.5l-16 9c-1.333.667-2.667.667-4 0a401.382 401.382 0 0 1-16.5-9.5 72.367 72.367 0 0 1-.5-12c.767 2.969 2.267 5.636 4.5 8 2.562.238 4.896-.762 7-3a7.293 7.293 0 0 0 2 3c-.148-1.325.018-2.492.5-3.5l-2-1a16.661 16.661 0 0 0 4-4l-1-1c1.374-3.41 2.041-3.243 2 .5 2.442.381 3.109-.286 2-2a10.91 10.91 0 0 1 4.5-5c1.61-2.439 2.444-5.106 2.5-8Z" style="opacity:.179"/><path fill="#ca408a" d="M371.5 139.5a6385.764 6385.764 0 0 1 11 18 49.87 49.87 0 0 0 14 1 5.727 5.727 0 0 0-1 3 49.87 49.87 0 0 0-14 1 387.056 387.056 0 0 1-13 23 133.155 133.155 0 0 1-23 1c-2.031-.472-3.698-1.472-5-3 8.918.317 17.751-.016 26.5-1a228.933 228.933 0 0 1 12.5-21.5 608.487 608.487 0 0 0-12-20.5l4-1Z" style="opacity:.197"/><path fill="#a404f0" d="M547.5 171.5c4.31 6.245 5.977 13.245 5 21-.722-.418-1.222-1.084-1.5-2l-1 1c-2.369-2.408-4.869-2.408-7.5 0l-2-2c.063 1.16-.27 2.494-1 4a6.802 6.802 0 0 0 3 1.5 12.93 12.93 0 0 1-5 .5c.228-1.855-.439-2.688-2-2.5.215 2.026 1.215 4.026 3 6-.51 1.826-1.344 1.993-2.5.5l-1 3a18.924 18.924 0 0 0-3-5c-2.878 1.291-2.712 2.791.5 4.5-1.833.5-3 1.667-3.5 3.5a7.293 7.293 0 0 1-2-3c.602 4.799-.731 5.132-4 1-.5 1.167-1.333 2-2.5 2.5 4.392 1.848 5.225 4.348 2.5 7.5-1.77-.776-3.603-.61-5.5.5a9.175 9.175 0 0 1 2 4.5c-6.473-.589-11.806-3.256-16-8 .697-1.571 1.03-3.071 1-4.5-2.391-.691-2.391-1.691 0-3 1.68-.034 3.18-.201 4.5-.5a22.981 22.981 0 0 0 2-5c2.484-.26 4.651-1.593 6.5-4-1.411-1.517-1.244-2.851.5-4a20.48 20.48 0 0 1 5.5 3c2.581-1.18 2.414-2.18-.5-3-.034-1.68-.201-3.18-.5-4.5l5.5.5c.456-1.244-.044-2.077-1.5-2.5 1.73-1.852 2.896-1.686 3.5.5 1.53-1.42 3.363-2.42 5.5-3-.921-2.256-2.588-3.256-5-3 .236-2.473 1.569-4.14 4-5-.204 1.029.296 2.029 1.5 3l1-2c.368 1.41 1.201 2.41 2.5 3 .232-1.832 1.398-3.498 3.5-5 1.451.236 2.951.236 4.5 0Z" style="opacity:.207"/><path fill="#a302f6" d="M561.5 127.5a4156.945 4156.945 0 0 1 36 61.5l-37 63a938.363 938.363 0 0 1-75-.5 1369.407 1369.407 0 0 1-32-56c.904-.709 1.237-1.709 1-3a5267.334 5267.334 0 0 0 34 57.5c23.333.667 46.667.667 70 0a88307.003 88307.003 0 0 0 35-61 1111.169 1111.169 0 0 0-34-58.5c1.051-.722 1.718-1.722 2-3Z" style="opacity:.18"/><path fill="#d4516e" d="M329.5 165.5c3.681 6.036 7.348 12.036 11 18 1.302 1.528 2.969 2.528 5 3a16.873 16.873 0 0 1-8-1c-3.345-6.027-6.679-12.027-10-18 .333-1 1-1.667 2-2Z" style="opacity:.196"/><path fill="#a503f5" d="M552.5 192.5c-3.909 17.568-14.909 26.235-33 26a9.175 9.175 0 0 0-2-4.5c1.897-1.11 3.73-1.276 5.5-.5 2.725-3.152 1.892-5.652-2.5-7.5 1.167-.5 2-1.333 2.5-2.5 3.269 4.132 4.602 3.799 4-1a7.293 7.293 0 0 0 2 3c.5-1.833 1.667-3 3.5-3.5-3.212-1.709-3.378-3.209-.5-4.5a18.924 18.924 0 0 1 3 5l1-3c1.156 1.493 1.99 1.326 2.5-.5-1.785-1.974-2.785-3.974-3-6 1.561-.188 2.228.645 2 2.5a12.93 12.93 0 0 0 5-.5 6.802 6.802 0 0 1-3-1.5c.73-1.506 1.063-2.84 1-4l2 2c2.631-2.408 5.131-2.408 7.5 0l1-1c.278.916.778 1.582 1.5 2Z" style="opacity:.204"/><path fill="#e66f42" d="M280.5 150.5a120.993 120.993 0 0 1 11 18c2.237.632 3.903 1.965 5 4a46.396 46.396 0 0 0-6.5 7 851.991 851.991 0 0 1-19.5 34 91.123 91.123 0 0 1-19 1c-1.051-.722-1.718-1.722-2-3 6.342.166 12.675 0 19-.5l22-38a202.688 202.688 0 0 1-11-20.5l1-2Z" style="opacity:.173"/><path fill="#e232e9" d="M1122.5 138.5c3.06 4.437 5.89 9.103 8.5 14 1.49 1.66 3.32 2.66 5.5 3-.38 1.431-1.38 2.264-3 2.5.23.399.56.565 1 .5a149.025 149.025 0 0 0-9.5 14 923.227 923.227 0 0 0-13.5 25.5 1941.102 1941.102 0 0 0 19.5 35.5c3 1.472 3.83 3.638 2.5 6.5-4.16 1.174-5.49-.159-4-4l-21-35a7.32 7.32 0 0 1-3-2l-44-1a470.236 470.236 0 0 1-10-17.5c.67-.333 1.33-.667 2-1a272.65 272.65 0 0 1 10 15.5c15.09.967 30.09.633 45-1a506.53 506.53 0 0 0 21-37 297.542 297.542 0 0 0-8-14.5 6.927 6.927 0 0 0 1-4Z" style="opacity:.257"/><path fill="#f55bd8" d="M965.5 160.5c10.672-.167 21.339 0 32 .5a210.525 210.525 0 0 1 15 26.5c-4.6 9.039-9.6 17.873-15 26.5a171.233 171.233 0 0 1-32-.5l-15-26a539.129 539.129 0 0 0 15-27Zm2 3c9.69-.332 19.356.002 29 1a385.383 385.383 0 0 1 13 23 833.603 833.603 0 0 1-14 23.5 131.26 131.26 0 0 1-28-.5 268.352 268.352 0 0 1-13-23.5 806.03 806.03 0 0 0 13-23.5Z" style="opacity:.296"/><path fill="#b825b9" d="M377.5 208.5c10.672-.167 21.339 0 32 .5a18.473 18.473 0 0 1 2 3.5h-3a265.208 265.208 0 0 0-32-1 5.727 5.727 0 0 0 1-3Z" style="opacity:.2"/><path fill="#f3881f" d="M215.5 196.5c3.1 4.685 6.1 9.519 9 14.5 8.327.5 16.66.666 25 .5.282 1.278.949 2.278 2 3-8.673-.166-17.34 0-26 .5a537.794 537.794 0 0 0-25 41.5c-16-1.333-32-1.333-48 0-4.06-2.242-3.894-4.242.5-6 1.28.113 2.113.78 2.5 2 14 1.333 28 1.333 42 0 .59-1.299 1.59-2.132 3-2.5a862.796 862.796 0 0 0 20-34c-1.247-1.458-1.247-2.958 0-4.5a122.812 122.812 0 0 1-7-13c1.333 0 2-.667 2-2Z" style="opacity:.086"/><path fill="#d921f1" d="M1439.5 194.5v3c-13-.167-26 0-39 .5a429.584 429.584 0 0 0-23 37.5c1.35 2.693 2.68 5.36 4 8-.33 1-1 1.667-2 2-2.93-3.517-4.43-7.517-4.5-12a660.626 660.626 0 0 0 20.5-36.5 509.756 509.756 0 0 0-17.5-32.5c-1.31-2.973-3.31-5.307-6-7-1-4.667.67-6 5-4a19.24 19.24 0 0 0 3 9 717.703 717.703 0 0 0 19 31 427.12 427.12 0 0 0 40.5 1Z" style="opacity:.242"/><path fill="#b722be" d="M393.5 237.5a19.871 19.871 0 0 1-5.5 1 6.802 6.802 0 0 0-1.5-3c.394 1.924-.273 3.757-2 5.5l1 1c-1.063 1.188-2.397 1.688-4 1.5a8.43 8.43 0 0 1-.5 4 22.144 22.144 0 0 0-4 7l-1-1c-.5 1.167-1.333 2-2.5 2.5a4.457 4.457 0 0 1 2 1.5 5.576 5.576 0 0 0-1 3 77.5 77.5 0 0 1-18-9.5l18-9a557.09 557.09 0 0 0 11-19.5c2.934 4.868 5.6 9.868 8 15Z" style="opacity:.178"/><path fill="#ff9202" d="M167.5 302.5c-1 .333-1.667 1-2 2a2185.336 2185.336 0 0 1-32-55 817.47 817.47 0 0 0-70-.5 524.505 524.505 0 0 0-14 24.5h-3a539.289 539.289 0 0 1 15-27 889.007 889.007 0 0 1 73-.5 1596.582 1596.582 0 0 1 33 56.5Z" style="opacity:.102"/><path fill="#c3339e" d="M377.5 208.5a5.727 5.727 0 0 1-1 3 49.87 49.87 0 0 0-14 1l-20.5 35c-.612 3.111.221 5.777 2.5 8-1.291-.237-2.291.096-3 1-.816-1.644-2.15-2.81-4-3.5-6.658-.5-13.325-.666-20-.5a9.82 9.82 0 0 1-4-3c7.696.331 15.362-.003 23-1l3-2a2097.938 2097.938 0 0 1 22-37.5 128.507 128.507 0 0 1 16-.5Z" style="opacity:.161"/><path fill="#cc4481" d="M313.5 249.5a9.82 9.82 0 0 0 4 3c-9.199-.47-18.199.197-27 2-.423-2.788.577-4.788 3-6a106.21 106.21 0 0 0 20 1Z" style="opacity:.149"/><path fill="#b117cd" d="M393.5 237.5a11.105 11.105 0 0 0 3 4.5l18 9a118 118 0 0 1-18 10 568.792 568.792 0 0 1-11.5 19.5 283.555 283.555 0 0 0-10.5-20 5.576 5.576 0 0 1 1-3 4.457 4.457 0 0 0-2-1.5c1.167-.5 2-1.333 2.5-2.5l1 1a22.144 22.144 0 0 1 4-7 8.43 8.43 0 0 0 .5-4c1.603.188 2.937-.312 4-1.5l-1-1c1.727-1.743 2.394-3.576 2-5.5a6.802 6.802 0 0 1 1.5 3 19.871 19.871 0 0 0 5.5-1Z" style="opacity:.184"/><path fill="#df31e9" d="M1381.5 243.5c6.1 10.021 12.1 20.188 18 30.5 13.33.5 26.66.667 40 .5v3c-14.02.333-28.02-.001-42-1a730.09 730.09 0 0 1-18-31c1-.333 1.67-1 2-2Z" style="opacity:.272"/><path fill="#a000fe" d="M617.5 262.5c1.256-.039 2.256.461 3 1.5l-9 15a153.296 153.296 0 0 0 9 14 64.218 64.218 0 0 0 16 0l7.5-13.5a7.248 7.248 0 0 1 2.5-2 184.29 184.29 0 0 0 18 1.5 281.828 281.828 0 0 0 8.5 13.5c.667 1.333.667 2.667 0 4l-7.5 13c-5.972.83-11.972 1.33-18 1.5a113.627 113.627 0 0 0-10 15l-17 1a356.671 356.671 0 0 0-9 15.5c-6.634.997-13.3 1.33-20 1v-3c6.009.166 12.009-.001 18-.5a273.302 273.302 0 0 0 8-13.5 193.029 193.029 0 0 0-8-14.5c-6.028-.17-12.028-.67-18-1.5l-9-16a356.671 356.671 0 0 1 9-15.5l17-1a211.891 211.891 0 0 0 9-15.5Zm-24 19a64.873 64.873 0 0 1 16 1l7 12a57.8 57.8 0 0 1-8 13.5c-5 .667-10 .667-15 0a147.832 147.832 0 0 1-7-13.5 121.66 121.66 0 0 1 7-13Zm54 0a64.873 64.873 0 0 1 16 1l6.5 11c-1.776 5.047-4.276 9.881-7.5 14.5-5 .667-10 .667-15 0l-8-13a280.528 280.528 0 0 0 8-13.5Zm-27 15a112.97 112.97 0 0 1 15 .5 273.302 273.302 0 0 1 8 13.5l-7 12a43.233 43.233 0 0 1-16 .5l-8-13a280.528 280.528 0 0 0 8-13.5Z" style="opacity:.166"/><path fill="#cf15f5" d="M1321.5 303.5c-1.69-.684-2.69-2.017-3-4 1.31-1.952 1.98-3.785 2-5.5-1.24.077-2.24-.089-3-.5a4.473 4.473 0 0 1 2-1.5c-1.82-1.415-2.49-2.915-2-4.5 6.15-9.915 15.15-14.915 27-15 .3 10.23-3.37 18.73-11 25.5a32.688 32.688 0 0 1-12 5.5Z" style="opacity:.253"/><path fill="#c60cf8" d="M1317.5 287.5c-.49 1.585.18 3.085 2 4.5-.81.308-1.47.808-2 1.5.76.411 1.76.577 3 .5-.02 1.715-.69 3.548-2 5.5.31 1.983 1.31 3.316 3 4-.76.768-1.76 1.268-3 1.5.95.483 1.95.649 3 .5-.76.768-1.76 1.268-3 1.5 3.69.914 3.35 1.581-1 2l4 1c-.33.333-.67.667-1 1 2.46 1.154 2.46 2.488 0 4 2.53 2.075 2.36 2.908-.5 2.5-.37.916-.87 1.75-1.5 2.5 1.4 1.062 2.4 2.395 3 4-.34 1.03-1 1.53-2 1.5a62.473 62.473 0 0 1-7.5-13 28.208 28.208 0 0 1-1.5 4c-2.22-.322-4.06.345-5.5 2a16.059 16.059 0 0 0-2.5-4.5c.83-1.465 1-2.965.5-4.5-1.27.116-2.6.449-4 1-.28-.916-.78-1.582-1.5-2 2.64-1.828 5.64-2.995 9-3.5-17.05-4.209-25.72-15.043-26-32.5 16.55.715 27.05 9.048 31.5 25a71.912 71.912 0 0 1 5.5-10Z" style="opacity:.248"/><path fill="#a201fd" d="M508.5 372.5c.111-.617.444-1.117 1-1.5a39.445 39.445 0 0 0-5-2.5 474.273 474.273 0 0 0 43-1 1026.968 1026.968 0 0 0 22-37 2097.938 2097.938 0 0 0-22-37.5 338.065 338.065 0 0 0-45 .5 324.045 324.045 0 0 1-13 21h-3a515.474 515.474 0 0 1 15.5-26c15.759.825 31.593 1.325 47.5 1.5a765.387 765.387 0 0 1 22.5 39.5c.667 1 .667 2 0 3l-19 32c-2 3.333-2 6.667 0 10a805.256 805.256 0 0 1 19 33c3.349 1.241 4.182 3.408 2.5 6.5-1.867.711-3.367.211-4.5-1.5-.617-.949-.451-1.782.5-2.5a2013.662 2013.662 0 0 0-22-36.5 411.05 411.05 0 0 0-40-1Z" style="opacity:.153"/><path fill="#f75fd7" d="M963.5 264.5c10.672-.167 21.339 0 32 .5 5.4 8.627 10.4 17.461 15 26.5-4.6 9.039-9.6 17.873-15 26.5a171.233 171.233 0 0 1-32-.5l-15-26a313.912 313.912 0 0 0 15-27Zm2 3c9.339-.166 18.673 0 28 .5a826.485 826.485 0 0 1 14 23.5 387.056 387.056 0 0 1-13 23c-9.894 1.318-19.727 1.318-29.5 0a439.608 439.608 0 0 1-12.5-23c4.341-8.017 8.675-16.017 13-24Z" style="opacity:.294"/><path fill="#d829ed" d="M1357.5 258.5a1621.514 1621.514 0 0 1 27 47 529.032 529.032 0 0 1-15 27 5.72 5.72 0 0 1-3-1c4.99-8.639 9.99-17.306 15-26a783.602 783.602 0 0 1-26-46c.67-.333 1.33-.667 2-1Z" style="opacity:.298"/><path fill="#e334e8" d="M907.5 294.5h-3a158.408 158.408 0 0 1-6-10.5 484.008 484.008 0 0 0-44 0 627.034 627.034 0 0 0-21.5 35.5c-.36 3.294.473 6.294 2.5 9h-4c-.782-1.951-2.116-3.451-4-4.5a112.97 112.97 0 0 0-15-.5 5.727 5.727 0 0 1-1-3c5.344.166 10.677-.001 16-.5a242.343 242.343 0 0 0 23-40 512.45 512.45 0 0 1-23-41.5c1.967-.239 3.801.094 5.5 1 .684 1.284.517 2.451-.5 3.5a1760.362 1760.362 0 0 0 20 34.5l3 2 45 2a122.812 122.812 0 0 1 7 13Z" style="opacity:.238"/><path fill="#be22c5" d="M344.5 255.5a1496.38 1496.38 0 0 0 18 31.5 76.4 76.4 0 0 0 20 1.5c.61.891.943 1.891 1 3a162.597 162.597 0 0 0-18 .5 226.704 226.704 0 0 0-24 43c-7.109-1.342-14.443-1.842-22-1.5 1.333-1 1.333-2 0-3 6.784.42 13.45-.08 20-1.5a621.23 621.23 0 0 0 20.5-35.5c.667-1.333.667-2.667 0-4a43596.268 43596.268 0 0 0-18.5-33c.709-.904 1.709-1.237 3-1Z" style="opacity:.145"/><path fill="#cb16f5" d="M1321.5 305.5c15.01 5.354 22.68 16.021 23 32-10.09-.547-18.42-4.547-25-12 1 .03 1.66-.47 2-1.5-.6-1.605-1.6-2.938-3-4a9.246 9.246 0 0 0 1.5-2.5c2.86.408 3.03-.425.5-2.5 2.46-1.512 2.46-2.846 0-4 .33-.333.67-.667 1-1l-4-1c4.35-.419 4.69-1.086 1-2 1.24-.232 2.24-.732 3-1.5Z" style="opacity:.263"/><path fill="#e35959" d="M221.5 306.5c7.696-.331 15.362.003 23 1 2.011 3.361 4.011 6.694 6 10-.454 1.759-.454 3.759 0 6-2.803-4.33-5.47-8.83-8-13.5-6.992-.5-13.992-.666-21-.5v-3Z" style="opacity:.102"/><path fill="#c209fa" d="M1297.5 308.5c.72.418 1.22 1.084 1.5 2 1.4-.551 2.73-.884 4-1 .5 1.535.33 3.035-.5 4.5a16.059 16.059 0 0 1 2.5 4.5c1.44-1.655 3.28-2.322 5.5-2-5.52 13.157-15.52 20.157-30 21-.21-13.253 5.45-22.92 17-29Z" style="opacity:.251"/><path fill="#e845e2" d="M1439.5 308.5v6c-1.33 1-1.33 2 0 3v6c-1.69-2.216-3.03-4.716-4-7.5.97-2.784 2.31-5.284 4-7.5Z" style="opacity:.301"/><path fill="#db25ef" d="M811.5 320.5a5.727 5.727 0 0 0 1 3c-9.006-.166-18.006 0-27 .5a428.37 428.37 0 0 0-23 37.5 1380.48 1380.48 0 0 0 22 38.5c8.66.5 17.327.666 26 .5a36.27 36.27 0 0 0 10 3 362.008 362.008 0 0 1-38-1 741.864 741.864 0 0 1-23-41 2162.885 2162.885 0 0 0 21-38.5 510.26 510.26 0 0 0-17.5-32.5c-1.31-2.973-3.31-5.307-6-7-1-4.667.667-6 5-4a19.24 19.24 0 0 0 3 9 845.416 845.416 0 0 1 17.5 30 6.802 6.802 0 0 0 3 1.5c8.66.5 17.327.666 26 .5Z" style="opacity:.252"/><path fill="#d034ab" d="M319.5 330.5c1.333 1 1.333 2 0 3-7.674-.166-15.341 0-23 .5-2.543 2.102-4.543 1.602-6-1.5.462-1.791 1.629-2.791 3.5-3a183.18 183.18 0 0 0 25.5 1Z" style="opacity:.129"/><path fill="#f154dc" d="M904.5 294.5h3a529.284 529.284 0 0 1 16 27 1380.864 1380.864 0 0 0-22 39.5 282.556 282.556 0 0 1 10 18.5c-.904.709-1.237 1.709-1 3a6385.764 6385.764 0 0 1-11-18 273.104 273.104 0 0 0-33-1 12.066 12.066 0 0 1 3-4c9.672.166 19.339 0 29-.5a1481.11 1481.11 0 0 1 18.5-31.5c1.885-2.414 2.552-5.081 2-8-4.845-8.361-9.678-16.694-14.5-25Z" style="opacity:.331"/><path fill="#c109fa" d="M1357.5 258.5c-.67.333-1.33.667-2 1a124.197 124.197 0 0 1-8-13 630.782 630.782 0 0 0-71 0 2554.301 2554.301 0 0 1-34 59 2554.301 2554.301 0 0 1 34 59 630.782 630.782 0 0 0 71 0 812.398 812.398 0 0 0 19-33c.89.61 1.89.943 3 1a1912.724 1912.724 0 0 1-21 35.5c-24.33.667-48.67.667-73 0a2866.08 2866.08 0 0 1-36-62 1471.04 1471.04 0 0 1 36-63c24.33-.667 48.67-.667 73 0a209.74 209.74 0 0 1 9 15.5Z" style="opacity:.224"/><path fill="#b215e9" d="M408.5 212.5h3a682.371 682.371 0 0 1 21 37.5 1047.533 1047.533 0 0 0-21 38c1.333 1.333 1.333 2.667 0 4a1997.688 1997.688 0 0 0 21 36.5 9.86 9.86 0 0 0 6 1c1.333 1 1.333 2 0 3-1.967-.239-3.801.094-5.5 1l-21.5 37a742.57 742.57 0 0 0 23 38.5c14 .667 28 .667 42 0a9.454 9.454 0 0 0 2.5-1.5 185.931 185.931 0 0 1 9.5-16l1 4a111.634 111.634 0 0 0-8 16 360.573 360.573 0 0 0 22.5 38c.725 5.089-.942 6.089-5 3-.684-1.284-.517-2.451.5-3.5l-21-35c-7.4-1.134-14.9-1.634-22.5-1.5-8.696-.086-17.196.414-25.5 1.5-1.333-1.667-1.333-3.333 0-5a1076.674 1076.674 0 0 1-22-38 1380.864 1380.864 0 0 1 22-39.5 473.131 473.131 0 0 0-24-39.5c-7.659-.5-15.326-.666-23-.5a5.727 5.727 0 0 0-1-3c8.36.331 16.693-.002 25-1a2097.938 2097.938 0 0 1 22-37.5 2131.377 2131.377 0 0 1-21-37.5Z" style="opacity:.195"/><path fill="#a707f8" d="M486.5 314.5h3a141.951 141.951 0 0 1-7.5 14c-.667 1.333-.667 2.667 0 4a851.991 851.991 0 0 1 19.5 34 44.093 44.093 0 0 1 3 2 39.445 39.445 0 0 1 5 2.5c-.556.383-.889.883-1 1.5-2.436-.183-4.603.484-6.5 2-4.193 7.063-8.359 14.063-12.5 21l-1-4a593.358 593.358 0 0 0 11-20.5 651.647 651.647 0 0 0-20.5-36.5 9.454 9.454 0 0 0-2.5-1.5 721.824 721.824 0 0 0-38-.5c1.333-1 1.333-2 0-3 12.671.167 25.338 0 38-.5a49.208 49.208 0 0 0 10-14.5Z" style="opacity:.171"/><path fill="#df4a96" d="M250.5 317.5a1647.274 1647.274 0 0 0 27 47c6.093.409 8.093 3.409 6 9-2.195 1.269-4.361 1.269-6.5 0a57.884 57.884 0 0 0-4-11 1337.72 1337.72 0 0 1-22.5-39c-.454-2.241-.454-4.241 0-6Z" style="opacity:.118"/><path fill="#f56354" d="M201.5 350.5a43.19 43.19 0 0 1-4 5.5c-1.284.684-2.451.517-3.5-.5-.439 2.799-1.772 3.799-4 3-.684 1.284-.517 2.451.5 3.5-1.178.967-2.511 1.467-4 1.5 1.353 1.024 2.02 2.357 2 4-4.531-3.347-8.031-7.347-10.5-12a286.37 286.37 0 0 1 14.5-14 57.509 57.509 0 0 1 9 9Z" style="opacity:.09"/><path fill="#ff72ca" d="M1098.5 401.5c-5.58-.356-10.91-1.356-16-3 8.03.331 16.03-.002 24-1a965.557 965.557 0 0 0 21.5-36c.51-4.014-.49-7.681-3-11a502.68 502.68 0 0 0-19.5-31.5c2.33-4.667 4.67-4.667 7 0-1.17 1.868-1.01 3.702.5 5.5 6.04 10.25 12.21 20.417 18.5 30.5 15.92 1.138 31.92 1.971 48 2.5 7.67 13.333 15.33 26.667 23 40a537.01 537.01 0 0 1-24 41.5c-15.67.667-31.33.667-47 0a627.365 627.365 0 0 1-21.5-36.5c-3.73-.96-7.56-1.293-11.5-1Zm35-42c14.68-.333 29.35.001 44 1a2110.056 2110.056 0 0 0 22 37.5 2110.056 2110.056 0 0 0-22 37.5c-15 1.333-30 1.333-45 0a1842.518 1842.518 0 0 0-21-35.5c-.43-2.128.07-4.295 1.5-6.5a844.323 844.323 0 0 1 20.5-34Zm18 31c7.11-1.388 11.44 1.445 13 8.5-3.38 9.312-8.88 10.812-16.5 4.5-2.65-5.461-1.49-9.794 3.5-13Z" style="opacity:.261"/><path fill="#df3ee3" d="M1439.5 353.5v5c-15.09-1.96-30.43-2.626-46-2-.34-.838-1.01-1.172-2-1 .11-.617.44-1.117 1-1.5 15.66-.5 31.33-.667 47-.5Z" style="opacity:.285"/><path fill="#ff690a" d="M46.5 273.5h3a1940.894 1940.894 0 0 1-21 35.5A1748.93 1748.93 0 0 1 63 368.5a98.261 98.261 0 0 0 19.5 1 123.156 123.156 0 0 1-21 2 5715.484 5715.484 0 0 1-36-62.5 618.7 618.7 0 0 1 21-35.5Z" style="opacity:.059"/><path fill="#e944e1" d="M831.5 328.5h4c5.974 9.937 11.974 19.937 18 30a69.234 69.234 0 0 0 16 1 12.066 12.066 0 0 0-3 4 46.755 46.755 0 0 0-13 1 1080.323 1080.323 0 0 0-22.5 38c-3.394.956-6.894 1.289-10.5 1a36.27 36.27 0 0 1-10-3c6.009.166 12.009-.001 18-.5l22-37a347.111 347.111 0 0 0-19-34.5Z" style="opacity:.345"/><path fill="#fd6e33" d="M167.5 302.5c1.86.532 3.86 1.699 6 3.5 15.997.5 31.997.667 48 .5v3c-15.67-.167-31.337 0-47 .5-1.079 2.043-2.746 3.376-5 4a2682.606 2682.606 0 0 0-31 53.5c1.258 2.148 1.258 4.315 0 6.5a33.046 33.046 0 0 1 4 8.5c.172.992-.162 1.658-1 2a61.198 61.198 0 0 1-6-9 32.065 32.065 0 0 1-4-2.5 2434.844 2434.844 0 0 1-70-1.5 123.156 123.156 0 0 0 21-2 576.95 576.95 0 0 0 48-1 140.807 140.807 0 0 0 6.5-6 1171.164 1171.164 0 0 1 29-50c-.43-2.784-.596-5.45-.5-8 .333-1 1-1.667 2-2Z" style="opacity:.063"/><path fill="#f55f68" d="M201.5 350.5c1.981 1.644 3.981 3.31 6 5 1.686-1.357 3.352-2.69 5-4a56.82 56.82 0 0 0-4 7.5c.192 1.82.359 3.653.5 5.5l-5 5a3.647 3.647 0 0 0-1.5-1 32.065 32.065 0 0 1-2.5 4c-1.613-1.122-2.78-.622-3.5 1.5a6.802 6.802 0 0 1 3 1.5c-1.847 1.33-3.347.997-4.5-1-1.651 1.902-1.984 3.902-1 6a15.256 15.256 0 0 1-4.5 1.5 6.802 6.802 0 0 1 3 1.5c-.346 1.196-.846 1.196-1.5 0a4.934 4.934 0 0 0-.5 3c-2.442-.381-3.109.286-2 2-2.384.511-4.384 1.511-6 3a17.858 17.858 0 0 1-5-5 266.626 266.626 0 0 1 13.5-14c-.058-1.935-.891-3.602-2.5-5 .02-1.643-.647-2.976-2-4 1.489-.033 2.822-.533 4-1.5-1.017-1.049-1.184-2.216-.5-3.5 2.228.799 3.561-.201 4-3 1.049 1.017 2.216 1.184 3.5.5a43.19 43.19 0 0 0 4-5.5Z" style="opacity:.102"/><path fill="#f55f72" d="M226.5 345.5c-1.745 1.306-3.745 2.306-6 3a3.647 3.647 0 0 0 1 1.5l-4 5c2.412 2.035 1.745 3.035-2 3 4 .667 4 1.333 0 2l2 2c-2.104 2.042-3.271 4.542-3.5 7.5-.654-1.196-1.154-1.196-1.5 0 .665 1.601.999 3.101 1 4.5-2.47.161-4.803 1.328-7 3.5-2.547-1.48-3.714-.814-3.5 2 .718-.951 1.551-1.117 2.5-.5a26.585 26.585 0 0 1-2 3.5c-1.216-.502-2.383-.835-3.5-1l-3.5 6.5c1.301 1.939.635 3.106-2 3.5-1.602-1.05-2.435-.383-2.5 2l-3 1a4.934 4.934 0 0 0-.5 3 25.658 25.658 0 0 1-6-6c1.616-1.489 3.616-2.489 6-3-1.109-1.714-.442-2.381 2-2a4.934 4.934 0 0 1 .5-3c.654 1.196 1.154 1.196 1.5 0a6.802 6.802 0 0 0-3-1.5 15.256 15.256 0 0 0 4.5-1.5c-.984-2.098-.651-4.098 1-6 1.153 1.997 2.653 2.33 4.5 1a6.802 6.802 0 0 0-3-1.5c.72-2.122 1.887-2.622 3.5-1.5a32.065 32.065 0 0 0 2.5-4 3.647 3.647 0 0 1 1.5 1l5-5c-.141-1.847-.308-3.68-.5-5.5a56.82 56.82 0 0 1 4-7.5 70.852 70.852 0 0 1 10-10c1.688 1.021 3.021 2.355 4 4Z" style="opacity:.106"/><path fill="#ff72c9" d="M1149.5 380.5c15.89-1.676 24.06 5.324 24.5 21-3.23 12.039-11.07 17.205-23.5 15.5-13.8-6.047-17.3-15.881-10.5-29.5 2.82-2.976 5.99-5.309 9.5-7Zm2 10c-4.99 3.206-6.15 7.539-3.5 13 7.62 6.312 13.12 4.812 16.5-4.5-1.56-7.055-5.89-9.888-13-8.5Z" style="opacity:.307"/><path fill="#f45e7c" d="M226.5 345.5a85.693 85.693 0 0 1 11 11 266.626 266.626 0 0 1-13.5 14c-.3 1.566.2 2.899 1.5 4-2.298.81-4.632 1.644-7 2.5l1 1c-1.803 1.984-2.803 3.984-3 6 3.861.569 3.861 1.402 0 2.5a3.647 3.647 0 0 0 1 1.5c-1.648 1.462-2.648 3.295-3 5.5a2968.346 2968.346 0 0 1-7-6 266.626 266.626 0 0 0-14 13.5c-2.272-.077-3.938-1.243-5-3.5a4.934 4.934 0 0 1 .5-3l3-1c.065-2.383.898-3.05 2.5-2 2.635-.394 3.301-1.561 2-3.5l3.5-6.5c1.117.165 2.284.498 3.5 1a26.585 26.585 0 0 0 2-3.5c-.949-.617-1.782-.451-2.5.5-.214-2.814.953-3.48 3.5-2 2.197-2.172 4.53-3.339 7-3.5-.001-1.399-.335-2.899-1-4.5.346-1.196.846-1.196 1.5 0 .229-2.958 1.396-5.458 3.5-7.5l-2-2c4-.667 4-1.333 0-2 3.745.035 4.412-.965 2-3l4-5a3.647 3.647 0 0 1-1-1.5c2.255-.694 4.255-1.694 6-3Z" style="opacity:.114"/><path fill="#f15c89" d="M225.5 374.5a193.893 193.893 0 0 1 12 11.5L222 401.5a84.01 84.01 0 0 1-7.5-8c.352-2.205 1.352-4.038 3-5.5a3.647 3.647 0 0 1-1-1.5c3.861-1.098 3.861-1.931 0-2.5.197-2.016 1.197-4.016 3-6l-1-1c2.368-.856 4.702-1.69 7-2.5Z" style="opacity:.125"/><path fill="#ce35ce" d="M363.5 352.5c2.344.44 4.344 1.44 6 3a49.87 49.87 0 0 0-14 1 794.671 794.671 0 0 1-13 23.5 268.352 268.352 0 0 0 13 23.5 13.116 13.116 0 0 0 7 1 5.727 5.727 0 0 0-1 3c-3.185.48-6.019-.186-8.5-2a956.144 956.144 0 0 1-14.5-25.5 1046.148 1046.148 0 0 0 15.5-26.5c3.057-.951 6.223-1.284 9.5-1Z" style="opacity:.191"/><path fill="#cd2beb" d="M1391.5 355.5c.99-.172 1.66.162 2 1a735.504 735.504 0 0 1-22 38.5 2110.056 2110.056 0 0 1 22 37.5l22.5 1c8.07-.033 15.9-.699 23.5-2v5c-15.67.167-31.34 0-47-.5a784.06 784.06 0 0 1-24-41 759.973 759.973 0 0 1 23-39.5Z" style="opacity:.274"/><path fill="#c52ddc" d="M363.5 352.5c7.341-.166 14.674 0 22 .5a338.983 338.983 0 0 1 16 27 1039.807 1039.807 0 0 1-15 26.5 157.135 157.135 0 0 1-25 1 5.727 5.727 0 0 1 1-3c7.341.166 14.674 0 22-.5a427.947 427.947 0 0 1 14-24 828.844 828.844 0 0 1-14-23.5 57.15 57.15 0 0 0-15-1c-1.656-1.56-3.656-2.56-6-3Z" style="opacity:.114"/><path fill="#fe6c6b" d="M142.5 382.5a181.102 181.102 0 0 1 16 27v5a329.756 329.756 0 0 1-17-30c.838-.342 1.172-1.008 1-2Z" style="opacity:.095"/><path fill="#c70ef8" d="M702.5 432.5c-.79-1.109-1.29-2.442-1.5-4-1.294 1.354-1.46 2.688-.5 4-2.578.177-2.578 1.343 0 3.5-1.593.949-2.926 2.115-4 3.5-4.907 15.479-15.573 23.812-32 25 .323-17.492 8.99-28.325 26-32.5-17.05-4.209-25.717-15.043-26-32.5 16.548.715 27.048 9.048 31.5 25 5.209-15.716 16.043-24.049 32.5-25-.789 17.259-9.455 28.259-26 33Z" style="opacity:.25"/><path fill="#d525ef" d="M737.5 375.5a1442.345 1442.345 0 0 1 32 56 1944.87 1944.87 0 0 1-36 62.5 60.931 60.931 0 0 1-11 .5c1.4-.6 2.4-1.6 3-3a13.116 13.116 0 0 0 7-1l34-59a41997.825 41997.825 0 0 1-31-54c.333-1 1-1.667 2-2Z" style="opacity:.292"/><path fill="#fb6987" d="M158.5 409.5a233.883 233.883 0 0 1 10.5 18c4.056-1.999 6.556-.832 7.5 3.5-.659 4.082-2.992 5.416-7 4a614.148 614.148 0 0 0-11-20.5v-5Z" style="opacity:.138"/><path fill="#b50df9" d="M1300.5 380.5a277.925 277.925 0 0 1 15 23.5l27 1a461.814 461.814 0 0 1 13 23.5 461.814 461.814 0 0 1-13 23.5c-9.67.667-19.33.667-29 0a612.242 612.242 0 0 0-12-20.5 452.265 452.265 0 0 0-30-1.5c-4.67-8-9.33-16-14-24a9.39 9.39 0 0 0 2.5-1.5l13.5 23c8.89 1.316 17.73 1.316 26.5 0a449.63 449.63 0 0 1 12.5-22c-4.17-7-8.33-14-12.5-21-.58-1.428-.41-2.762.5-4Zm15 27c8.34-.166 16.67 0 25 .5 4.38 6.587 8.38 13.42 12 20.5a208.009 208.009 0 0 1-12 20.5c-8.33.667-16.67.667-25 0-4.2-6.703-8.2-13.537-12-20.5 4.03-7.017 8.03-14.017 12-21Z" style="opacity:.241"/><path fill="#f967d0" d="M925.5 429.5a441.814 441.814 0 0 1 42 1 904.868 904.868 0 0 1-21 35 483.68 483.68 0 0 1-21-36Z" style="opacity:.394"/><path fill="#ed52dc" d="M835.5 414.5c10.339-.166 20.672 0 31 .5l16 27-16 27a240.38 240.38 0 0 1-31 0 266.144 266.144 0 0 1-15-27 1099.987 1099.987 0 0 0 15-27.5Zm2 3c9.357-.332 18.69.002 28 1a268.352 268.352 0 0 1 13 23.5 268.352 268.352 0 0 1-13 23.5 131.26 131.26 0 0 1-28 .5 430.834 430.834 0 0 1-14-24 876.687 876.687 0 0 1 14-24.5Z" style="opacity:.334"/><path fill="#ca15f5" d="M702.5 432.5c17.076 3.75 25.743 14.417 26 32-16.346-1.162-27.013-9.496-32-25 1.074-1.385 2.407-2.551 4-3.5-2.578-2.157-2.578-3.323 0-3.5-.96-1.312-.794-2.646.5-4 .21 1.558.71 2.891 1.5 4Z" style="opacity:.263"/><path fill="#fb6bce" d="M1082.5 398.5c5.09 1.644 10.42 2.644 16 3-13.38-.091-26.71.076-40 .5a290.261 290.261 0 0 0-20-37.5l-3-2.5a420.29 420.29 0 0 0-41 0 14.51 14.51 0 0 0-4.5 4.5 555.042 555.042 0 0 1-19.5 33.5 689.138 689.138 0 0 0 21 37.5 12.403 12.403 0 0 0 4 2.5c13.68.833 27.35.666 41-.5 3.77-2.743 5.6-1.743 5.5 3-15.96.681-31.96 1.348-48 2a742.297 742.297 0 0 0-23.5 38.5c-12.996.5-25.996.667-39 .5.6-1.4 1.6-2.4 3-3a307.162 307.162 0 0 0 35-1 1972.206 1972.206 0 0 0 21-36.5 16022.625 16022.625 0 0 0-21-37 213.32 213.32 0 0 0-35-1.5v-3c10.339.166 20.672 0 31-.5l3.5-3.5a713.94 713.94 0 0 1 18-31c1.852-2.615 2.685-5.281 2.5-8 15.25.081 30.59-.086 46-.5 1.15-1.744 2.48-1.911 4-.5a308.489 308.489 0 0 0 21 38.5 7.32 7.32 0 0 1 3 2c6.32.5 12.66.666 19 .5Z" style="opacity:.355"/><path fill="#f55fd5" d="M911.5 379.5a628.267 628.267 0 0 0 12 19.5c3.324 2.128 6.991 2.961 11 2.5v3a31.116 31.116 0 0 0-11 1 1004.86 1004.86 0 0 1-21 37 1004.86 1004.86 0 0 0 21 37 31.116 31.116 0 0 0 11 1c-1.4.6-2.4 1.6-3 3a40.914 40.914 0 0 1-9-.5 1555.533 1555.533 0 0 1-24-40.5l22-38c-1.247-1.542-1.247-3.042 0-4.5a472.263 472.263 0 0 1-10-17.5c-.237-1.291.096-2.291 1-3Z" style="opacity:.357"/><path fill="#ec5ac4" d="M309.5 422.5c6.04 5.288 8.206 11.954 6.5 20a14.444 14.444 0 0 1-2.5 5.5 171.84 171.84 0 0 1 11.5-2.5c5.895.343 10.729 2.676 14.5 7-2.107 2.561-4.774 4.394-8 5.5-5.687.974-11.187.474-16.5-1.5 1.205 4.875 1.539 9.875 1 15-3.46 13.875-7.46 14.208-12 1-.585-5.46-.251-10.794 1-16-5.313 1.974-10.813 2.474-16.5 1.5-3.226-1.106-5.893-2.939-8-5.5 3.771-4.324 8.605-6.657 14.5-7 3.558.375 6.891 1.375 10 3-1.251-5.206-1.585-10.54-1-16 1.07-3.811 2.903-7.144 5.5-10Z" style="opacity:.267"/><path fill="#c007fb" d="M737.5 375.5c-1 .333-1.667 1-2 2-1.225-1.437-2.225-3.104-3-5a630.782 630.782 0 0 0-71 0 2572.717 2572.717 0 0 1-34 59 2572.717 2572.717 0 0 1 34 59c21.323 1 42.656 1.333 64 1-.6 1.4-1.6 2.4-3 3-20.669.167-41.336 0-62-.5a2874.395 2874.395 0 0 1-36-62 1464.648 1464.648 0 0 1 36-63c24.333-.667 48.667-.667 73 0a38.675 38.675 0 0 1 4 6.5Z" style="opacity:.222"/><path fill="#f05fba" d="M317.5 411.5c-.111.617-.444 1.117-1 1.5 4.519.175 8.853.675 13 1.5a441.814 441.814 0 0 0-42 1 1020.474 1020.474 0 0 0-21 37 1187.228 1187.228 0 0 0 21 37.5c12.996.5 25.996.667 39 .5a335.515 335.515 0 0 0-32 3 21.127 21.127 0 0 1-9-1l-23-40 23-40a256.827 256.827 0 0 1 32-1Z" style="opacity:.256"/><path fill="#e854cd" d="M317.5 411.5a79.547 79.547 0 0 1 17.5 1c7.516 13.51 15.016 27.01 22.5 40.5a1189.88 1189.88 0 0 1-23 40c-13.329.5-26.663.667-40 .5a335.515 335.515 0 0 1 32-3c2.292.256 4.459-.077 6.5-1a1988.151 1988.151 0 0 1 21.5-36.5 2068.884 2068.884 0 0 0-21.5-37.5c-1.011-.837-2.178-1.17-3.5-1-4.147-.825-8.481-1.325-13-1.5.556-.383.889-.883 1-1.5Z" style="opacity:.206"/><path fill="#ff6c99" d="M154.5 478.5a5.727 5.727 0 0 0-3 1 30.786 30.786 0 0 1-3-4.5 156.422 156.422 0 0 0-25 0l-13 21a77.075 77.075 0 0 1 7 12.5c-.342.838-1.008 1.172-2 1a124.029 124.029 0 0 1-8-13 294.55 294.55 0 0 1 14-24.5l26-1a928.917 928.917 0 0 0 15.5-24.5c.944.763 1.444 1.763 1.5 3a456.54 456.54 0 0 0-13 22.5 19.25 19.25 0 0 1 3 6.5Z" style="opacity:.094"/><path fill="#e145df" d="M783.5 479.5a441.814 441.814 0 0 1 42 1l22.5 39c.52 1.789.187 3.456-1 5l-21.5 37a49.87 49.87 0 0 1-14 1 5.727 5.727 0 0 1-1-3 43.117 43.117 0 0 0 13-1 2097.938 2097.938 0 0 1 22-37.5 2097.938 2097.938 0 0 1-22-37.5 289.882 289.882 0 0 0-34-1 13.94 13.94 0 0 0-6-3Z" style="opacity:.301"/><path fill="#fe6eae" d="M231.5 471.5c-.672.767-1.505 1.434-2.5 2-2.235-1.48-4.068-1.147-5.5 1a81.883 81.883 0 0 0-18 1 626.314 626.314 0 0 0-12 20.5 81.417 81.417 0 0 1 4 7.5h-4a173.55 173.55 0 0 1-3-4 113.23 113.23 0 0 0-26-.5 201.738 201.738 0 0 0-12 21 341.952 341.952 0 0 1 8 15.5c-.333 1-1 1.667-2 2a163.774 163.774 0 0 1-9-15l-28-2a88.602 88.602 0 0 1-6-11c.992.172 1.658-.162 2-1a100.998 100.998 0 0 1 6 9.5c8.333.667 16.667.667 25 0a691.798 691.798 0 0 0 12-21.5 206.782 206.782 0 0 0-9-17 5.727 5.727 0 0 1 3-1 270.467 270.467 0 0 1 10 15.5c8.667.667 17.333.667 26 0a814.209 814.209 0 0 1 14.5-23.5 187.432 187.432 0 0 0 26.5 1Z" style="opacity:.208"/><path fill="#b810f8" d="M529.5 473.5c9.69-.332 19.356.002 29 1a396.199 396.199 0 0 0 12 20.5 452.47 452.47 0 0 1 30 1.5c5.017 7.706 9.184 15.706 12.5 24-1.147.958-2.147.625-3-1a228.933 228.933 0 0 0-12.5-21.5 156.422 156.422 0 0 0-25 0 365.207 365.207 0 0 0-13 22 268.352 268.352 0 0 0 13 23.5c-.865 1.083-1.865 1.249-3 .5a699.858 699.858 0 0 1-13-21.5 5870.538 5870.538 0 0 1-28-2 387.056 387.056 0 0 0-13-23 30818.79 30818.79 0 0 1 14-24Zm1 3c8.692-.331 17.359.002 26 1a145.81 145.81 0 0 1 11 20 145.81 145.81 0 0 1-11 20 85.021 85.021 0 0 1-26 0 3874.876 3874.876 0 0 1-11-20 312.331 312.331 0 0 1 11-21Z" style="opacity:.24"/><path fill="#cd2aec" d="M783.5 479.5a13.94 13.94 0 0 1 6 3 31.116 31.116 0 0 0-11 1 2097.938 2097.938 0 0 1-22 37.5 2097.938 2097.938 0 0 1 22 37.5 256.827 256.827 0 0 0 32 1 5.727 5.727 0 0 0 1 3c-11.338.167-22.672 0-34-.5-9.071-13.655-16.904-27.822-23.5-42.5l23.5-39.5a18.453 18.453 0 0 1 6-.5Z" style="opacity:.27"/><path fill="#cf2ceb" d="M436.5 489.5c14.337-.167 28.671 0 43 .5a620.608 620.608 0 0 1 23 41 620.608 620.608 0 0 1-23 41c-11.328.5-22.662.667-34 .5-3.297-.39-6.297-1.39-9-3 13.671.167 27.337 0 41-.5a1076.674 1076.674 0 0 0 22-38 1076.674 1076.674 0 0 0-22-38 684.346 684.346 0 0 0-37-.5 9.82 9.82 0 0 1-4-3Z" style="opacity:.254"/><path fill="#fe6fbb" d="M1101.5 519.5c-.9.79-1.57 1.79-2 3a89.93 89.93 0 0 1-7-11 113.23 113.23 0 0 0-26-.5 200.302 200.302 0 0 0-12 21 261.18 261.18 0 0 1 7 13.5c-.67 1-1.33 2-2 3a231.308 231.308 0 0 1-9-14.5 110.56 110.56 0 0 0-25.5.5 690.6 690.6 0 0 0-12.5 21.5c4.33 7 8.67 14 13 21a40.9 40.9 0 0 0 9 .5 61.73 61.73 0 0 0-7 3c-1.64.214-3.14-.12-4.5-1a842.27 842.27 0 0 1-13.5-23.5 430.212 430.212 0 0 1 14-24l26-1c5.98-6.947 10.98-14.614 15-23l27-1a559.09 559.09 0 0 0 14-24.5c9.98-.999 19.98-1.332 30-1v3c-9.36-.332-18.69.002-28 1-4.33 7.333-8.67 14.667-13 22 2.34 4.028 4.68 8.028 7 12Z" style="opacity:.28"/><path fill="#fe6fbc" d="M231.5 471.5c1.574.437 2.741 1.437 3.5 3a228.933 228.933 0 0 0 12.5 21.5l-14 24-26 1a6.978 6.978 0 0 0-3.5 2.5 295.42 295.42 0 0 0-11.5 20 366.68 366.68 0 0 1-27 1.5l-15 25c-9.661.5-19.328.666-29 .5v-3c9.006.166 18.006 0 27-.5a637.966 637.966 0 0 0 12.5-20.5c.667-1.333.667-2.667 0-4a19.177 19.177 0 0 1-2.5-5c1-.333 1.667-1 2-2 1.679 1.5 3.012 3.333 4 5.5a113.23 113.23 0 0 0 26-.5 626.314 626.314 0 0 0 12-20.5 132.323 132.323 0 0 1-9-16.5h4c3.1 4.685 6.1 9.519 9 14.5 8.353.832 16.687.665 25-.5a225.549 225.549 0 0 0 12-21.5 608.132 608.132 0 0 1-11.5-20.5c-2.719-.944-5.552-1.277-8.5-1 1.432-2.147 3.265-2.48 5.5-1 .995-.566 1.828-1.233 2.5-2Z" style="opacity:.294"/><path fill="#f25ed2" d="M327.5 502.5c9.672-.166 19.339 0 29 .5a430.834 430.834 0 0 1 14 24 283.02 283.02 0 0 1-14 25c-9.333.667-18.667.667-28 0a235.601 235.601 0 0 1-15-25 299.112 299.112 0 0 0 14-24.5Zm2 3c8.692-.331 17.359.002 26 1l12 21a699.858 699.858 0 0 1-13 21.5c-8.353.832-16.687.665-25-.5a225.549 225.549 0 0 1-12-21.5 677.578 677.578 0 0 0 12-21.5Z" style="opacity:.346"/><path fill="#f360d0" d="M899.5 499.5c9.672-.166 19.339 0 29 .5a297.824 297.824 0 0 1 14 24.5 297.824 297.824 0 0 1-14 24.5c-9.684.832-19.351.665-29-.5a828.844 828.844 0 0 0-14-23.5 189.917 189.917 0 0 0 14-25.5Zm2 3c8.34-.166 16.673 0 25 .5a699.858 699.858 0 0 1 13 21.5l-12 21c-8.893 1.316-17.726 1.316-26.5 0a608.132 608.132 0 0 0-11.5-20.5 716.649 716.649 0 0 1 12-22.5Z" style="opacity:.3"/><path fill="#fd6cae" d="M1101.5 519.5c2.11 3.391 4.11 6.891 6 10.5 9.35.168 18.68.668 28 1.5a58.784 58.784 0 0 0 5 9c-.93 1.068-1.27 2.401-1 4-1.97-3.27-3.97-6.603-6-10a104.718 104.718 0 0 0-25-.5 701.855 701.855 0 0 0-13 21.5 208.193 208.193 0 0 1 9 17c1.58 1.875 1.24 3.208-1 4a480.885 480.885 0 0 1-11-18.5c-9.02-.832-18.02-.665-27 .5a754.074 754.074 0 0 0-13 22.5c-8.27-.405-16.61-.572-25-.5a61.73 61.73 0 0 1 7-3c5.34.166 10.68-.001 16-.5a190.624 190.624 0 0 0 11.5-19.5c.67-1.333.67-2.667 0-4-1.37-1.41-2.21-3.077-2.5-5 .67-1 1.33-2 2-3 1.52 2.521 3.19 5.021 5 7.5 8.69.832 17.35.665 26-.5a612.242 612.242 0 0 0 12-20.5 70.6 70.6 0 0 1-5-9.5c.43-1.21 1.1-2.21 2-3Z" style="opacity:.223"/><path fill="#e348de" d="M436.5 489.5a9.82 9.82 0 0 0 4 3c-2.619-.268-5.119.065-7.5 1a2102.159 2102.159 0 0 0-21.5 37.5 1076.674 1076.674 0 0 0 22 38 4.934 4.934 0 0 0 3 .5c2.703 1.61 5.703 2.61 9 3a55.155 55.155 0 0 1-14.5-1 1184.61 1184.61 0 0 1-22.5-40 611.213 611.213 0 0 1 22.5-41c1.699-.906 3.533-1.239 5.5-1Z" style="opacity:.28"/><path fill="#ac0ff6" d="M1439.5 511.5v7c-.79-.283-1.46-.783-2-1.5l-21-.5a138.55 138.55 0 0 0-23 1.5 510.444 510.444 0 0 0-21 37 413.855 413.855 0 0 0 21 37.5c7.62.651 15.29.984 23 1 7.9-.034 15.57-.7 23-2v6a328.727 328.727 0 0 0-44-.5 6.97 6.97 0 0 0-3.5 2.5 105.066 105.066 0 0 1-7.5 12c-.34-.838-1.01-1.172-2-1 1.89-4.106 4.05-8.106 6.5-12 .67-2 .67-4 0-6-6.33-11-12.67-22-19-33a18.41 18.41 0 0 0-3.5-2 473.86 473.86 0 0 0-9-2 31.67 31.67 0 0 0 2-2c2.69.164 5.35-.003 8-.5a4.473 4.473 0 0 0 2-1.5 329.655 329.655 0 0 0 20-37 126.052 126.052 0 0 0-9.5-19 168.994 168.994 0 0 0-13.5-21c1.17-2.779 3.01-3.446 5.5-2a206.052 206.052 0 0 0 21.5 39.5c7.4 1.134 14.9 1.634 22.5 1.5l20.5-.5c.74-1.039 1.74-1.539 3-1.5Z" style="opacity:.212"/><path fill="#b50ff8" d="M685.5 506.5a277.925 277.925 0 0 1 15 23.5l27 1a463.37 463.37 0 0 1 13 23.5 463.37 463.37 0 0 1-13 23.5c-9.667.667-19.333.667-29 0a626.314 626.314 0 0 0-12-20.5 452.47 452.47 0 0 0-30-1.5l-14-24a9.454 9.454 0 0 0 2.5-1.5l13.5 23c8.893 1.316 17.726 1.316 26.5 0a449.63 449.63 0 0 1 12.5-22l-12.5-21c-.579-1.428-.412-2.762.5-4Zm15 27c8.34-.166 16.673 0 25 .5a208.804 208.804 0 0 1 12 20.5 208.804 208.804 0 0 1-12 20.5c-8.333.667-16.667.667-25 0a396.199 396.199 0 0 1-12-20.5 6141.16 6141.16 0 0 0 12-21Z" style="opacity:.243"/><path fill="#ef5cc3" d="M952.5 609.5c-.722.418-1.222 1.084-1.5 2-.359-3.044-1.026-3.378-2-1-1.281.119-2.448-.381-3.5-1.5l3-1c-.609-2.058-1.609-2.891-3-2.5 3.875-.986 3.875-2.153 0-3.5 2.378-.974 2.044-1.641-1-2 .787-1.313.454-2.48-1-3.5 0-.667-.333-1-1-1-1.948-5.488-2.448-11.155-1.5-17 1.244-3.482 3.244-6.482 6-9 6.875 7.748 8.042 16.248 3.5 25.5 5.48-1.445 11.146-1.778 17-1a20.924 20.924 0 0 1 8.5 4.5c.507 1.496.007 2.663-1.5 3.5-7.442 4.954-15.108 5.454-23 1.5l-1 .5a18.155 18.155 0 0 1 2 5.5Z" style="opacity:.248"/><path fill="#fe6c97" d="M1140.5 540.5a360.758 360.758 0 0 0 9 15.5 833.603 833.603 0 0 0-14 23.5c-8.98.832-17.98 1.332-27 1.5a903.073 903.073 0 0 0-14.5 24.5c-1.16-.498-1.99-1.331-2.5-2.5 5.05-7.393 9.71-15.06 14-23a18.311 18.311 0 0 1-2-3.5c2.24-.792 2.58-2.125 1-4 1.46.906 2.46 2.239 3 4a113.23 113.23 0 0 0 26 .5l12-21a191.493 191.493 0 0 1-6-11.5c-.27-1.599.07-2.932 1-4Z" style="opacity:.15"/><path fill="#a100ff" d="M1260.5 582.5h20v3c-6.01-.166-12.01.001-18 .5a48.558 48.558 0 0 0-8 14c2.41 4.813 5.07 9.48 8 14 5.99.499 11.99.666 18 .5a77.018 77.018 0 0 0 9 16.5 348.641 348.641 0 0 0-9 15.5l-18 2c-2.67 4.667-5.33 9.333-8 14-.82.886-1.82 1.219-3 1a125.176 125.176 0 0 1 8-16.5c-2.41-4.813-5.07-9.48-8-14a64.218 64.218 0 0 0-16 0c-3.17 5.324-6.5 10.49-10 15.5-6.31-.63-12.64-1.296-19-2a170.237 170.237 0 0 0-9-15 348.641 348.641 0 0 1 9-15.5l17-1a9.39 9.39 0 0 0 2.5-1.5l7.5-13 18-2c3.01-5.361 6.01-10.694 9-16Zm-25 20c5.37-.328 10.71.005 16 1 2.47 4.102 4.8 8.268 7 12.5-2.2 4.232-4.53 8.398-7 12.5-5.33 1.333-10.67 1.333-16 0-2.47-4.102-4.8-8.268-7-12.5a86.465 86.465 0 0 1 7-13.5Zm-27 15c5.37-.328 10.71.005 16 1 2.47 4.102 4.8 8.268 7 12.5-2.32 4.323-4.65 8.657-7 13-5.58.806-11.08.639-16.5-.5-2.18-4.177-4.35-8.343-6.5-12.5a261.18 261.18 0 0 0 7-13.5Zm54 0c5.37-.328 10.71.005 16 1 2.59 4.174 4.92 8.507 7 13-2.33 4-4.67 8-7 12-5.55 1.306-11.05 1.306-16.5 0a74.057 74.057 0 0 1-6.5-12.5 261.18 261.18 0 0 0 7-13.5Z" style="opacity:.171"/><path fill="#ca17f6" d="M545.5 595.5c.952 1.612 1.286 3.112 1 4.5l-2 2a21.53 21.53 0 0 1 5 6l5 1c-2.964.84-3.297 1.84-1 3-2.378.974-2.044 1.641 1 2-1.333 1-1.333 2 0 3-.719 2.556-2.386 3.723-5 3.5-14.865-4.88-22.532-15.214-23-31 7.019.007 13.352 2.007 19 6Z" style="opacity:.262"/><path fill="#c20afa" d="M575.5 617.5c-1.635-1.315-3.301-1.315-5 0l-1-4c-5.896-1.759-6.229-3.926-1-6.5-.316-1.687-1.65-2.854-4-3.5 6.609-9.139 15.609-13.806 27-14-.238 9.976-3.905 18.476-11 25.5a19.177 19.177 0 0 1-5 2.5Z" style="opacity:.251"/><path fill="#f867d0" d="M309.5 585.5a1877.055 1877.055 0 0 1 22 36.5 294.542 294.542 0 0 1-42-.5 58792.284 58792.284 0 0 1 20-36Z" style="opacity:.398"/><path fill="#fb6ccc" d="M307.5 568.5a2.428 2.428 0 0 1-.5 2c-1.398-.551-2.732-.884-4-1-5.267.645-10.433 1.312-15.5 2-7.01 12.673-14.01 25.34-21 38a467.712 467.712 0 0 0 18 32 5.727 5.727 0 0 0-3 1 228.494 228.494 0 0 1-14.5-25c-1.167-2.5-3-4.333-5.5-5.5a420.29 420.29 0 0 0-41 0c-4.184 3.403-6.184 2.236-6-3.5 15.67.167 31.337 0 47-.5 2.052-.93 3.552-2.43 4.5-4.5a851.991 851.991 0 0 1 19.5-34 121.862 121.862 0 0 1 22-1Z" style="opacity:.361"/><path fill="#d625ef" d="M536.5 557.5c.418.722 1.084 1.222 2 1.5-1.237.232-2.237.732-3 1.5-3.937-.293-7.77.04-11.5 1a4969.97 4969.97 0 0 1-33.5 58.5 3334.889 3334.889 0 0 0 27 48.5c-1.425-1.531-2.091-1.198-2 1a1742.078 1742.078 0 0 1-29-49l36-62a49.87 49.87 0 0 1 14-1Z" style="opacity:.271"/><path fill="#e955c6" d="M942.5 595.5c.667 0 1 .333 1 1 1.454 1.02 1.787 2.187 1 3.5 3.044.359 3.378 1.026 1 2 3.875 1.347 3.875 2.514 0 3.5 1.391-.391 2.391.442 3 2.5l-3 1c1.052 1.119 2.219 1.619 3.5 1.5.974-2.378 1.641-2.044 2 1 .278-.916.778-1.582 1.5-2 1.719 7.79-.281 14.457-6 20-2.822-2.337-4.655-5.337-5.5-9-.707-5.825-.373-11.491 1-17-9.183 4.252-17.683 3.085-25.5-3.5 6.084-6.129 13.417-8.129 22-6a10.134 10.134 0 0 0 4 1.5Z" style="opacity:.234"/><path fill="#f25fbb" d="M928.5 558.5c14.004-.167 28.004 0 42 .5a2207.155 2207.155 0 0 1 22.5 38.5c.635 2.135.301 4.135-1 6l-21 36c-4.401.967-8.901 1.3-13.5 1-.282-1.278-.949-2.278-2-3a49.87 49.87 0 0 0 14-1 1004.86 1004.86 0 0 1 21-37 1004.86 1004.86 0 0 0-21-37 507.128 507.128 0 0 0-45-1 9.82 9.82 0 0 1 4-3Z" style="opacity:.192"/><path fill="#e849e1" d="M401.5 582.5c6.342-.166 12.675 0 19 .5a274.175 274.175 0 0 1 16 27 1039.807 1039.807 0 0 1-15 26.5 43.117 43.117 0 0 1-13 1 11.445 11.445 0 0 1-5-3 64.873 64.873 0 0 0 16-1 828.844 828.844 0 0 1 14-23.5 828.844 828.844 0 0 1-14-23.5 43.117 43.117 0 0 0-13-1c-1.302-1.528-2.969-2.528-5-3Z" style="opacity:.301"/><path fill="#a201fd" d="M1359.5 553.5a31.67 31.67 0 0 1-2 2c3.14.667 6.14 1.334 9 2-14.43-.466-28.76.034-43 1.5a654.665 654.665 0 0 0-21 36.5 1013.666 1013.666 0 0 0 21 37 265.066 265.066 0 0 0 46 0c3.86-7.726 8.19-15.06 13-22 .99-.172 1.66.162 2 1a505.454 505.454 0 0 1-14.5 26c-15.76-.825-31.59-1.325-47.5-1.5a2157.537 2157.537 0 0 1-22.5-38.5c-.67-1.333-.67-2.667 0-4a718.078 718.078 0 0 1 18-31c1.72-2.507 2.55-5.007 2.5-7.5a1927.611 1927.611 0 0 0-21-36.5c-4.24-1.202-4.9-3.368-2-6.5 1.28-.684 2.45-.517 3.5.5a267.696 267.696 0 0 0 22.5 40.5c12 .5 24 .667 36 .5Z" style="opacity:.161"/><path fill="#fe6a86" d="M1096.5 634.5c-.9.709-1.24 1.709-1 3a105.066 105.066 0 0 1-7.5-12c-2.04.143-4.21-.191-6.5-1-2.76-2.888-2.43-5.388 1-7.5 1.74-.651 3.4-.485 5 .5 2.75 5.843 5.75 11.51 9 17Z" style="opacity:.135"/><path fill="#e34dcb" d="M928.5 558.5a9.82 9.82 0 0 0-4 3 527.422 527.422 0 0 0-22 38 1004.86 1004.86 0 0 1 21 37 256.827 256.827 0 0 0 32 1c1.051.722 1.718 1.722 2 3-11.671.167-23.338 0-35-.5a2207.155 2207.155 0 0 1-22.5-38.5c-.552-2.919.115-5.586 2-8a1780.967 1780.967 0 0 1 20.5-34.5 18.453 18.453 0 0 1 6-.5Z" style="opacity:.239"/><path fill="#f762d3" d="M307.5 568.5c9.006-.166 18.006 0 27 .5l22.5 38.5c.667 1.333.667 2.667 0 4l-20 34a16.242 16.242 0 0 0 0 8c1.844 3.028 3.678 6.028 5.5 9a5.727 5.727 0 0 0-3 1 37.703 37.703 0 0 0-9-12.5 267.196 267.196 0 0 0-40 .5 467.04 467.04 0 0 0-21.5 35 82.5 82.5 0 0 0-2.5 7.5 407.844 407.844 0 0 0-20-.5 5.727 5.727 0 0 0-1-3c5.676.166 11.343-.001 17-.5a407.023 407.023 0 0 0 22.5-36.5c-.045-3.971-1.212-7.638-3.5-11a5.727 5.727 0 0 1 3-1c.777 2.612 2.444 4.445 5 5.5a462.27 462.27 0 0 0 43 0 1069.656 1069.656 0 0 0 22-38l-22-37c-14.996-.5-29.996-.667-45-.5 5.067-.688 10.233-1.355 15.5-2 1.268.116 2.602.449 4 1a2.428 2.428 0 0 0 .5-2Z" style="opacity:.357"/><path fill="#c60bf8" d="M545.5 595.5c7.228 4.778 11.728 11.444 13.5 20a53.8 53.8 0 0 1 5.5-12c2.35.646 3.684 1.813 4 3.5-5.229 2.574-4.896 4.741 1 6.5l1 4c1.699-1.315 3.365-1.315 5 0-2.866 2.261-6.199 3.761-10 4.5 16.285 4.781 24.951 15.614 26 32.5-16.886-1.049-27.719-9.715-32.5-26-.99 4.506-2.823 8.506-5.5 12a31.642 31.642 0 0 0-3-5c5.202-.118 5.202-1.285 0-3.5 2.231-2.197 2.231-4.53 0-7 1.212-1.107.879-1.607-1-1.5.763-.768 1.763-1.268 3-1.5-1.237-.232-2.237-.732-3-1.5 2.614.223 4.281-.944 5-3.5-1.333-1-1.333-2 0-3-3.044-.359-3.378-1.026-1-2-2.297-1.16-1.964-2.16 1-3l-5-1a21.53 21.53 0 0 0-5-6l2-2c.286-1.388-.048-2.888-1-4.5Z" style="opacity:.247"/><path fill="#ef55d9" d="M401.5 582.5c2.031.472 3.698 1.472 5 3a112.97 112.97 0 0 0-15 .5l-14 24 14 24c3.986.499 7.986.666 12 .5a11.445 11.445 0 0 0 5 3 91.123 91.123 0 0 1-19-1 1039.807 1039.807 0 0 1-15-26.5 1039.807 1039.807 0 0 1 15-26.5 36.875 36.875 0 0 1 12-1Z" style="opacity:.337"/><path fill="#cf16f6" d="M549.5 623.5c1.879-.107 2.212.393 1 1.5 2.231 2.47 2.231 4.803 0 7 5.202 2.215 5.202 3.382 0 3.5a31.642 31.642 0 0 1 3 5c-6.313 9.567-15.313 14.234-27 14 .654-15.678 8.321-26.011 23-31Z" style="opacity:.256"/><path fill="#c305fc" d="M536.5 557.5c20.003-.167 40.003 0 60 .5a5785.678 5785.678 0 0 0 36 62.5l-36 62a685.171 685.171 0 0 1-74 0 122.812 122.812 0 0 1-7-13c-.091-2.198.575-2.531 2-1a89.81 89.81 0 0 1 7 11 817.472 817.472 0 0 0 70 .5 5377.467 5377.467 0 0 0 34-59.5 1067.572 1067.572 0 0 0-34-59.5c-19.664-.5-39.331-.667-59-.5.763-.768 1.763-1.268 3-1.5-.916-.278-1.582-.778-2-1.5Z" style="opacity:.201"/><path fill="#ce36ce" d="M882.5 644.5c6.675-.166 13.342 0 20 .5a266.144 266.144 0 0 1 15 27 859.915 859.915 0 0 0-13.5 24.5c-.908 1.939-2.408 2.939-4.5 3a10.165 10.165 0 0 1-3-3c1.644.214 3.144-.12 4.5-1l13.5-23.5a427.947 427.947 0 0 0-14-24 112.97 112.97 0 0 0-15-.5 10.165 10.165 0 0 1-3-3Z" style="opacity:.178"/><path fill="#fb6b66" d="M1096.5 634.5a1000.396 1000.396 0 0 1 21 37c-.33 1-1 1.667-2 2-6.68-12.027-13.35-24.027-20-36-.24-1.291.1-2.291 1-3Z" style="opacity:.098"/><path fill="#fe71cb" d="M245.5 690.5c.61.891.943 1.891 1 3-8.34-.166-16.673 0-25 .5a9.454 9.454 0 0 0-2.5 1.5 2718.137 2718.137 0 0 0-21-37 14.51 14.51 0 0 0-4.5-4.5 308.717 308.717 0 0 0-43 .5 703.435 703.435 0 0 0-23 37.5 511.764 511.764 0 0 0 23 41.5c-1.391 3.292-3.224 3.625-5.5 1-.684-1.284-.517-2.451.5-3.5a1067.16 1067.16 0 0 0-20-33.5 4.457 4.457 0 0 1-2-1.5l-46-1L55 656.5c-.552-2.919.115-5.586 2-8l20.5-35a384.589 384.589 0 0 1 48-.5l22 37c16.707.607 33.374.607 50 0a351.986 351.986 0 0 0 21 38 7.293 7.293 0 0 1 3 2c7.993.5 15.993.666 24 .5Zm-166-75c14.67-.167 29.337 0 44 .5a564.003 564.003 0 0 1 22 39 649.34 649.34 0 0 1-22 37 484.008 484.008 0 0 1-44 0A1987.582 1987.582 0 0 1 58 655.5c.374-2.775 1.374-5.442 3-8a766.998 766.998 0 0 0 18.5-32Zm19 30c7.984-.514 11.817 3.152 11.5 11-2.451 5.589-6.617 7.422-12.5 5.5-4.36-2.226-5.86-5.726-4.5-10.5 1.36-2.523 3.193-4.523 5.5-6Z" style="opacity:.27"/><path fill="#ff71c8" d="M96.5 635.5c19.162.313 26.329 9.647 21.5 28-7.825 9.788-17.325 11.622-28.5 5.5-8.968-9.354-9.301-19.02-1-29a48.492 48.492 0 0 1 8-4.5Zm2 10c-2.307 1.477-4.14 3.477-5.5 6-1.36 4.774.14 8.274 4.5 10.5 5.883 1.922 10.049.089 12.5-5.5.317-7.848-3.516-11.514-11.5-11Z" style="opacity:.314"/><path fill="#f05c84" d="M1050.5 664.5c.79.283 1.46.783 2 1.5a14.478 14.478 0 0 1-5 4c.33.333.67.667 1 1-2.01 1.635-4.01 2.468-6 2.5 2.68 2.647 2.01 3.98-2 4a4.949 4.949 0 0 0 .5 3c.72-.951 1.55-1.117 2.5-.5-2.33 1.833-4.67 3.667-7 5.5 1.4 1.342 1.07 2.176-1 2.5 1.15.914.99 1.747-.5 2.5a3.595 3.595 0 0 0-1.5-1 70.799 70.799 0 0 0-10 10c-2.26-1.062-3.42-2.728-3.5-5l13.5-13.5-13.5-13.5c-.67-1-.67-2 0-3a283.87 283.87 0 0 1 14.5-14 305.054 305.054 0 0 0 14.5 15c.38-.556.88-.889 1.5-1Z" style="opacity:.118"/><path fill="#ea46e1" d="M429.5 648.5c2.469.817 5.135 1.317 8 1.5.556.383.889.883 1 1.5a31.116 31.116 0 0 0-11 1 951.96 951.96 0 0 0-20.5 36c-.667 1.333-.667 2.667 0 4a430.124 430.124 0 0 1 13.5 24 2.428 2.428 0 0 1-.5 2c-.69-1.238-1.19-1.238-1.5 0a847.487 847.487 0 0 1-15-24.5 102.867 102.867 0 0 0-24-1.5c-3.141-.821-6.475-1.321-10-1.5a39.445 39.445 0 0 0-5-2.5 263.418 263.418 0 0 0 39-1.5 2097.938 2097.938 0 0 0 22-37.5c1.189-.929 2.522-1.262 4-1Z" style="opacity:.324"/><path fill="#ac0df6" d="M821.5 639.5a791.918 791.918 0 0 1-40 1.5c-.556.383-.889.883-1 1.5a30.233 30.233 0 0 0-3.5 3 1893.965 1893.965 0 0 0-19.5 35.5 411.926 411.926 0 0 0 21 37.5 256.758 256.758 0 0 0 45 0 529.284 529.284 0 0 1 16-27h3a611.513 611.513 0 0 0-16 29 6692.414 6692.414 0 0 1 10 19 5.727 5.727 0 0 1-1 3 628.267 628.267 0 0 0-12-19.5l-21.5-.5a144.41 144.41 0 0 0-23.5 1.5 487.186 487.186 0 0 1-12 18.5 5.727 5.727 0 0 1-1-3c2.821-4.973 5.655-9.973 8.5-15 .667-2 .667-4 0-6l-19-33a18.473 18.473 0 0 0-3.5-2c-1.792-.809-3.792-1.309-6-1.5a51.22 51.22 0 0 1 4-2.5c3.022.072 5.188-1.262 6.5-4l15-26a26.037 26.037 0 0 0 3.5-9 126.335 126.335 0 0 0-9.5-19 170.153 170.153 0 0 0-13.5-21c1.173-2.779 3.007-3.446 5.5-2a206.326 206.326 0 0 0 21.5 39.5 318.836 318.836 0 0 0 43 1.5Z" style="opacity:.193"/><path fill="#a704d9" d="M1439.5 675.5v2c-1.33-.667-1.33-1.333 0-2Z" style="opacity:.024"/><path fill="#a202fd" d="M749.5 679.5a51.22 51.22 0 0 0-4 2.5c2.208.191 4.208.691 6 1.5a318.836 318.836 0 0 0-43 1.5 655.924 655.924 0 0 0-21 36.5 1004.86 1004.86 0 0 0 21 37 265.066 265.066 0 0 0 46 0 260.39 260.39 0 0 1 11-19 5.727 5.727 0 0 0 1 3 160.846 160.846 0 0 1-11.5 21 1150.628 1150.628 0 0 0-47.5-1.5 2207.155 2207.155 0 0 1-22.5-38.5c-.667-1.333-.667-2.667 0-4a713.94 713.94 0 0 1 18-31c1.715-2.507 2.549-5.007 2.5-7.5a1972.206 1972.206 0 0 0-21-36.5c-4.236-1.202-4.903-3.368-2-6.5 1.284-.684 2.451-.517 3.5.5a267 267 0 0 0 22.5 40.5c13.663.5 27.329.667 41 .5Z" style="opacity:.207"/><path fill="#c027de" d="M882.5 644.5a10.165 10.165 0 0 0 3 3 84.902 84.902 0 0 0-13 .5 828.844 828.844 0 0 0-14 23.5 559.09 559.09 0 0 0 14 24.5c7.993.5 15.993.666 24 .5a10.165 10.165 0 0 0 3 3c-9.672.166-19.339 0-29-.5-5.016-9.01-10.016-18.01-15-27a339.202 339.202 0 0 1 14.5-26.5c4.066-.964 8.233-1.297 12.5-1Z" style="opacity:.204"/><path fill="#ff660d" d="M1158.5 679.5c12-.167 24 0 36 .5 10.4 17.311 20.4 34.811 30 52.5-.34.838-1.01 1.172-2 1-9.64-16.604-19.31-33.27-29-50a307.149 307.149 0 0 0-35-1c.42-.722 1.08-1.222 2-1.5-.92-.278-1.58-.778-2-1.5Z" style="opacity:.055"/><path fill="#f45f71" d="M1064.5 680.5c-.6 3.125-1.77 3.458-3.5 1-1.27 1.924-1.27 3.59 0 5 .67 1.333.67 2.667 0 4-.67-2.667-1.33-2.667-2 0-.91-1.154-1.75-.987-2.5.5.76 1.364.26 2.531-1.5 3.5-.33-.333-.67-.667-1-1-.23 3.436-1.73 4.436-4.5 3-4.98 4.645-9.98 9.312-15 14a85.63 85.63 0 0 1-11-11 70.799 70.799 0 0 1 10-10c.59.209 1.09.543 1.5 1 1.49-.753 1.65-1.586.5-2.5 2.07-.324 2.4-1.158 1-2.5 2.33-1.833 4.67-3.667 7-5.5-.95-.617-1.78-.451-2.5.5a4.949 4.949 0 0 1-.5-3c4.01-.02 4.68-1.353 2-4 1.99-.032 3.99-.865 6-2.5-.33-.333-.67-.667-1-1a14.478 14.478 0 0 0 5-4c-.54-.717-1.21-1.217-2-1.5 4.31-4.979 8.98-9.646 14-14 5.88 4.694 10.71 10.028 14.5 16-4.7 4.87-9.54 9.537-14.5 14Z" style="opacity:.104"/><path fill="#bc20e8" d="M842.5 691.5h-3c2.413-3.796 3.913-7.796 4.5-12a1988.151 1988.151 0 0 0-21.5-36.5 881.746 881.746 0 0 0-42-.5c.111-.617.444-1.117 1-1.5a791.918 791.918 0 0 0 40-1.5c1.698-2.624 3.531-2.624 5.5 0-.281 3.511.719 6.844 3 10a758.053 758.053 0 0 1 18.5 32 4806.052 4806.052 0 0 1-6 10Z" style="opacity:.208"/><path fill="#f4625b" d="M1064.5 680.5c4.8 5.298 9.8 10.465 15 15.5-5.17 5.167-10.33 10.333-15.5 15.5a304.32 304.32 0 0 1-14.5-15c2.77 1.436 4.27.436 4.5-3 .33.333.67.667 1 1 1.76-.969 2.26-2.136 1.5-3.5.75-1.487 1.59-1.654 2.5-.5.67-2.667 1.33-2.667 2 0 .67-1.333.67-2.667 0-4-1.27-1.41-1.27-3.076 0-5 1.73 2.458 2.9 2.125 3.5-1Z" style="opacity:.094"/><path fill="#ff702c" d="M1117.5 671.5a35.722 35.722 0 0 1 4 5.5c1.54.29 2.88.956 4 2 10.99.5 21.99.667 33 .5.42.722 1.08 1.222 2 1.5-.92.278-1.58.778-2 1.5-10.67-.167-21.34 0-32 .5-1.08 2.043-2.75 3.376-5 4a4421.074 4421.074 0 0 0-31 53.5c-1.88.271-3.21-.396-4-2a3184.827 3184.827 0 0 0 32-53.5c-1.28-2.132-1.28-4.298 0-6.5a18.67 18.67 0 0 0-3-5c1-.333 1.67-1 2-2Z" style="opacity:.071"/><path fill="#db25ef" d="M429.5 648.5c14.67-.167 29.337 0 44 .5a777.075 777.075 0 0 1 24 41 459.641 459.641 0 0 1-17.5 30.5c-3.502 4.333-4.168 9-2 14a442.15 442.15 0 0 0 21 34c1.106 4.397-.394 5.73-4.5 4-.83-1.635-.997-3.302-.5-5a1780.967 1780.967 0 0 0-20.5-34.5c-5.544-1.404-11.21-1.904-17-1.5a11.445 11.445 0 0 0 5-3c4.662.696 8.829-.304 12.5-3a621.23 621.23 0 0 1 20.5-35.5 2097.938 2097.938 0 0 1-22-37.5 289.882 289.882 0 0 0-34-1c-.111-.617-.444-1.117-1-1.5-2.865-.183-5.531-.683-8-1.5Z" style="opacity:.232"/><path fill="#a90ce5" d="m1388.5 678.5 30 52c-1.33 0-2 .667-2 2a1329.078 1329.078 0 0 1-30-52c.67-.667 1.33-1.333 2-2Z" style="opacity:.208"/><path fill="#df4994" d="M1004.5 726.5c-.7.616-1.7.616-3 0-7.488-12.973-14.988-25.973-22.5-39a20.855 20.855 0 0 1-6.5-3c-1.441-6.221.892-8.221 7-6a33.73 33.73 0 0 0 3.5 10 1080.662 1080.662 0 0 1 21.5 38Z" style="opacity:.118"/><path fill="#a100ff" d="M645.5 708.5h20v3a162.597 162.597 0 0 0-18 .5 48.535 48.535 0 0 0-8 14 145.317 145.317 0 0 0 8 14c5.991.499 11.991.666 18 .5a76.67 76.67 0 0 0 9 16.5 356.671 356.671 0 0 0-9 15.5l-18 2-8 14c-.825.886-1.825 1.219-3 1a125.05 125.05 0 0 1 8-16.5 145.317 145.317 0 0 0-8-14 64.218 64.218 0 0 0-16 0 254.946 254.946 0 0 1-10 15.5c-6.31-.63-12.644-1.296-19-2a169.27 169.27 0 0 0-9-15 356.671 356.671 0 0 1 9-15.5l17-1a9.454 9.454 0 0 0 2.5-1.5l7.5-13 18-2c3.012-5.361 6.012-10.694 9-16Zm-25 20a64.873 64.873 0 0 1 16 1 230.82 230.82 0 0 1 7 12.5 230.82 230.82 0 0 1-7 12.5c-5.333 1.333-10.667 1.333-16 0a230.82 230.82 0 0 1-7-12.5 86.039 86.039 0 0 1 7-13.5Zm-27 15a64.873 64.873 0 0 1 16 1 230.82 230.82 0 0 1 7 12.5c-2.317 4.323-4.65 8.657-7 13-5.584.806-11.084.639-16.5-.5a3160.07 3160.07 0 0 1-6.5-12.5 260.397 260.397 0 0 0 7-13.5Zm54 0a64.873 64.873 0 0 1 16 1 121.345 121.345 0 0 1 7 13l-7 12c-5.554 1.306-11.054 1.306-16.5 0a74.057 74.057 0 0 1-6.5-12.5 260.397 260.397 0 0 0 7-13.5Z" style="opacity:.17"/><path fill="#a403f1" d="M1370.5 717.5c-2.87 1.283-5.2 3.283-7 6 .21.586.54 1.086 1 1.5-2.22 2.859-4.56 4.859-7 6 2.78.149 3.28.983 1.5 2.5a15.074 15.074 0 0 1-3.5-3c-.24.747-.57 1.58-1 2.5-3.5.656-3.5 1.989 0 4a15.322 15.322 0 0 1-6 3c2.38.974 2.04 1.641-1 2 1.15.914.99 1.747-.5 2.5-.67-1.333-1.33-1.333-2 0-.61 5.249-3.28 7.249-8 6-2.24 4.223-3.41 3.889-3.5-1-3.6-.238-3.93.762-1 3-.33 1-1 1.667-2 2 .2-1.029-.3-2.029-1.5-3a11.323 11.323 0 0 1-3.5 1.5l3 1c-1.32.816-1.99 1.983-2 3.5-11.08-14.598-10.41-28.765 2-42.5 12.17-9.148 24.83-9.815 38-2a25.374 25.374 0 0 1 4 4.5Z" style="opacity:.207"/><path fill="#a200fa" d="M1388.5 678.5c-.67.667-1.33 1.333-2 2a29.153 29.153 0 0 1-3-4.5 840.995 840.995 0 0 0-71 .5 1802.076 1802.076 0 0 1-35 60.5 372.968 372.968 0 0 1 20 35.5c-.99-.172-1.66.162-2 1a1413.742 1413.742 0 0 1-21-36.5 5965.597 5965.597 0 0 1 36-62.5 938.344 938.344 0 0 1 75-.5 11.165 11.165 0 0 1 3 4.5Z" style="opacity:.17"/><path fill="#f153db" d="M342.5 662.5c4.822 8.306 9.655 16.639 14.5 25 2.381.935 4.881 1.268 7.5 1a39.445 39.445 0 0 1 5 2.5c3.525.179 6.859.679 10 1.5a121.862 121.862 0 0 0-22 1 1004.86 1004.86 0 0 1-21 37 619.261 619.261 0 0 1 16 29c.237 1.291-.096 2.291-1 3a467.712 467.712 0 0 1-18-32 1128.503 1128.503 0 0 1 22-39 53748.283 53748.283 0 0 0-16-28 5.727 5.727 0 0 1 3-1Z" style="opacity:.326"/><path fill="#d53aa8" d="M942.5 721.5c.763-.768 1.763-1.268 3-1.5-.916-.278-1.582-.778-2-1.5 6.559.532 12.893-.135 19-2 2.746.596 3.58 2.263 2.5 5a471.41 471.41 0 0 1-22.5 0Z" style="opacity:.133"/><path fill="#a706ec" d="M1370.5 717.5c3.23 2.569 5.23 5.902 6 10-.3 1.528-2.3 2.528-6 3 .67.667 1.33 1.333 2 2-2.44.946-4.44 2.446-6 4.5.64 1.707.64 3.54 0 5.5-5.65-.349-6.31 1.151-2 4.5-1.24.456-2.08-.044-2.5-1.5-3.89 2.061-6.55 4.061-8 6-.33-.667-.67-1.333-1-2-.67 1.333-1.33 1.333-2 0-.05 2.916-1.22 3.916-3.5 3-.67 1-1.33 2-2 3-.33-.667-.67-1.333-1-2-1.1 3.861-1.93 3.861-2.5 0a10.29 10.29 0 0 1-1.5 4c-1.3-1.218-2.3-.885-3 1-2.2-.087-4.37-.087-6.5 0a4.949 4.949 0 0 0-.5 3c-1.67-1-3-2.333-4-4 .01-1.517.68-2.684 2-3.5l-3-1c1.27-.309 2.43-.809 3.5-1.5 1.2.971 1.7 1.971 1.5 3 1-.333 1.67-1 2-2-2.93-2.238-2.6-3.238 1-3 .09 4.889 1.26 5.223 3.5 1 4.72 1.249 7.39-.751 8-6 .67-1.333 1.33-1.333 2 0 1.49-.753 1.65-1.586.5-2.5 3.04-.359 3.38-1.026 1-2a15.322 15.322 0 0 0 6-3c-3.5-2.011-3.5-3.344 0-4 .43-.92.76-1.753 1-2.5a15.074 15.074 0 0 0 3.5 3c1.78-1.517 1.28-2.351-1.5-2.5 2.44-1.141 4.78-3.141 7-6a3.627 3.627 0 0 1-1-1.5c1.8-2.717 4.13-4.717 7-6Z" style="opacity:.207"/><path fill="#e332e9" d="M420.5 716.5c2.31 2.602 4.143 5.602 5.5 9a6.978 6.978 0 0 0 3.5 2.5c10.661.5 21.328.667 32 .5a11.445 11.445 0 0 1-5 3c-9.006-.166-18.006 0-27 .5a403.294 403.294 0 0 0-22.5 36.5c-.667 1.667-.667 3.333 0 5a461.743 461.743 0 0 0 21.5 35c1.559 4.606.059 5.939-4.5 4-.684-1.284-.517-2.451.5-3.5a555.042 555.042 0 0 1-19.5-33.5 36.078 36.078 0 0 0-4.5-3.5l-44-1a104.988 104.988 0 0 0-5-8.5c.904-.709 1.237-1.709 1-3a105.185 105.185 0 0 1 6 8.5c15.093.967 30.093.633 45-1a504.324 504.324 0 0 0 21-37 189.3 189.3 0 0 1-6-11.5c.31-1.238.81-1.238 1.5 0a2.428 2.428 0 0 0 .5-2Z" style="opacity:.268"/><path fill="#fb8017" d="M1086.5 738.5c.79 1.604 2.12 2.271 4 2 1.31 1.635 1.31 3.301 0 5a122.8 122.8 0 0 1 7 13c-.61.891-.94 1.891-1 3a143.547 143.547 0 0 1-8.5-14c-2.05.923-3.88.423-5.5-1.5a50.476 50.476 0 0 0-10-.5c-.67-1-1.33-2-2-3 6.04.785 11.37-.549 16-4Z" style="opacity:.078"/><path fill="#a808e4" d="M1376.5 727.5c5.27 17.972-.73 30.806-18 38.5-10.12 2.994-19.45 1.494-28-4.5a4.949 4.949 0 0 1 .5-3c2.13-.087 4.3-.087 6.5 0 .7-1.885 1.7-2.218 3-1a10.29 10.29 0 0 0 1.5-4c.57 3.861 1.4 3.861 2.5 0 .33.667.67 1.333 1 2 .67-1 1.33-2 2-3 2.28.916 3.45-.084 3.5-3 .67 1.333 1.33 1.333 2 0 .33.667.67 1.333 1 2 1.45-1.939 4.11-3.939 8-6 .42 1.456 1.26 1.956 2.5 1.5-4.31-3.349-3.65-4.849 2-4.5.64-1.96.64-3.793 0-5.5 1.56-2.054 3.56-3.554 6-4.5-.67-.667-1.33-1.333-2-2 3.7-.472 5.7-1.472 6-3Z" style="opacity:.209"/><path fill="#f863d5" d="M279.5 733.5c-.418.722-1.084 1.222-2 1.5-4.851.174-9.518.674-14 1.5a271.881 271.881 0 0 0-14 23.5 268.352 268.352 0 0 0 13 23.5 73.133 73.133 0 0 0 17 1c-4.343 1.509-8.677 2.509-13 3a9.86 9.86 0 0 1-6-1l-15-26 15-26a91.123 91.123 0 0 1 19-1Z" style="opacity:.361"/><path fill="#f16d33" d="M1035.5 742.5h35c.67 1 1.33 2 2 3h-36c-.61-.891-.94-1.891-1-3Z" style="opacity:.043"/><path fill="#e25a5e" d="M1001.5 726.5c1.3.616 2.3.616 3 0a272.65 272.65 0 0 1 10 15.5c6.99.5 13.99.666 21 .5.06 1.109.39 2.109 1 3-8.01.166-16.01 0-24-.5a497.146 497.146 0 0 0-11-18.5Z" style="opacity:.106"/><path fill="#ad10e1" d="M836.5 739.5a185.931 185.931 0 0 1 9.5 16 14.51 14.51 0 0 0 4.5 4.5c6.325.5 12.658.666 19 .5 5.485.827 11.152 1.327 17 1.5-.916.278-1.582.778-2 1.5a320.436 320.436 0 0 0-35.5 1 2102.159 2102.159 0 0 0-21.5 37.5 844.633 844.633 0 0 0 13 24.5c-.992-.172-1.658.162-2 1a488.17 488.17 0 0 0-15-25 2180.88 2180.88 0 0 0 22-38.5c-2.36-7.556-5.693-14.723-10-21.5a5.727 5.727 0 0 0 1-3Z" style="opacity:.183"/><path fill="#bd22c8" d="M943.5 718.5c.418.722 1.084 1.222 2 1.5-1.237.232-2.237.732-3 1.5-7.674-.166-15.341 0-23 .5a6.802 6.802 0 0 0-3 1.5 1972.206 1972.206 0 0 0-21 36.5 434.498 434.498 0 0 1 9 17.5c-.342.838-1.008 1.172-2 1a124.029 124.029 0 0 1-8-13c-3.102-1.683-6.436-2.349-10-2 .418-.722 1.084-1.222 2-1.5-5.848-.173-11.515-.673-17-1.5 7.341.166 14.674 0 22-.5 9.175-14.05 17.175-28.383 24-43 9.115 1.382 18.448 1.882 28 1.5Z" style="opacity:.163"/><path fill="#ff8102" d="M1224.5 732.5c3.52 3.689 5.35 8.022 5.5 13a70266.574 70266.574 0 0 1-33.5 57c-.61-.891-.94-1.891-1-3 10.49-18.306 20.99-36.639 31.5-55-.88-3.778-2.38-7.445-4.5-11 .99.172 1.66-.162 2-1Z" style="opacity:.044"/><path fill="#f357da" d="M279.5 733.5a84.902 84.902 0 0 1 13 .5 210.774 210.774 0 0 1 15 26.5 346.598 346.598 0 0 1-15 26.5c-8.66.5-17.327.666-26 .5 4.323-.491 8.657-1.491 13-3a60.931 60.931 0 0 0 11-.5 828.844 828.844 0 0 0 14-23.5 387.056 387.056 0 0 0-13-23 196.869 196.869 0 0 0-28-1c4.482-.826 9.149-1.326 14-1.5.916-.278 1.582-.778 2-1.5Z" style="opacity:.298"/><path fill="#ba12af" d="m154.5 797.5-2-2a1326.547 1326.547 0 0 1 24.5-42 9.454 9.454 0 0 0 2.5 1.5 2539.998 2539.998 0 0 1-25 42.5Z" style="opacity:.184"/><path fill="#b317c5" d="M1418.5 730.5a38.675 38.675 0 0 0 4 6.5 5111.635 5111.635 0 0 1-34 58.5c.47 3.039.8 6.039 1 9-.99-.172-1.66.162-2 1-1.65-1.621-3.65-2.787-6-3.5-9.99-.5-19.99-.666-30-.5 2.81-.819 5.81-1.319 9-1.5-.92-.278-1.58-.778-2-1.5 7.36.331 14.7-.003 22-1 1.38-2.191 3.38-3.524 6-4l31.5-55c.41-2.195-.09-4.195-1.5-6 0-1.333.67-2 2-2Z" style="opacity:.216"/><path fill="#ab08de" d="M1297.5 772.5c5.06 7.77 9.89 15.77 14.5 24 2.44-1.194 4.61-.694 6.5 1.5 13.33.5 26.66.667 40 .5.42.722 1.08 1.222 2 1.5-3.19.181-6.19.681-9 1.5-11.01-.167-22.01 0-33 .5-1.95 1.835-4.28 3.001-7 3.5a1433.719 1433.719 0 0 0-33 59c-.61.891-.94 1.891-1 3a29.153 29.153 0 0 1-3-4.5 1744.913 1744.913 0 0 0 34.5-59.5c.67-2 .67-4 0-6a495.914 495.914 0 0 1-13.5-24c.34-.838 1.01-1.172 2-1Z" style="opacity:.208"/><path fill="#b118cf" d="M880.5 791.5c-.086.996.248 1.829 1 2.5a6.802 6.802 0 0 0-3 1.5c.897.169 1.897.502 3 1a66.656 66.656 0 0 0-5 3.5l1 1c-1.894 1.101-2.561 2.434-2 4-.949.617-1.782.451-2.5-.5-2.287 2.962-5.12 5.129-8.5 6.5 1.342 2.456 1.009 4.622-1 6.5-.821-2.806-2.488-4.973-5-6.5a183.013 183.013 0 0 1-16-8.5 493.001 493.001 0 0 1 18.5-10 256.871 256.871 0 0 0 10-19 232.014 232.014 0 0 1 9.5 18Z" style="opacity:.187"/><path fill="#b820bd" d="M880.5 791.5a117.477 117.477 0 0 0 18 10c1.021.502 1.188 1.168.5 2a385.235 385.235 0 0 1-16.5 8.5 189.534 189.534 0 0 0-11.5 19.5 165.629 165.629 0 0 1-7.5-14c2.009-1.878 2.342-4.044 1-6.5 3.38-1.371 6.213-3.538 8.5-6.5.718.951 1.551 1.117 2.5.5-.561-1.566.106-2.899 2-4l-1-1a66.656 66.656 0 0 1 5-3.5c-1.103-.498-2.103-.831-3-1a6.802 6.802 0 0 1 3-1.5c-.752-.671-1.086-1.504-1-2.5Z" style="opacity:.18"/><path fill="#d04679" d="M945.5 802.5c1.656-1.56 3.656-2.56 6-3 4.878.106 9.544-.394 14-1.5 1.36 1.938 1.027 3.604-1 5a241.242 241.242 0 0 0-19-.5Z" style="opacity:.144"/><path fill="#ff9802" d="M1097.5 758.5a2775.797 2775.797 0 0 1 26 44.5c23.34.833 46.67.666 70-.5.44-1.239 1.11-2.239 2-3 .06 1.109.39 2.109 1 3a18.311 18.311 0 0 1-2 3.5c-24.34.833-48.67.666-73-.5a718.263 718.263 0 0 1-25-44c.06-1.109.39-2.109 1-3Z" style="opacity:.086"/><path fill="#c332a1" d="M904.5 777.5c4.487 6.965 8.987 13.965 13.5 21a294.877 294.877 0 0 0 33.5 1c-2.344.44-4.344 1.44-6 3-8.34-.166-16.673 0-25 .5a7.293 7.293 0 0 1-3 2L896 842.5c-2.719.944-5.552 1.277-8.5 1a5.727 5.727 0 0 1-1-3c2.619.268 5.119-.065 7.5-1a1988.151 1988.151 0 0 1 21.5-36.5 849.529 849.529 0 0 0-13-24.5c.992.172 1.658-.162 2-1Z" style="opacity:.176"/><path fill="#be27a6" d="M1389.5 804.5a411.828 411.828 0 0 1 17 29 58.276 58.276 0 0 1-1 4l-18-32c.34-.838 1.01-1.172 2-1Z" style="opacity:.224"/><path fill="#ca3887" d="m274.5 841.5-1-2c3.975-7.279 7.975-14.613 12-22 .774-1.211 1.607-1.211 2.5 0 .315 1.408-.018 2.741-1 4a294.94 294.94 0 0 1-12.5 20Z" style="opacity:.221"/><path fill="#f2881e" d="M1039.5 847.5c-.99-.172-1.66.162-2 1-2.02-2.176-3.68-4.676-5-7.5-12.33-.5-24.66-.667-37-.5a77.29 77.29 0 0 1 12-3c8.03.331 16.03-.002 24-1a270.041 270.041 0 0 0 23-40.5c17 .667 34 .667 51 0 1.36 5.776-.31 6.776-5 3a280.693 280.693 0 0 0-41 .5c-1.02 1.352-2.35 2.352-4 3a957 957 0 0 0-18.5 32 12.44 12.44 0 0 0 0 7 23.317 23.317 0 0 1 2.5 6Z" style="opacity:.138"/><path fill="#a404f1" d="M752.5 840.5a36.826 36.826 0 0 0-6 4.5c2.443 2.558 1.943 3.392-1.5 2.5a26.852 26.852 0 0 1-3.5 6c-.303 2.768.03 5.268 1 7.5a22.981 22.981 0 0 1-5 2c-1.333 1-1.333 2 0 3a117.421 117.421 0 0 1-14 2l2 1c-1.774.881-2.44 2.047-2 3.5a10.258 10.258 0 0 1-1.5-4 21.59 21.59 0 0 0-7.5 6.5v4c-2.363.589-3.363 2.089-3 4.5-10.46-13.091-10.627-26.424-.5-40 13.138-12.033 26.971-13.033 41.5-3Z" style="opacity:.207"/><path fill="#b823b8" d="M840.5 826.5a124.029 124.029 0 0 1 8 13 362.008 362.008 0 0 0 38 1 5.727 5.727 0 0 0 1 3c-13.337.167-26.671 0-40-.5a211.891 211.891 0 0 1-9-15.5c.342-.838 1.008-1.172 2-1Z" style="opacity:.098"/><path fill="#c83887" d="M1406.5 833.5a609.289 609.289 0 0 1 17 29c-.68 1.854-1.68 2.187-3 1-5.01-8.694-10.01-17.361-15-26 .37-1.293.71-2.626 1-4Z" style="opacity:.222"/><path fill="#a302f6" d="M788.5 830.5c-1 .333-1.667 1-2 2-6.1-10.021-12.1-20.188-18-30.5a840.983 840.983 0 0 0-71 .5 1805.534 1805.534 0 0 1-35 60.5 3021.573 3021.573 0 0 1 34 58.5c-1.333 0-2 .667-2 2a3852.09 3852.09 0 0 1-35-60.5 5860.773 5860.773 0 0 1 36-62.5 938.363 938.363 0 0 1 75-.5 467.37 467.37 0 0 1 18 30.5Z" style="opacity:.194"/><path fill="#a909e1" d="M763.5 858.5c1.251 18.013-6.749 29.513-24 34.5-4 .667-8 .667-12 0-1.237-.232-2.237-.732-3-1.5a52.756 52.756 0 0 0 8-3c1.703-1.39 2.37-2.89 2-4.5 2.067-.536 3.901-.036 5.5 1.5a60.74 60.74 0 0 1 4.5-6.5c-.277-1.892-1.277-3.225-3-4 3.383 1.019 5.717-.315 7-4 .949-.617 1.782-.451 2.5.5.691-2.391 1.691-2.391 3 0 2.544-2.299 2.378-4.799-.5-7.5 1.779.979 3.445.646 5-1-1.227-1.587-.894-2.921 1-4-1.017-1.049-1.184-2.216-.5-3.5.317 1.801.984 2.134 2 1 .417 1.256 1.25 1.923 2.5 2Z" style="opacity:.212"/><path fill="#bc29a3" d="m273.5 839.5 1 2a208.144 208.144 0 0 1-13 24l-2-2a213.785 213.785 0 0 1 14-24Z" style="opacity:.224"/><path fill="#ab08dd" d="m152.5 795.5 2 2a600.277 600.277 0 0 0-11 20.5 4827.598 4827.598 0 0 1 33 57.5c2.717.499 5.051 1.665 7 3.5 7.659.5 15.326.666 23 .5 1.109.79 2.442 1.29 4 1.5-.916.278-1.582.778-2 1.5-8.34-.166-16.673 0-25 .5-2.273 2.033-4.606 2.867-7 2.5-1.333 0-2-.667-2-2 .34-3.631-.494-6.964-2.5-10a4591.096 4591.096 0 0 1-32.5-55.5 732.405 732.405 0 0 1 13-22.5Z" style="opacity:.196"/><path fill="#a605eb" d="M752.5 840.5a25.658 25.658 0 0 1 6 6 8.43 8.43 0 0 0-4 .5c2.095.556 2.262 1.056.5 1.5-1.261-.259-2.261-.926-3-2-1.134 2.294-1.634 4.461-1.5 6.5 2.073.118 3.407 1.118 4 3a535.978 535.978 0 0 0-3 2c.405.945 1.072 1.612 2 2-5.333.667-5.333 1.333 0 2-2.118.26-3.784 1.26-5 3l1 1c-1.561.318-2.728 1.151-3.5 2.5-1.525.388-3.192.388-5 0a64.102 64.102 0 0 1-8 7c-.667-2.667-1.333-2.667-2 0l-1-1c-.456 1.244.044 2.077 1.5 2.5l-1.5 1.5h-5c-.513 2.021-1.68 3.521-3.5 4.5 1.238-.077 2.238.089 3 .5a10.258 10.258 0 0 1-4 1.5l1 1c-1.167.5-2 1.333-2.5 2.5-.671-.752-1.504-1.086-2.5-1-2.249-.58-3.915-1.913-5-4-.363-2.411.637-3.911 3-4.5v-4a21.59 21.59 0 0 1 7.5-6.5 10.258 10.258 0 0 0 1.5 4c-.44-1.453.226-2.619 2-3.5l-2-1a117.421 117.421 0 0 0 14-2c-1.333-1-1.333-2 0-3a22.981 22.981 0 0 0 5-2c-.97-2.232-1.303-4.732-1-7.5a26.852 26.852 0 0 0 3.5-6c3.443.892 3.943.058 1.5-2.5a36.826 36.826 0 0 1 6-4.5Z" style="opacity:.207"/><path fill="#a608e6" d="M758.5 846.5c2.437 3.636 4.104 7.636 5 12-1.25-.077-2.083-.744-2.5-2-1.016 1.134-1.683.801-2-1-.684 1.284-.517 2.451.5 3.5-1.894 1.079-2.227 2.413-1 4-1.555 1.646-3.221 1.979-5 1 2.878 2.701 3.044 5.201.5 7.5-1.309-2.391-2.309-2.391-3 0-.718-.951-1.551-1.117-2.5-.5-1.283 3.685-3.617 5.019-7 4 1.723.775 2.723 2.108 3 4a60.74 60.74 0 0 0-4.5 6.5c-1.599-1.536-3.433-2.036-5.5-1.5.37 1.61-.297 3.11-2 4.5a52.756 52.756 0 0 1-8 3c-3.254-.294-5.921-1.627-8-4 .996-.086 1.829.248 2.5 1 .5-1.167 1.333-2 2.5-2.5l-1-1a10.258 10.258 0 0 0 4-1.5c-.762-.411-1.762-.577-3-.5 1.82-.979 2.987-2.479 3.5-4.5h5l1.5-1.5c-1.456-.423-1.956-1.256-1.5-2.5l1 1c.667-2.667 1.333-2.667 2 0a64.102 64.102 0 0 0 8-7c1.808.388 3.475.388 5 0 .772-1.349 1.939-2.182 3.5-2.5l-1-1c1.216-1.74 2.882-2.74 5-3-5.333-.667-5.333-1.333 0-2-.928-.388-1.595-1.055-2-2 .854-.574 1.854-1.241 3-2-.593-1.882-1.927-2.882-4-3-.134-2.039.366-4.206 1.5-6.5.739 1.074 1.739 1.741 3 2 1.762-.444 1.595-.944-.5-1.5a8.43 8.43 0 0 1 4-.5Z" style="opacity:.212"/><path fill="#d1506c" d="M336.5 865.5c6.7-.33 13.366.003 20 1a355.512 355.512 0 0 0 12.5 22c3.057.951 6.223 1.284 9.5 1 1.109.79 2.442 1.29 4 1.5-.556.383-.889.883-1 1.5a60.931 60.931 0 0 0-11 .5 222.206 222.206 0 0 1-8 12.5 5.727 5.727 0 0 0-3-1 260.397 260.397 0 0 1 7-13.5c-4.317-7.657-8.65-15.323-13-23a128.507 128.507 0 0 0-16-.5l-1-2Z" style="opacity:.19"/><path fill="#e47142" d="M1007.5 837.5a77.29 77.29 0 0 0-12 3c-3.185-.48-6.019.186-8.5 2a30780.224 30780.224 0 0 0-20.5 36.5 100.59 100.59 0 0 0 4 8.5 5.727 5.727 0 0 1-1 3 785.54 785.54 0 0 1-4.5-7 18.08 18.08 0 0 0-3.5-2c-1.114-1.223-1.281-2.556-.5-4 2.133-.755 3.8-2.088 5-4a902.024 902.024 0 0 1 20-35c7.079-.98 14.25-1.313 21.5-1Z" style="opacity:.188"/><path fill="#f99d0c" d="M1039.5 847.5a224.659 224.659 0 0 1 15.5 26c.83 1.5 2 2.667 3.5 3.5 15.33.5 30.66.667 46 .5a18.622 18.622 0 0 0 3 7c-1 1.333-2 1.333-3 0-.89-.761-1.56-1.761-2-3a323.229 323.229 0 0 0-44-.5 638.118 638.118 0 0 0-21.5 35.5c-.67 1.667-.67 3.333 0 5 1.09 1.578 1.93 3.245 2.5 5-1.33 0-2 .667-2 2-1.38-2.886-3.38-5.386-6-7.5-9.66-.5-19.33-.666-29-.5.11-.617.44-1.117 1-1.5-.92-.278-1.58-.778-2-1.5a249.23 249.23 0 0 0 31-1 455.886 455.886 0 0 0 20.5-35c.67-1.667.67-3.333 0-5a584.374 584.374 0 0 1-15.5-28c.34-.838 1.01-1.172 2-1Z" style="opacity:.176"/><path fill="#b216c6" d="m259.5 863.5 2 2c-2.655 4.639-5.321 9.306-8 14 1.333 2 1.333 4 0 6a5067.61 5067.61 0 0 1 34 58.5 100.813 100.813 0 0 0-5 7.5 5.727 5.727 0 0 1-1-3c2.245-2.556 2.411-5.222.5-8L250.5 887c-2.361-.197-4.028-1.364-5-3.5a343.225 343.225 0 0 0-37-1c.418-.722 1.084-1.222 2-1.5-1.558-.21-2.891-.71-4-1.5 13.337.167 26.671 0 40-.5a48.165 48.165 0 0 0 5-2.5 124.029 124.029 0 0 1 8-13Z" style="opacity:.22"/><path fill="#f08d23" d="M1007.5 857.5c7.49 1.826 14.32 5.159 20.5 10 .67 7.333.67 14.667 0 22a235.226 235.226 0 0 1-18 10 236.179 236.179 0 0 1-18-10 121.19 121.19 0 0 1 0-22 269.77 269.77 0 0 0 15.5-10Z" style="opacity:.189"/><path fill="#b20dbe" d="M1278.5 864.5a644.41 644.41 0 0 1 21 37c-.84.342-1.17 1.008-1 2a481.77 481.77 0 0 1-21-36c.06-1.109.39-2.109 1-3Z" style="opacity:.173"/><path fill="#ee8927" d="M483.5 886.5c-.282 1.278-.949 2.278-2 3-4.797-.379-9.464.121-14 1.5a487.668 487.668 0 0 1-19 31.5c.172-.992-.162-1.658-1-2a705.365 705.365 0 0 1 17-31c-1.211-1.22-1.211-2.387 0-3.5a555.042 555.042 0 0 1-19.5-33.5 13.92 13.92 0 0 0-4-3c-.453-3.719 1.047-5.053 4.5-4a1055.131 1055.131 0 0 0 20.5 38 20.499 20.499 0 0 1 3.5 2.5c4.655.499 9.321.666 14 .5Z" style="opacity:.212"/><path fill="#ca4289" d="m915.5 865.5-2 3c-7.92-.315-15.753.018-23.5 1a355.512 355.512 0 0 0-12.5 22c2.028 3.684 4.028 7.35 6 11 .35 2.541.35 4.874 0 7a163.774 163.774 0 0 1-9-15 9.86 9.86 0 0 0-6-1 9.82 9.82 0 0 0 4-3c.996.086 1.829-.248 2.5-1l13.5-23.5c8.994-.5 17.994-.666 27-.5Z" style="opacity:.205"/><path fill="#dc5e5b" d="M915.5 865.5c1.322-.17 2.489.163 3.5 1l14.5 25a971.395 971.395 0 0 1-15 25.5c-6.325.5-12.658.666-19 .5-1.333-1-1.333-2 0-3 5.676.166 11.343-.001 17-.5a637.966 637.966 0 0 0 12.5-20.5c.667-1.333.667-2.667 0-4a267.498 267.498 0 0 1-11-19c-1.11-1.537-2.61-2.203-4.5-2l2-3Z" style="opacity:.201"/><path fill="#c43698" d="m336.5 865.5 1 2c-3.606-.289-7.106.044-10.5 1a246.364 246.364 0 0 0-12.5 22.5 365.207 365.207 0 0 0 13 22c6.992.5 13.992.666 21 .5 1.4.6 2.4 1.6 3 3-8.673.166-17.34 0-26-.5l-15-25 15-25a60.931 60.931 0 0 1 11-.5Z" style="opacity:.22"/><path fill="#da5e5c" d="M378.5 889.5c6.675-.166 13.342 0 20 .5a971.395 971.395 0 0 1 15 25.5 328.324 328.324 0 0 0-12 21 5.727 5.727 0 0 1-3-1 243.742 243.742 0 0 1 10.5-18c-2.914-8.66-7.081-16.827-12.5-24.5a112.97 112.97 0 0 0-15-.5c.111-.617.444-1.117 1-1.5-1.558-.21-2.891-.71-4-1.5Z" style="opacity:.212"/><path fill="#c23499" d="M872.5 890.5a9.82 9.82 0 0 1-4 3 121.862 121.862 0 0 0-22 1 665.615 665.615 0 0 1-12 21.5 489.499 489.499 0 0 0 10 18.5c-.333 1-1 1.667-2 2a608.487 608.487 0 0 1-12-20.5l15-25c8.994-.5 17.994-.666 27-.5Z" style="opacity:.192"/><path fill="#bb17a2" d="M1299.5 901.5a658.325 658.325 0 0 1 15 24.5c-1.04 1.617-2.2 1.784-3.5.5a425.9 425.9 0 0 1-12.5-23c-.17-.992.16-1.658 1-2Z" style="opacity:.169"/><path fill="#f89c0e" d="M529.5 857.5c.709.904 1.709 1.237 3 1a46566.958 46566.958 0 0 0-15.5 27c-.667 1.667-.667 3.333 0 5a805.256 805.256 0 0 1 19 33 6.978 6.978 0 0 0 3.5 2.5c3.317.498 6.65.665 10 .5.418.722 1.084 1.222 2 1.5 6.513.172 12.847.672 19 1.5a281.555 281.555 0 0 0-33 1 855.042 855.042 0 0 0-20 33v-5a579.173 579.173 0 0 1 15.5-28c.743-3.283.076-6.283-2-9l-18.5-31a249.26 249.26 0 0 0-31-1c1.051-.722 1.718-1.722 2-3 9.339.166 18.673 0 28-.5l3.5-3.5c4.86-8.396 9.693-16.73 14.5-25Z" style="opacity:.192"/><path fill="#a908e4" d="M242.5 951.5c-2.574.344-5.241-.156-8-1.5 1.456-.423 1.956-1.256 1.5-2.5l-1 1c-1.066-3.063-3.233-4.563-6.5-4.5l1-1-4-2c.812-2.582-.021-4.749-2.5-6.5-1.049 1.017-2.216 1.184-3.5.5v-4c-.949-.617-1.782-.451-2.5.5-.442-2.179-1.442-2.845-3-2a14.748 14.748 0 0 0-4.5-3 7.248 7.248 0 0 1 2-2.5c-3.214 1.301-5.048.134-5.5-3.5-1.356.88-2.856 1.214-4.5 1-.203-1.89.463-3.39 2-4.5-.556-.383-.889-.883-1-1.5 16.682-4.91 29.516.09 38.5 15 2.588 6.892 3.088 13.892 1.5 21Z" style="opacity:.209"/><path fill="#f08a28" d="M483.5 910.5c1.219 2.943 3.219 3.943 6 3a22.531 22.531 0 0 0 3 4 377.167 377.167 0 0 1-5 4.5c1.981.605 2.315 1.605 1 3 1.083 2.056 2.75 3.389 5 4l-1 1c2.099 1.682 3.432 3.348 4 5-.951.718-1.117 1.551-.5 2.5a20.499 20.499 0 0 1 3.5 2.5c-.951.718-1.117 1.551-.5 2.5 1.145-1.184 2.312-1.184 3.5 0-3.761 2.966-7.927 5.299-12.5 7-6.1-3.053-12.1-6.386-18-10a121.19 121.19 0 0 1 0-22 207.735 207.735 0 0 1 11.5-7Z" style="opacity:.188"/><path fill="#d3516e" d="M883.5 902.5a217.176 217.176 0 0 0 7 11.5c2.982.498 5.982.665 9 .5-1.333 1-1.333 2 0 3a50.464 50.464 0 0 0-10 .5l-14 23c-10 .667-20 .667-30 0a11.105 11.105 0 0 1-3-4.5c1-.333 1.667-1 2-2a29.01 29.01 0 0 1 3 4.5c8.667.667 17.333.667 26 0a228.933 228.933 0 0 0 12.5-21.5c-.429-2.671-1.263-5.338-2.5-8 .35-2.126.35-4.459 0-7Z" style="opacity:.209"/><path fill="#f08a25" d="M970.5 887.5a1145.427 1145.427 0 0 1 17 28.5c4.536 1.379 9.203 1.879 14 1.5.42.722 1.08 1.222 2 1.5-.56.383-.89.883-1 1.5-5.673-.661-11.006.172-16 2.5a2576.257 2576.257 0 0 0-23 39.5c-4.054-2.808-3.721-5.141 1-7a588.063 588.063 0 0 1 20-34.5c-1.211-1.113-1.211-2.28 0-3.5a534.382 534.382 0 0 1-15-27 5.727 5.727 0 0 0 1-3Z" style="opacity:.203"/><path fill="#b116c7" d="M788.5 830.5a1532.763 1532.763 0 0 1 19 32.5 5067.61 5067.61 0 0 1-34 58.5c1.333 2 1.333 4 0 6 1.725 3.367 3.392 6.7 5 10h-3c-1.481-4.647-4.481-7.813-9-9.5a924.222 924.222 0 0 0-43-.5c.672-.767 1.505-1.434 2.5-2 1.398.551 2.732.884 4 1 .717-.544 1.217-1.211 1.5-2a289.882 289.882 0 0 0 34-1c1.381-2.191 3.381-3.524 6-4a4741.81 4741.81 0 0 0 32-56.5 1346.53 1346.53 0 0 0-17-30.5c.333-1 1-1.667 2-2Z" style="opacity:.218"/><path fill="#f4921d" d="M502.5 942.5c-1.188-1.184-2.355-1.184-3.5 0-.617-.949-.451-1.782.5-2.5a20.499 20.499 0 0 0-3.5-2.5c-.617-.949-.451-1.782.5-2.5-.568-1.652-1.901-3.318-4-5l1-1c-2.25-.611-3.917-1.944-5-4 1.315-1.395.981-2.395-1-3 1.708-1.51 3.374-3.01 5-4.5a22.531 22.531 0 0 1-3-4c-2.781.943-4.781-.057-6-3a57.878 57.878 0 0 1 6.5-3 237.14 237.14 0 0 1 18 10 121.19 121.19 0 0 1 0 22c-1.488 1.66-3.321 2.66-5.5 3Z" style="opacity:.179"/><path fill="#a404f0" d="M195.5 919.5c-1.026 2.872-2.692 5.372-5 7.5 2.768.708 3.601 2.208 2.5 4.5a15.256 15.256 0 0 0 4.5 1.5c-1.456.423-1.956 1.256-1.5 2.5 4.768-2.994 9.101-2.328 13 2-.977-5.948-.143-6.281 2.5-1 4.043 1.541 7.376 4.041 10 7.5-6.34-.92-6.507.247-.5 3.5l3-1c1.65 1.391 2.15 2.891 1.5 4.5a6.547 6.547 0 0 1 3 3c-1.595-.617-2.928-.284-4 1 .753 1.487 1.586 1.654 2.5.5 1.779 1.517 1.279 2.351-1.5 2.5l4 1c-1.134 1.016-.801 1.683 1 2-.372 2.629-.372 5.129 0 7.5l-8 4c-.381-1.431-1.381-2.264-3-2.5l2-1a12.403 12.403 0 0 1-4-2.5 4.457 4.457 0 0 1 2-1.5c-2.098-.014-3.931.153-5.5.5l-1.5-3c.438-1.006 1.104-1.006 2 0 .641-1.796 1.641-3.296 3-4.5-1.771-2.113-3.271-1.947-4.5.5a10.258 10.258 0 0 0-1.5-4c-1.211.774-1.211 1.607 0 2.5-1.801.317-2.134.984-1 2-1.049.492-2.049.326-3-.5-.928 1.835-2.094 2.168-3.5 1-.851 3.112-2.017 3.446-3.5 1a4.457 4.457 0 0 1 2-1.5l-4-1c2.378-.974 2.044-1.641-1-2 .837-1.011 1.17-2.178 1-3.5a8.43 8.43 0 0 1-4-.5l1-1c-2.511-2.105-4.844-1.938-7 .5l-1-1.5c.944-1.477 2.277-2.477 4-3a131.569 131.569 0 0 1-7-3.5c.237 1.291-.096 2.291-1 3-.586-11.152 3.414-20.152 12-27Z" style="opacity:.207"/><path fill="#fdab02" d="M570.5 929.5a177.566 177.566 0 0 0-19-1.5c-.916-.278-1.582-.778-2-1.5 11.02.332 22.02-.001 33-1a2097.938 2097.938 0 0 1 22-37.5 2097.938 2097.938 0 0 1-22-37.5 308.717 308.717 0 0 0-43-.5c-3.142 2.089-5.476 4.923-7 8.5-1.291.237-2.291-.096-3-1a47.404 47.404 0 0 1 4.5-8c.667-1.667.667-3.333 0-5-7.261-12.933-14.594-25.266-22-37 1.667-2.667 3.333-2.667 5 0a246.274 246.274 0 0 0 22.5 38.5l44 1a1555.533 1555.533 0 0 1 24 40.5 646.57 646.57 0 0 0-23 42h-14Z" style="opacity:.169"/><path fill="#ac08d8" d="M696.5 921.5c2.394-.367 4.727.467 7 2.5 9.327.5 18.661.666 28 .5-.283.789-.783 1.456-1.5 2-1.268-.116-2.602-.449-4-1-.995.566-1.828 1.233-2.5 2-6.675-.166-13.342 0-20 .5-1.949 1.835-4.283 3.001-7 3.5a2325.612 2325.612 0 0 1-32.5 56c-.667 1-.667 2 0 3a85.674 85.674 0 0 1 5.5 10c.432 1.21 1.099 2.21 2 3 .851 2.38 2.184 4.38 4 6 1.543 4.52 3.877 8.52 7 12v2h-3c-4.015-6.7-8.015-13.37-12-20 .073-1.53-.594-2.53-2-3a190.535 190.535 0 0 0-6-11.5 1748.26 1748.26 0 0 0 34.5-59.5c.495-1.973.662-3.973.5-6 0-1.333.667-2 2-2Z" style="opacity:.129"/><path fill="#c9408b" d="M359.5 904.5a5.727 5.727 0 0 1 3 1 557.884 557.884 0 0 1-5 10 249.856 249.856 0 0 0 13 22.5c9.018.832 18.018.665 27-.5.363-.683.696-1.35 1-2 .891.61 1.891.943 3 1a30.786 30.786 0 0 0-3 4.5c-10 .667-20 .667-30 0L355 917.5c-1.011-.837-2.178-1.17-3.5-1-.6-1.4-1.6-2.4-3-3a9.86 9.86 0 0 0 6-1c1.191-3.068 2.858-5.735 5-8Z" style="opacity:.204"/><path fill="#e47046" d="M447.5 920.5c.838.342 1.172 1.008 1 2-1.135 2.245-1.635 4.578-1.5 7a1988.151 1988.151 0 0 0 21.5 36.5c3.317.498 6.65.665 10 .5-1.4.6-2.4 1.6-3 3-3.277.284-6.443-.049-9.5-1a902.024 902.024 0 0 1-20-35c-1.2-1.912-2.867-3.245-5-4-.781-1.444-.614-2.777.5-4 2.655-.997 4.655-2.664 6-5Z" style="opacity:.176"/><path fill="#a706eb" d="M202.5 915.5c.111.617.444 1.117 1 1.5-1.537 1.11-2.203 2.61-2 4.5 1.644.214 3.144-.12 4.5-1 .452 3.634 2.286 4.801 5.5 3.5a7.248 7.248 0 0 0-2 2.5 14.748 14.748 0 0 1 4.5 3c1.558-.845 2.558-.179 3 2 .718-.951 1.551-1.117 2.5-.5v4c1.284.684 2.451.517 3.5-.5 2.479 1.751 3.312 3.918 2.5 6.5l4 2-1 1c3.267-.063 5.434 1.437 6.5 4.5l1-1c.456 1.244-.044 2.077-1.5 2.5 2.759 1.344 5.426 1.844 8 1.5-1.79 7.254-5.79 12.921-12 17-.372-2.371-.372-4.871 0-7.5-1.801-.317-2.134-.984-1-2l-4-1c2.779-.149 3.279-.983 1.5-2.5-.914 1.154-1.747.987-2.5-.5 1.072-1.284 2.405-1.617 4-1a6.547 6.547 0 0 0-3-3c.65-1.609.15-3.109-1.5-4.5l-3 1c-6.007-3.253-5.84-4.42.5-3.5-2.624-3.459-5.957-5.959-10-7.5-2.643-5.281-3.477-4.948-2.5 1-3.899-4.328-8.232-4.994-13-2-.456-1.244.044-2.077 1.5-2.5a15.256 15.256 0 0 1-4.5-1.5c1.101-2.292.268-3.792-2.5-4.5 2.308-2.128 3.974-4.628 5-7.5a36.16 36.16 0 0 1 7-4Z" style="opacity:.206"/><path fill="#a403f4" d="M222.5 972.5c-21.08 3.23-34.08-5.437-39-26 .904-.709 1.237-1.709 1-3a131.569 131.569 0 0 0 7 3.5c-1.723.523-3.056 1.523-4 3l1 1.5c2.156-2.438 4.489-2.605 7-.5l-1 1a8.43 8.43 0 0 0 4 .5c.17 1.322-.163 2.489-1 3.5 3.044.359 3.378 1.026 1 2l4 1a4.457 4.457 0 0 0-2 1.5c1.483 2.446 2.649 2.112 3.5-1 1.406 1.168 2.572.835 3.5-1 .951.826 1.951.992 3 .5-1.134-1.016-.801-1.683 1-2-1.211-.893-1.211-1.726 0-2.5a10.258 10.258 0 0 1 1.5 4c1.229-2.447 2.729-2.613 4.5-.5-1.359 1.204-2.359 2.704-3 4.5-.896-1.006-1.562-1.006-2 0l1.5 3c1.569-.347 3.402-.514 5.5-.5a4.457 4.457 0 0 0-2 1.5 12.403 12.403 0 0 0 4 2.5l-2 1c1.619.236 2.619 1.069 3 2.5Z" style="opacity:.2"/><path fill="#c22b9e" d="M775.5 937.5h3a534.127 534.127 0 0 1 22 38l-2 2-23-40Z" style="opacity:.224"/><path fill="#fcaa03" d="M1104.5 884.5c1 1.333 2 1.333 3 0a1719.341 1719.341 0 0 1 20 34.5l-24 41-44 1a246.924 246.924 0 0 0-22.5 38.5c-1.67 2.67-3.33 2.67-5 0-1.21-3.338-.04-5.171 3.5-5.5a493.987 493.987 0 0 0 19-34 475.267 475.267 0 0 0-17-31.5c0-1.333.67-2 2-2a702.313 702.313 0 0 0 18.5 30 252.623 252.623 0 0 0 44.5 0 683.27 683.27 0 0 0 21-37.5 1681.508 1681.508 0 0 0-19-34.5Z" style="opacity:.214"/><path fill="#bf30a6" d="M420.5 1004.5a5.72 5.72 0 0 0-1 3c-7.212-.28-14.378.05-21.5 1a87.23 87.23 0 0 0-9.5 15h-3a531.475 531.475 0 0 1 10-19.5l-22-37c-15.172-.828-30.172-.661-45 .5l-2-1c-.086-.996.248-1.829 1-2.5 16-.667 32-.667 48 0l22 38a7.352 7.352 0 0 1 3 2c6.658.5 13.325.67 20 .5Z" style="opacity:.184"/><path fill="#cc3b7e" d="M800.5 975.5a49.056 49.056 0 0 1 5.5 8c1.301 1.902 1.968 3.902 2 6-.893 1.211-1.726 1.211-2.5 0a7704.638 7704.638 0 0 0-7-12l2-2Z" style="opacity:.213"/><path fill="#a202f6" d="M174.5 883.5c0 1.333.667 2 2 2a4962.402 4962.402 0 0 0-34 58.5l36 61c23.333.67 46.667.67 70 0 10.9-18.978 21.9-37.812 33-56.5a5.727 5.727 0 0 0 1 3 920.523 920.523 0 0 1-32 55.5c-25.007.83-50.007.67-75-.5a5860.773 5860.773 0 0 1-36-62.5 3852.09 3852.09 0 0 1 35-60.5Z" style="opacity:.185"/><path fill="#b621bc" d="M363.5 1013.5c-.637-3.77-2.637-6.6-6-8.5v-3c-1-.33-2-.67-3-1 .333-.33.667-.67 1-1-1-1.667-2.333-3-4-4-.335-1.164-.335-2.497 0-4-.949-.617-1.782-.451-2.5.5-.153-2.651-.987-4.984-2.5-7a66.78 66.78 0 0 1 4.5-10l10 18a517.621 517.621 0 0 1 18.5 11c-5.361 3.01-10.694 6.01-16 9Z" style="opacity:.178"/><path fill="#ff9202" d="M669.5 1000.5c2.544-.4 4.711.27 6.5 2 3.858 7.05 7.691 14.05 11.5 21h-3c-.333-1-1-1.67-2-2-1.543-4.52-3.877-8.52-7-12-.37-2.77-1.704-4.77-4-6-.901-.79-1.568-1.79-2-3Z" style="opacity:.094"/><path fill="#d0467c" d="M419.5 1007.5a5.72 5.72 0 0 1 1-3c7.723.3 15.39-.03 23-1 3.903 2.27 3.903 4.27 0 6-1.237-.06-2.237-.56-3-1.5a219.59 219.59 0 0 0-21-.5Z" style="opacity:.145"/><path fill="#f5891c" d="M517.5 958.5v5c-1.069 2.908-1.236 5.908-.5 9a758.053 758.053 0 0 1 18.5 32c1.649.65 2.982 1.65 4 3a280.561 280.561 0 0 0 41 .5c2.441-3.38 4.441-3.21 6 .5 0 2-1 3-3 3a415.175 415.175 0 0 0-49-.5 269.78 269.78 0 0 0-23-40.5 324.95 324.95 0 0 0-36-1c.6-1.4 1.6-2.4 3-3 11.338.167 22.672 0 34-.5 1.318-2.824 2.985-5.324 5-7.5Z" style="opacity:.106"/><path fill="#fe9301" d="M665.5 1000.5c1.406.47 2.073 1.47 2 3-21.336-.17-42.669 0-64 .5a575.422 575.422 0 0 0-11 19.5h-3c3.467-7.6 7.467-14.93 12-22 21.323-1 42.656-1.33 64-1Z" style="opacity:.094"/><path fill="#ac0edc" d="m326.5 966.5 2 1a682.371 682.371 0 0 0-21 37.5 281.021 281.021 0 0 1 10 18.5h-4a258.7 258.7 0 0 0-10-19c7.692-12.73 15.359-25.397 23-38Z" style="opacity:.18"/><path fill="#a200ff" d="M122.5 1023.5h-4c-1.23-1.8-1.896-3.8-2-6 2.863.99 4.863 2.99 6 6Z" style="opacity:.163"/><path fill="#b017ce" d="M346.5 985.5c1.513 2.016 2.347 4.349 2.5 7 .718-.951 1.551-1.117 2.5-.5-.335 1.503-.335 2.836 0 4 1.667 1 3 2.333 4 4-.333.33-.667.67-1 1 1 .33 2 .67 3 1v3c3.363 1.9 5.363 4.73 6 8.5-3.292 2.56-5.626 5.89-7 10h-11a128.535 128.535 0 0 0-5-9.5 230.815 230.815 0 0 1-18-9.5c6-3.33 12-6.667 18-10a61.198 61.198 0 0 1 6-9Z" style="opacity:.18"/></svg>