<svg width="1440" height="1024" viewBox="0 0 1440 1024" fill="none" xmlns="http://www.w3.org/2000/svg">
<g clip-path="url(#clip0_512_5603)">
<mask id="mask0_512_5603" style="mask-type:alpha" maskUnits="userSpaceOnUse" x="26" y="-1" width="648" height="816">
<circle cx="523.375" cy="188.936" r="29.5349" fill="#D9D9D9"/>
<path d="M527.718 590.697C527.718 608.328 542.011 622.621 559.642 622.621C559.642 604.99 545.349 590.697 527.718 590.697Z" fill="#D9D9D9"/>
<path d="M559.642 622.621C559.642 640.252 545.349 654.545 527.718 654.545C527.718 636.914 542.011 622.621 559.642 622.621Z" fill="#D9D9D9"/>
<path d="M559.642 622.621C559.642 640.252 573.935 654.545 591.566 654.545C591.566 636.922 577.286 622.634 559.667 622.621C577.286 622.608 591.566 608.32 591.566 590.697C573.935 590.697 559.642 604.99 559.642 622.621Z" fill="#D9D9D9"/>
<path d="M310.468 423.478C302.335 431.611 302.335 444.798 310.468 452.931C318.601 444.798 318.601 431.611 310.468 423.478Z" fill="#D9D9D9"/>
<path d="M310.468 452.931C302.335 461.064 289.148 461.064 281.015 452.931C289.148 444.798 302.335 444.798 310.468 452.931Z" fill="#D9D9D9"/>
<path d="M310.468 452.931C302.335 461.064 302.335 474.251 310.468 482.384C318.597 474.254 318.601 461.076 310.479 452.942C318.614 461.064 331.791 461.06 339.921 452.931C331.788 444.798 318.601 444.798 310.468 452.931Z" fill="#D9D9D9"/>
<path d="M385.908 223.471L395.584 242.244L414.357 251.92L395.584 261.596L385.908 280.369L376.232 261.596L357.459 251.92L376.232 242.244L385.908 223.471Z" fill="#D9D9D9"/>
<path fill-rule="evenodd" clip-rule="evenodd" d="M101.811 672.918C112.006 672.918 120.271 664.751 120.271 654.676C120.271 644.601 112.006 636.434 101.811 636.434C91.6167 636.434 83.3522 644.601 83.3522 654.676C83.3522 664.751 91.6167 672.918 101.811 672.918ZM101.811 663.917C106.976 663.917 111.163 659.779 111.163 654.676C111.163 649.572 106.976 645.435 101.811 645.435C96.647 645.435 92.4604 649.572 92.4604 654.676C92.4604 659.779 96.647 663.917 101.811 663.917Z" fill="#D9D9D9"/>
<path d="M192.943 341.823L178.078 356.697L193.178 371.807L178.109 386.887L192.974 401.761L208.043 386.682L222.686 401.334L237.551 386.46L222.908 371.807L237.582 357.124L222.717 342.25L208.043 356.933L192.943 341.823Z" fill="#D9D9D9"/>
<path d="M247.065 153L265.308 163.533V184.598L247.065 195.131L228.822 184.598V163.533L247.065 153Z" fill="#D9D9D9"/>
<path d="M310.55 586.788L331.238 622.621H289.862L310.55 586.788Z" fill="#D9D9D9"/>
<path d="M154.317 93.6218L200.287 93.6218L223.273 133.434L200.287 173.246L154.317 173.246L131.331 133.434L154.317 93.6218Z" stroke="black" stroke-width="2"/>
<path d="M123.022 473.43L149.908 473.43L163.351 496.714L149.908 519.998L123.022 519.998L109.578 496.714L123.022 473.43Z" stroke="black" stroke-width="2"/>
<path d="M593.199 280.407L610.316 280.407L618.874 295.231L610.316 310.054L593.199 310.054L584.641 295.231L593.199 280.407Z" stroke="black" stroke-width="2"/>
<path d="M571.617 331.057L548.631 370.869L502.661 370.869L479.675 331.057L502.661 291.245L548.631 291.245L571.617 331.057Z" stroke="black" stroke-width="2"/>
<path d="M451.516 189.397L487.663 126.79L559.956 126.79L596.102 189.397L559.956 252.005L487.663 252.005L451.516 189.397Z" stroke="black" stroke-width="2"/>
<path d="M496.477 690.687L473.491 730.499L427.52 730.499L404.535 690.687L427.52 650.876L473.491 650.876L496.477 690.687Z" stroke="black" stroke-width="2"/>
<path d="M63.2182 247.819L134.395 247.819L169.983 309.459L134.395 371.1L63.2182 371.1L27.6298 309.459L63.2182 247.819Z" stroke="black" stroke-width="2"/>
<path d="M524.483 559.238L595.66 559.238L631.248 620.879L595.66 682.52L524.483 682.52L488.895 620.879L524.483 559.238Z" stroke="black" stroke-width="2"/>
<path d="M79.1765 614.826L125.147 614.826L148.133 654.638L125.147 694.45L79.1765 694.45L56.1911 654.638L79.1765 614.826Z" stroke="black" stroke-width="2"/>
<path d="M530.851 475.16L557.223 475.16L570.409 497.998L557.223 520.836L530.851 520.836L517.666 497.998L530.851 475.16Z" stroke="black" stroke-width="2"/>
<path d="M431.691 250.27L408.705 290.082L362.735 290.082L339.749 250.27L362.734 210.459L408.705 210.459L431.691 250.27Z" stroke="black" stroke-width="2"/>
<path d="M356.551 609.901L333.565 649.713L287.594 649.713L264.609 609.901L287.594 570.089L333.565 570.089L356.551 609.901Z" stroke="black" stroke-width="2"/>
<path d="M293.666 92.4979L270.261 133.036L223.451 133.036L200.046 92.4979L223.451 51.9595" stroke="black" stroke-width="2"/>
<path d="M205.704 472.356L191.778 496.478L163.925 496.478L149.998 472.356L163.925 448.235" stroke="black" stroke-width="2"/>
<path d="M646.874 279.36L637.8 295.077L619.651 295.077L610.576 279.36L619.651 263.642" stroke="black" stroke-width="2"/>
<path d="M502.916 452.299L479.511 411.76L502.916 371.222L549.726 371.222L573.131 411.76" stroke="black" stroke-width="2"/>
<path d="M559.235 0.000196527L595.713 63.1817L559.235 126.363L486.28 126.363L449.802 63.1816" stroke="black" stroke-width="2"/>
<path d="M427.776 811.929L404.371 771.391L427.776 730.852L474.586 730.852L497.991 771.391" stroke="black" stroke-width="2"/>
<path d="M382.561 112.032L410.626 112.032L424.658 136.337L410.626 160.641L382.561 160.641L368.529 136.337L382.561 112.032Z" stroke="black" stroke-width="2"/>
<path d="M287.658 413.293L333.629 413.293L356.614 453.105L333.629 492.917L287.658 492.917L264.672 453.105L287.658 413.293Z" stroke="black" stroke-width="2"/>
<path d="M501.982 531.587L478.997 571.399L433.026 571.399L410.04 531.587L433.026 491.775L478.997 491.775L501.982 531.587Z" stroke="black" stroke-width="2"/>
<path d="M435.452 610.481L420.681 636.067L391.137 636.067L376.365 610.481L391.137 584.895L420.681 584.895L435.452 610.481Z" stroke="black" stroke-width="2"/>
<path d="M223.81 133.581L269.781 133.581L292.767 173.393L269.781 213.205L223.81 213.205L200.825 173.393L223.81 133.581Z" stroke="black" stroke-width="2"/>
<path d="M164.372 497.207L191.259 497.207L204.702 520.491L191.259 543.775L164.372 543.775L150.929 520.491L164.372 497.207Z" stroke="black" stroke-width="2"/>
<path d="M620.143 295.9L637.26 295.9L645.818 310.724L637.26 325.547L620.143 325.547L611.585 310.724L620.143 295.9Z" stroke="black" stroke-width="2"/>
<path d="M502.265 371.261L479.279 411.073L433.308 411.073L410.323 371.261L433.308 331.449L479.279 331.449L502.265 371.261Z" stroke="black" stroke-width="2"/>
<path d="M427.124 730.892L404.139 770.703L358.168 770.703L335.183 730.892L358.168 691.08L404.139 691.08L427.124 730.892Z" stroke="black" stroke-width="2"/>
<path d="M279.802 371.195L243.636 308.554L171.305 308.554L135.139 371.195L171.305 433.836" stroke="black" stroke-width="2"/>
<path d="M220.084 693.728L196.521 652.916L149.396 652.916L125.833 693.728L149.396 734.54" stroke="black" stroke-width="2"/>
<path d="M612.916 520.83L599.153 496.992L571.627 496.992L557.864 520.83L571.627 544.669" stroke="black" stroke-width="2"/>
<path d="M292.905 332.849L340.031 332.849L363.594 292.037L340.031 251.226L292.905 251.226" stroke="black" stroke-width="2"/>
<path d="M217.765 692.48L264.891 692.48L288.453 651.668L264.891 610.856L217.765 610.856" stroke="black" stroke-width="2"/>
<path d="M339.473 136.808L367.537 136.808L381.57 161.113L367.537 185.417L339.473 185.417L325.44 161.113L339.473 136.808Z" stroke="black" stroke-width="2"/>
<path d="M205.723 473.43L232.609 473.43L246.052 496.714L232.609 519.998L205.723 519.998L192.28 496.714L205.723 473.43Z" stroke="black" stroke-width="2"/>
<path d="M647.087 280.407L664.204 280.407L672.762 295.231L664.204 310.054L647.087 310.054L638.529 295.231L647.087 280.407Z" stroke="black" stroke-width="2"/>
<path d="M329.331 504.518L356.218 504.518L369.661 527.802L356.218 551.086L329.331 551.086L315.888 527.802L329.331 504.518Z" stroke="black" stroke-width="2"/>
<path d="M400.451 380.637L385.55 406.448L355.746 406.448L340.845 380.637L355.746 354.827L385.55 354.827L400.451 380.637Z" stroke="black" stroke-width="2"/>
<path d="M306.889 760.761L292.117 786.347L262.573 786.347L247.801 760.761L262.573 735.176L292.117 735.176L306.889 760.761Z" stroke="black" stroke-width="2"/>
<path d="M153.305 255.032L200.43 255.032L223.993 214.22L200.43 173.408L153.305 173.408" stroke="black" stroke-width="2"/>
<path d="M122.186 569.069L150.227 569.069L164.247 544.785L150.227 520.5L122.186 520.5" stroke="black" stroke-width="2"/>
<path d="M592.454 342.377L610.725 342.377L619.861 326.554L610.725 310.73L592.454 310.73" stroke="black" stroke-width="2"/>
<path d="M432.338 249.476L408.775 290.287L432.338 331.099L479.463 331.099L503.026 290.287" stroke="black" stroke-width="2"/>
<path d="M357.197 609.106L333.635 649.918L357.197 690.73L404.323 690.73L427.886 649.918" stroke="black" stroke-width="2"/>
<circle cx="199.795" cy="93.3824" r="2.60602" fill="black"/>
<circle cx="149.787" cy="472.775" r="1.52018" fill="black"/>
<circle cx="163.528" cy="449.755" r="1.52018" fill="black"/>
<circle cx="610.46" cy="279.64" r="1.08584" fill="black"/>
<circle cx="549.086" cy="370.562" r="2.60602" transform="rotate(120 549.086 370.562)" fill="black"/>
<circle cx="573.409" cy="411.836" r="2.60602" transform="rotate(120 573.409 411.836)" fill="black"/>
<circle cx="487.277" cy="127.826" r="4.06163" transform="rotate(-60 487.277 127.826)" fill="black"/>
<circle cx="558.024" cy="126.294" r="4.06163" transform="rotate(-60 558.024 126.294)" fill="black"/>
<circle cx="473.946" cy="730.193" r="2.60602" transform="rotate(120 473.946 730.193)" fill="black"/>
<circle cx="200.663" cy="254.086" r="2.60602" fill="black"/>
<circle cx="223.249" cy="214.128" r="2.60602" fill="black"/>
<circle cx="153.321" cy="254.086" r="2.60602" fill="black"/>
<circle cx="409.477" cy="290.962" r="2.60602" transform="rotate(120 409.477 290.962)" fill="black"/>
<circle cx="334.337" cy="650.593" r="2.60602" transform="rotate(120 334.337 650.593)" fill="black"/>
<circle cx="223.249" cy="133.341" r="2.60602" fill="black"/>
<circle cx="163.686" cy="496.664" r="1.52018" fill="black"/>
<circle cx="619.58" cy="295.276" r="1.08584" fill="black"/>
<circle cx="502.753" cy="370.894" r="2.60602" transform="rotate(120 502.753 370.894)" fill="black"/>
<circle cx="427.613" cy="730.525" r="2.60602" transform="rotate(120 427.613 730.525)" fill="black"/>
<circle cx="148.109" cy="653.676" r="2.60602" fill="black"/>
<circle cx="570.935" cy="497.532" r="1.52018" fill="black"/>
<circle cx="363.579" cy="290.542" r="2.60602" transform="rotate(120 363.579 290.542)" fill="black"/>
<circle cx="288.439" cy="650.173" r="2.60602" transform="rotate(120 288.439 650.173)" fill="black"/>
<circle cx="270.157" cy="133.341" r="2.60602" fill="black"/>
<ellipse cx="191.7" cy="496.664" rx="1.73734" ry="1.52018" fill="black"/>
<circle cx="637.823" cy="295.276" r="1.08584" fill="black"/>
<circle cx="479.299" cy="411.518" r="2.60602" transform="rotate(120 479.299 411.518)" fill="black"/>
<circle cx="404.159" cy="771.149" r="2.60602" transform="rotate(120 404.159 771.149)" fill="black"/>
<circle cx="196.32" cy="652.807" r="2.60602" fill="black"/>
<circle cx="340.226" cy="332.729" r="2.60602" transform="rotate(120 340.226 332.729)" fill="black"/>
<circle cx="265.086" cy="692.359" r="2.60602" transform="rotate(120 265.086 692.359)" fill="black"/>
<circle cx="293.611" cy="93.3824" r="2.60602" fill="black"/>
<circle cx="222.815" cy="54.7261" r="2.60602" fill="black"/>
<circle cx="205.816" cy="472.775" r="1.52018" fill="black"/>
<circle cx="646.944" cy="279.64" r="1.08584" fill="black"/>
<circle cx="502.177" cy="451.809" r="2.60602" transform="rotate(120 502.177 451.809)" fill="black"/>
<circle cx="427.037" cy="811.44" r="2.60602" transform="rotate(120 427.037 811.44)" fill="black"/>
<circle cx="497.4" cy="771.032" r="2.60602" transform="rotate(120 497.4 771.032)" fill="black"/>
<circle cx="293.611" cy="173.3" r="2.60602" fill="black"/>
<circle cx="205.816" cy="520.552" r="1.52018" fill="black"/>
<ellipse cx="646.944" cy="310.695" rx="1.08584" ry="0.868672" fill="black"/>
<circle cx="432.967" cy="411.85" r="2.60602" transform="rotate(120 432.967 411.85)" fill="black"/>
<circle cx="294.48" cy="332.701" r="2.60602" fill="black"/>
<circle cx="219.34" cy="692.332" r="2.60602" fill="black"/>
<circle cx="294.486" cy="332.902" r="2.60602" transform="rotate(120 294.486 332.902)" fill="black"/>
<circle cx="293.696" cy="252.434" r="2.60602" transform="rotate(120 293.696 252.434)" fill="black"/>
<circle cx="219.346" cy="692.532" r="2.60602" transform="rotate(120 219.346 692.532)" fill="black"/>
<circle cx="200.663" cy="173.3" r="2.60602" fill="black"/>
<circle cx="150.221" cy="520.552" r="1.52018" fill="black"/>
<circle cx="610.677" cy="310.695" r="0.868672" fill="black"/>
<circle cx="479.441" cy="331.356" r="2.60602" transform="rotate(120 479.441 331.356)" fill="black"/>
<circle cx="404.3" cy="690.986" r="2.60602" transform="rotate(120 404.3 690.986)" fill="black"/>
<circle cx="135.296" cy="370.706" r="4.12619" fill="black"/>
<circle cx="170.477" cy="309.03" r="4.12619" fill="black"/>
<circle cx="172.649" cy="431.513" r="4.12619" fill="black"/>
<circle cx="280.798" cy="370.706" r="4.12619" fill="black"/>
<circle cx="125.958" cy="694.503" r="2.60602" fill="black"/>
<circle cx="148.109" cy="733.594" r="2.60602" fill="black"/>
<circle cx="557.905" cy="521.421" r="1.52018" fill="black"/>
<circle cx="339.297" cy="250.945" r="2.60602" transform="rotate(120 339.297 250.945)" fill="black"/>
<circle cx="264.157" cy="610.575" r="2.60602" transform="rotate(120 264.157 610.575)" fill="black"/>
<circle cx="217.688" cy="611.631" r="2.60602" transform="rotate(120 217.688 611.631)" fill="black"/>
</mask>
<g mask="url(#mask0_512_5603)">
<g filter="url(#filter0_f_512_5603)">
<path d="M908.685 830.691C908.685 1002.07 769.759 1140.99 598.384 1140.99C427.01 1140.99 288.084 1002.07 288.084 830.691C288.084 659.317 427.01 520.39 598.384 520.39C769.759 520.39 908.685 659.317 908.685 830.691Z" fill="#CC00FF" fill-opacity="0.2"/>
<path d="M937.972 290.977C937.972 462.351 799.045 601.278 627.671 601.278C456.297 601.278 317.37 462.351 317.37 290.977C317.37 119.603 456.297 -19.3235 627.671 -19.3235C799.045 -19.3235 937.972 119.603 937.972 290.977Z" fill="#9E00FF" fill-opacity="0.2"/>
<path d="M332.304 790.632C213.911 881.161 72.0437 894.532 15.4342 820.498C-41.1753 746.464 8.91009 613.06 127.303 522.532C245.696 432.004 387.564 418.632 444.173 492.666C500.783 566.7 450.697 700.104 332.304 790.632Z" fill="#FF72CF" fill-opacity="0.4"/>
<path d="M558.231 57.0675C439.838 147.596 297.97 160.967 241.361 86.9335C184.751 12.8997 234.837 -120.504 353.23 -211.033C471.623 -301.561 613.49 -314.933 670.1 -240.899C726.709 -166.865 676.624 -33.4609 558.231 57.0675Z" fill="#E61B1B" fill-opacity="0.1"/>
<path d="M373.155 278.426C373.155 449.8 234.228 588.726 62.8542 588.726C-108.52 588.726 -247.447 449.8 -247.447 278.426C-247.447 107.051 -108.52 -31.875 62.8542 -31.875C234.228 -31.875 373.155 107.051 373.155 278.426Z" fill="#FF5C00" fill-opacity="0.05"/>
<path d="M467.988 -102.303C467.988 69.0715 329.062 207.998 157.688 207.998C-13.6867 207.998 -152.613 69.0715 -152.613 -102.303C-152.613 -273.677 -13.6867 -412.604 157.688 -412.604C329.062 -412.604 467.988 -273.677 467.988 -102.303Z" fill="#FFC700" fill-opacity="0.2"/>
</g>
</g>
<mask id="mask1_512_5603" style="mask-type:alpha" maskUnits="userSpaceOnUse" x="63" y="754" width="649" height="816">
<circle cx="29.5349" cy="29.5349" r="29.5349" transform="matrix(-1 0 0 1 243.764 914.401)" fill="#D9D9D9"/>
<path d="M351.697 976.471L342.021 995.244L323.248 1004.92L342.021 1014.6L351.697 1033.37L361.373 1014.6L380.146 1004.92L361.373 995.244L351.697 976.471Z" fill="#D9D9D9"/>
<path d="M490.539 908L472.296 918.533V939.598L490.539 950.131L508.782 939.598V918.533L490.539 908Z" fill="#D9D9D9"/>
<path d="M583.288 848.622L537.317 848.622L514.332 888.434L537.317 928.246L583.288 928.246L606.273 888.434L583.288 848.622Z" stroke="black" stroke-width="2"/>
<path d="M286.088 944.397L249.942 881.79L177.649 881.79L141.502 944.397L177.649 1007.01L249.942 1007.01L286.088 944.397Z" stroke="black" stroke-width="2"/>
<path d="M674.386 1002.82L603.209 1002.82L567.621 1064.46L603.209 1126.1L674.386 1126.1L709.975 1064.46L674.386 1002.82Z" stroke="black" stroke-width="2"/>
<path d="M305.914 1005.27L328.899 1045.08L374.87 1045.08L397.855 1005.27L374.87 965.459L328.899 965.459L305.914 1005.27Z" stroke="black" stroke-width="2"/>
<path d="M443.939 847.498L467.344 888.036L514.153 888.036L537.558 847.498L514.153 806.959" stroke="black" stroke-width="2"/>
<path d="M90.7304 1034.36L99.8049 1050.08L117.954 1050.08L127.028 1034.36L117.954 1018.64" stroke="black" stroke-width="2"/>
<path d="M178.369 755L141.891 818.182L178.369 881.363L251.325 881.363L287.803 818.182" stroke="black" stroke-width="2"/>
<path d="M355.043 867.032L326.979 867.032L312.946 891.337L326.979 915.641L355.043 915.641L369.076 891.337L355.043 867.032Z" stroke="black" stroke-width="2"/>
<path d="M513.794 888.581L467.823 888.581L444.838 928.393L467.823 968.205L513.794 968.205L536.78 928.393L513.794 888.581Z" stroke="black" stroke-width="2"/>
<path d="M444.699 1087.85L397.574 1087.85L374.011 1047.04L397.574 1006.23L444.699 1006.23" stroke="black" stroke-width="2"/>
<path d="M398.132 891.808L370.067 891.808L356.035 916.113L370.067 940.417L398.132 940.417L412.164 916.113L398.132 891.808Z" stroke="black" stroke-width="2"/>
<path d="M584.299 1010.03L537.174 1010.03L513.611 969.22L537.174 928.408L584.299 928.408" stroke="black" stroke-width="2"/>
<path d="M305.267 1004.48L328.83 1045.29L305.267 1086.1L258.141 1086.1L234.579 1045.29" stroke="black" stroke-width="2"/>
<circle cx="2.60602" cy="2.60602" r="2.60602" transform="matrix(-1 0 0 1 540.416 845.776)" fill="black"/>
<circle cx="4.06163" cy="4.06163" r="4.06163" transform="matrix(-0.5 -0.866025 -0.866025 0.5 255.875 884.312)" fill="black"/>
<circle cx="4.06163" cy="4.06163" r="4.06163" transform="matrix(-0.5 -0.866025 -0.866025 0.5 185.129 882.78)" fill="black"/>
<circle cx="2.60602" cy="2.60602" r="2.60602" transform="matrix(-1 0 0 1 539.547 1006.48)" fill="black"/>
<circle cx="2.60602" cy="2.60602" r="2.60602" transform="matrix(-1 0 0 1 516.962 966.521)" fill="black"/>
<circle cx="2.60602" cy="2.60602" r="2.60602" transform="matrix(-1 0 0 1 586.89 1006.48)" fill="black"/>
<circle cx="2.60602" cy="2.60602" r="2.60602" transform="matrix(-1 0 0 1 516.962 885.735)" fill="black"/>
<circle cx="2.60602" cy="2.60602" r="2.60602" transform="matrix(-1 0 0 1 470.053 885.735)" fill="black"/>
<circle cx="2.60602" cy="2.60602" r="2.60602" transform="matrix(-1 0 0 1 446.599 845.776)" fill="black"/>
<circle cx="2.60602" cy="2.60602" r="2.60602" transform="matrix(-1 0 0 1 517.396 807.12)" fill="black"/>
<circle cx="2.60602" cy="2.60602" r="2.60602" transform="matrix(-1 0 0 1 446.599 925.694)" fill="black"/>
<circle cx="2.60602" cy="2.60602" r="2.60602" transform="matrix(0.5 0.866025 0.866025 -0.5 440.348 1006.48)" fill="black"/>
<circle cx="2.60602" cy="2.60602" r="2.60602" transform="matrix(-1 0 0 1 539.547 925.694)" fill="black"/>
<circle cx="2.60602" cy="2.60602" r="2.60602" transform="matrix(0.5 0.866025 0.866025 -0.5 394.748 1004.99)" fill="black"/>
</mask>
<g mask="url(#mask1_512_5603)">
<g filter="url(#filter1_f_512_5603)">
<path d="M-171.081 1585.69C-171.081 1757.07 -32.1542 1895.99 139.22 1895.99C310.594 1895.99 449.521 1757.07 449.521 1585.69C449.521 1414.32 310.594 1275.39 139.22 1275.39C-32.1542 1275.39 -171.081 1414.32 -171.081 1585.69Z" fill="#CC00FF" fill-opacity="0.2"/>
<path d="M-200.367 1045.98C-200.367 1217.35 -61.441 1356.28 109.933 1356.28C281.308 1356.28 420.234 1217.35 420.234 1045.98C420.234 874.603 281.308 735.676 109.933 735.676C-61.441 735.676 -200.367 874.603 -200.367 1045.98Z" fill="#9E00FF" fill-opacity="0.2"/>
<path d="M405.3 1545.63C523.693 1636.16 665.561 1649.53 722.17 1575.5C778.78 1501.46 728.694 1368.06 610.301 1277.53C491.908 1187 350.041 1173.63 293.431 1247.67C236.822 1321.7 286.907 1455.1 405.3 1545.63Z" fill="#FF72CF" fill-opacity="0.4"/>
<path d="M179.374 812.068C297.767 902.596 439.634 915.967 496.244 841.934C552.853 767.9 502.768 634.496 384.375 543.967C265.982 453.439 124.114 440.067 67.5045 514.101C10.895 588.135 60.9805 721.539 179.374 812.068Z" fill="#E61B1B" fill-opacity="0.1"/>
<path d="M364.45 1033.43C364.45 1204.8 503.376 1343.73 674.75 1343.73C846.125 1343.73 985.051 1204.8 985.051 1033.43C985.051 862.051 846.125 723.125 674.75 723.125C503.376 723.125 364.45 862.051 364.45 1033.43Z" fill="#FF5C00" fill-opacity="0.05"/>
<path d="M269.616 652.697C269.616 824.072 408.543 962.998 579.917 962.998C751.291 962.998 890.218 824.072 890.218 652.697C890.218 481.323 751.291 342.396 579.917 342.396C408.543 342.396 269.616 481.323 269.616 652.697Z" fill="#FFC700" fill-opacity="0.2"/>
</g>
</g>
<mask id="mask2_512_5603" style="mask-type:alpha" maskUnits="userSpaceOnUse" x="583" y="238" width="649" height="816">
<circle cx="734.229" cy="864.064" r="29.5349" transform="rotate(-180 734.229 864.064)" fill="#D9D9D9"/>
<path d="M728.886 464.303C728.886 446.672 714.593 432.379 696.963 432.379C696.963 450.01 711.255 464.303 728.886 464.303Z" fill="#D9D9D9"/>
<path d="M696.963 432.379C696.963 414.748 711.255 400.455 728.886 400.455C728.886 418.086 714.593 432.379 696.963 432.379Z" fill="#D9D9D9"/>
<path d="M696.963 432.379C696.963 414.748 682.67 400.455 665.039 400.455C665.039 418.078 679.318 432.366 696.938 432.379C679.318 432.392 665.039 446.68 665.039 464.303C682.67 464.303 696.963 450.01 696.963 432.379Z" fill="#D9D9D9"/>
<path d="M947.136 629.522C955.27 621.389 955.27 608.202 947.136 600.069C939.003 608.202 939.003 621.389 947.136 629.522Z" fill="#D9D9D9"/>
<path d="M947.136 600.069C955.27 591.936 968.456 591.936 976.589 600.069C968.456 608.202 955.27 608.202 947.136 600.069Z" fill="#D9D9D9"/>
<path d="M947.136 600.069C955.27 591.936 955.27 578.749 947.136 570.616C939.007 578.746 939.003 591.924 947.125 600.058C938.991 591.936 925.813 591.94 917.684 600.069C925.817 608.202 939.003 608.202 947.136 600.069Z" fill="#D9D9D9"/>
<path d="M871.697 831.529L862.021 812.756L843.248 803.08L862.021 793.404L871.697 774.631L881.373 793.404L900.146 803.08L881.373 812.756L871.697 831.529Z" fill="#D9D9D9"/>
<path fill-rule="evenodd" clip-rule="evenodd" d="M1155.79 381.082C1145.6 381.082 1137.33 389.249 1137.33 399.324C1137.33 409.399 1145.6 417.566 1155.79 417.566C1165.99 417.566 1174.25 409.399 1174.25 399.324C1174.25 389.249 1165.99 381.082 1155.79 381.082ZM1155.79 390.083C1150.63 390.083 1146.44 394.221 1146.44 399.324C1146.44 404.428 1150.63 408.565 1155.79 408.565C1160.96 408.565 1165.14 404.428 1165.14 399.324C1165.14 394.221 1160.96 390.083 1155.79 390.083Z" fill="#D9D9D9"/>
<path d="M1064.66 711.177L1079.53 696.303L1064.43 681.193L1079.5 666.113L1064.63 651.239L1049.56 666.318L1034.92 651.666L1020.05 666.54L1034.7 681.193L1020.02 695.876L1034.89 710.75L1049.56 696.067L1064.66 711.177Z" fill="#D9D9D9"/>
<path d="M1010.54 900L992.296 889.467V868.402L1010.54 857.869L1028.78 868.402V889.467L1010.54 900Z" fill="#D9D9D9"/>
<path d="M947.054 466.212L926.366 430.379H967.742L947.054 466.212Z" fill="#D9D9D9"/>
<path d="M1103.29 959.378L1057.32 959.378L1034.33 919.566L1057.32 879.754L1103.29 879.754L1126.27 919.566L1103.29 959.378Z" stroke="black" stroke-width="2"/>
<path d="M1134.58 579.57L1107.7 579.57L1094.25 556.286L1107.7 533.002L1134.58 533.002L1148.03 556.286L1134.58 579.57Z" stroke="black" stroke-width="2"/>
<path d="M664.405 772.593L647.289 772.593L638.73 757.769L647.289 742.946L664.405 742.946L672.964 757.769L664.405 772.593Z" stroke="black" stroke-width="2"/>
<path d="M685.988 721.943L708.973 682.131L754.944 682.131L777.929 721.943L754.944 761.755L708.973 761.755L685.988 721.943Z" stroke="black" stroke-width="2"/>
<path d="M806.088 863.603L769.942 926.21L697.649 926.21L661.502 863.603L697.649 800.995L769.942 800.995L806.088 863.603Z" stroke="black" stroke-width="2"/>
<path d="M761.128 362.313L784.113 322.501L830.084 322.501L853.069 362.313L830.084 402.124L784.113 402.124L761.128 362.313Z" stroke="black" stroke-width="2"/>
<path d="M1194.39 805.181L1123.21 805.181L1087.62 743.541L1123.21 681.9L1194.39 681.9L1229.97 743.541L1194.39 805.181Z" stroke="black" stroke-width="2"/>
<path d="M733.121 493.762L661.945 493.762L626.356 432.121L661.945 370.48L733.121 370.48L768.71 432.121L733.121 493.762Z" stroke="black" stroke-width="2"/>
<path d="M1178.43 438.174L1132.46 438.174L1109.47 398.362L1132.46 358.55L1178.43 358.55L1201.41 398.362L1178.43 438.174Z" stroke="black" stroke-width="2"/>
<path d="M726.753 577.84L700.382 577.84L687.196 555.002L700.382 532.164L726.753 532.164L739.939 555.002L726.753 577.84Z" stroke="black" stroke-width="2"/>
<path d="M825.914 802.73L848.899 762.918L894.87 762.918L917.855 802.73L894.87 842.541L848.899 842.541L825.914 802.73Z" stroke="black" stroke-width="2"/>
<path d="M901.054 443.099L924.039 403.287L970.01 403.287L992.996 443.099L970.01 482.911L924.039 482.911L901.054 443.099Z" stroke="black" stroke-width="2"/>
<path d="M963.939 960.502L987.344 919.964L1034.15 919.964L1057.56 960.502L1034.15 1001.04" stroke="black" stroke-width="2"/>
<path d="M1051.9 580.644L1065.83 556.522L1093.68 556.522L1107.61 580.644L1093.68 604.765" stroke="black" stroke-width="2"/>
<path d="M610.73 773.64L619.805 757.923L637.954 757.923L647.028 773.64L637.954 789.358" stroke="black" stroke-width="2"/>
<path d="M754.688 600.701L778.093 641.24L754.688 681.778L707.878 681.778L684.474 641.24" stroke="black" stroke-width="2"/>
<path d="M698.369 1053L661.891 989.818L698.369 926.637L771.325 926.637L807.803 989.818" stroke="black" stroke-width="2"/>
<path d="M829.828 241.071L853.233 281.609L829.828 322.148L783.019 322.148L759.614 281.609" stroke="black" stroke-width="2"/>
<path d="M875.043 940.968L846.979 940.968L832.946 916.663L846.979 892.359L875.043 892.359L889.076 916.663L875.043 940.968Z" stroke="black" stroke-width="2"/>
<path d="M969.947 639.707L923.976 639.707L900.991 599.895L923.976 560.083L969.947 560.083L992.932 599.895L969.947 639.707Z" stroke="black" stroke-width="2"/>
<path d="M755.623 521.413L778.608 481.601L824.579 481.601L847.564 521.413L824.579 561.225L778.608 561.225L755.623 521.413Z" stroke="black" stroke-width="2"/>
<path d="M822.152 442.519L836.924 416.933L866.468 416.933L881.24 442.519L866.468 468.105L836.924 468.105L822.152 442.519Z" stroke="black" stroke-width="2"/>
<path d="M1033.79 919.419L987.823 919.419L964.838 879.607L987.823 839.795L1033.79 839.795L1056.78 879.607L1033.79 919.419Z" stroke="black" stroke-width="2"/>
<path d="M1093.23 555.793L1066.35 555.793L1052.9 532.509L1066.35 509.225L1093.23 509.225L1106.68 532.509L1093.23 555.793Z" stroke="black" stroke-width="2"/>
<path d="M637.461 757.1L620.344 757.1L611.786 742.276L620.344 727.453L637.461 727.453L646.019 742.276L637.461 757.1Z" stroke="black" stroke-width="2"/>
<path d="M755.34 681.739L778.325 641.927L824.296 641.927L847.281 681.739L824.296 721.551L778.325 721.551L755.34 681.739Z" stroke="black" stroke-width="2"/>
<path d="M830.48 322.108L853.465 282.297L899.436 282.297L922.422 322.108L899.436 361.92L853.465 361.92L830.48 322.108Z" stroke="black" stroke-width="2"/>
<path d="M977.803 681.805L1013.97 744.446L1086.3 744.446L1122.47 681.805L1086.3 619.164" stroke="black" stroke-width="2"/>
<path d="M1037.52 359.272L1061.08 400.084L1108.21 400.084L1131.77 359.272L1108.21 318.46" stroke="black" stroke-width="2"/>
<path d="M644.688 532.17L658.451 556.008L685.977 556.008L699.74 532.17L685.977 508.331" stroke="black" stroke-width="2"/>
<path d="M964.699 720.151L917.574 720.151L894.011 760.963L917.574 801.774L964.699 801.774" stroke="black" stroke-width="2"/>
<path d="M1039.84 360.52L992.714 360.52L969.151 401.332L992.714 442.144L1039.84 442.144" stroke="black" stroke-width="2"/>
<path d="M918.132 916.192L890.067 916.192L876.035 891.887L890.067 867.583L918.132 867.583L932.164 891.887L918.132 916.192Z" stroke="black" stroke-width="2"/>
<path d="M1051.88 579.57L1025 579.57L1011.55 556.286L1025 533.002L1051.88 533.002L1065.32 556.286L1051.88 579.57Z" stroke="black" stroke-width="2"/>
<path d="M610.518 772.593L593.401 772.593L584.842 757.769L593.401 742.946L610.518 742.946L619.076 757.769L610.518 772.593Z" stroke="black" stroke-width="2"/>
<path d="M928.273 548.482L901.387 548.482L887.944 525.198L901.387 501.914L928.273 501.914L941.716 525.198L928.273 548.482Z" stroke="black" stroke-width="2"/>
<path d="M857.153 672.363L872.055 646.552L901.858 646.552L916.76 672.363L901.858 698.173L872.055 698.173L857.153 672.363Z" stroke="black" stroke-width="2"/>
<path d="M950.716 292.239L965.487 266.653L995.031 266.653L1009.8 292.239L995.031 317.824L965.487 317.824L950.716 292.239Z" stroke="black" stroke-width="2"/>
<path d="M1104.3 797.968L1057.17 797.968L1033.61 838.78L1057.17 879.592L1104.3 879.592" stroke="black" stroke-width="2"/>
<path d="M1135.42 483.931L1107.38 483.931L1093.36 508.215L1107.38 532.5L1135.42 532.5" stroke="black" stroke-width="2"/>
<path d="M665.151 710.623L646.879 710.623L637.744 726.446L646.879 742.27L665.151 742.27" stroke="black" stroke-width="2"/>
<path d="M825.267 803.524L848.83 762.713L825.267 721.901L778.141 721.901L754.579 762.713" stroke="black" stroke-width="2"/>
<path d="M900.407 443.894L923.97 403.082L900.407 362.27L853.282 362.27L829.719 403.082" stroke="black" stroke-width="2"/>
<circle cx="1057.81" cy="959.618" r="2.60602" transform="rotate(-180 1057.81 959.618)" fill="black"/>
<circle cx="1107.82" cy="580.225" r="1.52018" transform="rotate(-180 1107.82 580.225)" fill="black"/>
<circle cx="1094.08" cy="603.245" r="1.52018" transform="rotate(-180 1094.08 603.245)" fill="black"/>
<circle cx="647.145" cy="773.36" r="1.08584" transform="rotate(-180 647.145 773.36)" fill="black"/>
<circle cx="708.519" cy="682.438" r="2.60602" transform="rotate(-60 708.519 682.438)" fill="black"/>
<circle cx="684.195" cy="641.164" r="2.60602" transform="rotate(-60 684.195 641.164)" fill="black"/>
<circle cx="770.327" cy="925.174" r="4.06163" transform="rotate(120 770.327 925.174)" fill="black"/>
<circle cx="699.581" cy="926.706" r="4.06163" transform="rotate(120 699.581 926.706)" fill="black"/>
<circle cx="783.659" cy="322.807" r="2.60602" transform="rotate(-60 783.659 322.807)" fill="black"/>
<circle cx="1056.94" cy="798.914" r="2.60602" transform="rotate(-180 1056.94 798.914)" fill="black"/>
<circle cx="1034.36" cy="838.872" r="2.60602" transform="rotate(-180 1034.36 838.872)" fill="black"/>
<circle cx="1104.28" cy="798.914" r="2.60602" transform="rotate(-180 1104.28 798.914)" fill="black"/>
<circle cx="848.127" cy="762.038" r="2.60602" transform="rotate(-60 848.127 762.038)" fill="black"/>
<circle cx="923.267" cy="402.407" r="2.60602" transform="rotate(-60 923.267 402.407)" fill="black"/>
<circle cx="1034.36" cy="919.659" r="2.60602" transform="rotate(-180 1034.36 919.659)" fill="black"/>
<circle cx="1093.92" cy="556.336" r="1.52018" transform="rotate(-180 1093.92 556.336)" fill="black"/>
<circle cx="638.024" cy="757.724" r="1.08584" transform="rotate(-180 638.024 757.724)" fill="black"/>
<circle cx="754.851" cy="682.106" r="2.60602" transform="rotate(-60 754.851 682.106)" fill="black"/>
<circle cx="829.992" cy="322.475" r="2.60602" transform="rotate(-60 829.992 322.475)" fill="black"/>
<circle cx="1109.5" cy="399.324" r="2.60602" transform="rotate(-180 1109.5 399.324)" fill="black"/>
<circle cx="686.67" cy="555.468" r="1.52018" transform="rotate(-180 686.67 555.468)" fill="black"/>
<circle cx="894.026" cy="762.458" r="2.60602" transform="rotate(-60 894.026 762.458)" fill="black"/>
<circle cx="969.166" cy="402.827" r="2.60602" transform="rotate(-60 969.166 402.827)" fill="black"/>
<circle cx="987.447" cy="919.659" r="2.60602" transform="rotate(-180 987.447 919.659)" fill="black"/>
<ellipse cx="1065.9" cy="556.336" rx="1.73734" ry="1.52018" transform="rotate(-180 1065.9 556.336)" fill="black"/>
<circle cx="619.782" cy="757.724" r="1.08584" transform="rotate(-180 619.782 757.724)" fill="black"/>
<circle cx="778.305" cy="641.482" r="2.60602" transform="rotate(-60 778.305 641.482)" fill="black"/>
<circle cx="853.446" cy="281.851" r="2.60602" transform="rotate(-60 853.446 281.851)" fill="black"/>
<circle cx="1061.28" cy="400.193" r="2.60602" transform="rotate(-180 1061.28 400.193)" fill="black"/>
<circle cx="917.379" cy="720.271" r="2.60602" transform="rotate(-60 917.379 720.271)" fill="black"/>
<circle cx="992.519" cy="360.641" r="2.60602" transform="rotate(-60 992.519 360.641)" fill="black"/>
<circle cx="963.993" cy="959.618" r="2.60602" transform="rotate(-180 963.993 959.618)" fill="black"/>
<circle cx="1034.79" cy="998.274" r="2.60602" transform="rotate(-180 1034.79 998.274)" fill="black"/>
<circle cx="1051.79" cy="580.225" r="1.52018" transform="rotate(-180 1051.79 580.225)" fill="black"/>
<circle cx="610.661" cy="773.36" r="1.08584" transform="rotate(-180 610.661 773.36)" fill="black"/>
<circle cx="755.427" cy="601.191" r="2.60602" transform="rotate(-60 755.427 601.191)" fill="black"/>
<circle cx="830.567" cy="241.56" r="2.60602" transform="rotate(-60 830.567 241.56)" fill="black"/>
<circle cx="760.204" cy="281.968" r="2.60602" transform="rotate(-60 760.204 281.968)" fill="black"/>
<circle cx="963.993" cy="879.7" r="2.60602" transform="rotate(-180 963.993 879.7)" fill="black"/>
<circle cx="1051.79" cy="532.448" r="1.52018" transform="rotate(-180 1051.79 532.448)" fill="black"/>
<ellipse cx="610.661" cy="742.305" rx="1.08584" ry="0.868672" transform="rotate(-180 610.661 742.305)" fill="black"/>
<circle cx="824.638" cy="641.15" r="2.60602" transform="rotate(-60 824.638 641.15)" fill="black"/>
<circle cx="963.124" cy="720.299" r="2.60602" transform="rotate(-180 963.124 720.299)" fill="black"/>
<circle cx="1038.26" cy="360.668" r="2.60602" transform="rotate(-180 1038.26 360.668)" fill="black"/>
<circle cx="963.118" cy="720.098" r="2.60602" transform="rotate(-60 963.118 720.098)" fill="black"/>
<circle cx="963.908" cy="800.566" r="2.60602" transform="rotate(-60 963.908 800.566)" fill="black"/>
<circle cx="1038.26" cy="360.468" r="2.60602" transform="rotate(-60 1038.26 360.468)" fill="black"/>
<circle cx="1056.94" cy="879.7" r="2.60602" transform="rotate(-180 1056.94 879.7)" fill="black"/>
<circle cx="1107.38" cy="532.448" r="1.52018" transform="rotate(-180 1107.38 532.448)" fill="black"/>
<circle cx="646.928" cy="742.305" r="0.868672" transform="rotate(-180 646.928 742.305)" fill="black"/>
<circle cx="778.164" cy="721.644" r="2.60602" transform="rotate(-60 778.164 721.644)" fill="black"/>
<circle cx="853.304" cy="362.014" r="2.60602" transform="rotate(-60 853.304 362.014)" fill="black"/>
<circle cx="1122.31" cy="682.294" r="4.12619" transform="rotate(-180 1122.31 682.294)" fill="black"/>
<circle cx="1087.13" cy="743.97" r="4.12619" transform="rotate(-180 1087.13 743.97)" fill="black"/>
<circle cx="1084.96" cy="621.487" r="4.12619" transform="rotate(-180 1084.96 621.487)" fill="black"/>
<circle cx="976.806" cy="682.294" r="4.12619" transform="rotate(-180 976.806 682.294)" fill="black"/>
<circle cx="1131.65" cy="358.497" r="2.60602" transform="rotate(-180 1131.65 358.497)" fill="black"/>
<circle cx="1109.5" cy="319.406" r="2.60602" transform="rotate(-180 1109.5 319.406)" fill="black"/>
<circle cx="699.7" cy="531.579" r="1.52018" transform="rotate(-180 699.7 531.579)" fill="black"/>
<circle cx="918.308" cy="802.055" r="2.60602" transform="rotate(-60 918.308 802.055)" fill="black"/>
<circle cx="993.448" cy="442.425" r="2.60602" transform="rotate(-60 993.448 442.425)" fill="black"/>
<circle cx="1039.92" cy="441.369" r="2.60602" transform="rotate(-60 1039.92 441.369)" fill="black"/>
</mask>
<g mask="url(#mask2_512_5603)">
<g filter="url(#filter2_f_512_5603)">
<path d="M348.919 222.309C348.919 50.9345 487.846 -87.9918 659.22 -87.9918C830.594 -87.9918 969.521 50.9345 969.521 222.309C969.521 393.683 830.594 532.61 659.22 532.61C487.846 532.61 348.919 393.683 348.919 222.309Z" fill="#CC00FF" fill-opacity="0.2"/>
<path d="M319.633 762.023C319.633 590.649 458.559 451.722 629.933 451.722C801.308 451.722 940.234 590.649 940.234 762.023C940.234 933.397 801.308 1072.32 629.933 1072.32C458.559 1072.32 319.633 933.397 319.633 762.023Z" fill="#9E00FF" fill-opacity="0.2"/>
<path d="M925.3 262.368C1043.69 171.839 1185.56 158.468 1242.17 232.502C1298.78 306.536 1248.69 439.94 1130.3 530.468C1011.91 620.996 870.041 634.368 813.431 560.334C756.822 486.3 806.907 352.896 925.3 262.368Z" fill="#FF72CF" fill-opacity="0.4"/>
<path d="M699.374 995.932C817.767 905.404 959.634 892.033 1016.24 966.066C1072.85 1040.1 1022.77 1173.5 904.375 1264.03C785.982 1354.56 644.114 1367.93 587.505 1293.9C530.895 1219.87 580.981 1086.46 699.374 995.932Z" fill="#E61B1B" fill-opacity="0.1"/>
<path d="M884.45 774.574C884.45 603.2 1023.38 464.274 1194.75 464.274C1366.12 464.274 1505.05 603.2 1505.05 774.574C1505.05 945.949 1366.12 1084.88 1194.75 1084.88C1023.38 1084.88 884.45 945.949 884.45 774.574Z" fill="#FF5C00" fill-opacity="0.05"/>
<path d="M789.616 1155.3C789.616 983.928 928.543 845.002 1099.92 845.002C1271.29 845.002 1410.22 983.928 1410.22 1155.3C1410.22 1326.68 1271.29 1465.6 1099.92 1465.6C928.543 1465.6 789.616 1326.68 789.616 1155.3Z" fill="#FFC700" fill-opacity="0.2"/>
</g>
</g>
<mask id="mask3_512_5603" style="mask-type:alpha" maskUnits="userSpaceOnUse" x="1198" y="112" width="649" height="816">
<circle cx="1349.23" cy="738.064" r="29.5349" transform="rotate(180 1349.23 738.064)" fill="#D9D9D9"/>
<path d="M1344.89 337.303C1344.89 319.672 1330.59 305.379 1312.96 305.379C1312.96 323.01 1327.26 337.303 1344.89 337.303Z" fill="#D9D9D9"/>
<path d="M1312.96 305.379C1312.96 287.748 1327.26 273.455 1344.89 273.455C1344.89 291.086 1330.59 305.379 1312.96 305.379Z" fill="#D9D9D9"/>
<path d="M1312.96 305.379C1312.96 287.748 1298.67 273.455 1281.04 273.455C1281.04 291.078 1295.32 305.366 1312.94 305.379C1295.32 305.392 1281.04 319.68 1281.04 337.303C1298.67 337.303 1312.96 323.01 1312.96 305.379Z" fill="#D9D9D9"/>
<path d="M1279.41 646.593L1262.29 646.593L1253.73 631.769L1262.29 616.946L1279.41 616.946L1287.96 631.769L1279.41 646.593Z" stroke="black" stroke-width="2"/>
<path d="M1300.99 595.943L1323.97 556.131L1369.94 556.131L1392.93 595.943L1369.94 635.755L1323.97 635.755L1300.99 595.943Z" stroke="black" stroke-width="2"/>
<path d="M1421.09 737.603L1384.94 800.21L1312.65 800.21L1276.5 737.603L1312.65 674.995L1384.94 674.995L1421.09 737.603Z" stroke="black" stroke-width="2"/>
<path d="M1376.13 236.313L1399.11 196.501L1445.08 196.501L1468.07 236.313L1445.08 276.124L1399.11 276.124L1376.13 236.313Z" stroke="black" stroke-width="2"/>
<path d="M1348.12 367.762L1276.94 367.762L1241.36 306.121L1276.94 244.48L1348.12 244.48L1383.71 306.121L1348.12 367.762Z" stroke="black" stroke-width="2"/>
<path d="M1341.75 451.84L1315.38 451.84L1302.2 429.002L1315.38 406.164L1341.75 406.164L1354.94 429.002L1341.75 451.84Z" stroke="black" stroke-width="2"/>
<path d="M1440.91 676.73L1463.9 636.918L1509.87 636.918L1532.86 676.73L1509.87 716.541L1463.9 716.541L1440.91 676.73Z" stroke="black" stroke-width="2"/>
<path d="M1225.73 647.64L1234.8 631.923L1252.95 631.923L1262.03 647.64L1252.95 663.358" stroke="black" stroke-width="2"/>
<path d="M1369.69 474.701L1393.09 515.24L1369.69 555.778L1322.88 555.778L1299.47 515.24" stroke="black" stroke-width="2"/>
<path d="M1313.37 927L1276.89 863.818L1313.37 800.637L1386.32 800.637L1422.8 863.818" stroke="black" stroke-width="2"/>
<path d="M1444.83 115.071L1468.23 155.609L1444.83 196.148L1398.02 196.148L1374.61 155.609" stroke="black" stroke-width="2"/>
<path d="M1490.04 814.968L1461.98 814.968L1447.95 790.663L1461.98 766.359L1490.04 766.359L1504.08 790.663L1490.04 814.968Z" stroke="black" stroke-width="2"/>
<path d="M1370.62 395.413L1393.61 355.601L1439.58 355.601L1462.56 395.413L1439.58 435.225L1393.61 435.225L1370.62 395.413Z" stroke="black" stroke-width="2"/>
<path d="M1437.15 316.519L1451.92 290.933L1481.47 290.933L1496.24 316.519L1481.47 342.105L1451.92 342.105L1437.15 316.519Z" stroke="black" stroke-width="2"/>
<path d="M1252.46 631.1L1235.34 631.1L1226.79 616.276L1235.34 601.453L1252.46 601.453L1261.02 616.276L1252.46 631.1Z" stroke="black" stroke-width="2"/>
<path d="M1370.34 555.739L1393.33 515.927L1439.3 515.927L1462.28 555.739L1439.3 595.551L1393.33 595.551L1370.34 555.739Z" stroke="black" stroke-width="2"/>
<path d="M1445.48 196.108L1468.47 156.297L1514.44 156.297L1537.42 196.108L1514.44 235.92L1468.47 235.92L1445.48 196.108Z" stroke="black" stroke-width="2"/>
<path d="M1259.69 406.17L1273.45 430.008L1300.98 430.008L1314.74 406.17L1300.98 382.331" stroke="black" stroke-width="2"/>
<path d="M1225.52 646.593L1208.4 646.593L1199.84 631.769L1208.4 616.946L1225.52 616.946L1234.08 631.769L1225.52 646.593Z" stroke="black" stroke-width="2"/>
<path d="M1280.15 584.623L1261.88 584.623L1252.74 600.446L1261.88 616.27L1280.15 616.27" stroke="black" stroke-width="2"/>
<path d="M1440.27 677.524L1463.83 636.713L1440.27 595.901L1393.14 595.901L1369.58 636.713" stroke="black" stroke-width="2"/>
<path d="M1515.41 317.894L1538.97 277.082L1515.41 236.27L1468.28 236.27L1444.72 277.082" stroke="black" stroke-width="2"/>
<circle cx="1262.14" cy="647.36" r="1.08584" transform="rotate(180 1262.14 647.36)" fill="black"/>
<circle cx="1323.52" cy="556.438" r="2.60602" transform="rotate(-60 1323.52 556.438)" fill="black"/>
<circle cx="1299.2" cy="515.164" r="2.60602" transform="rotate(-60 1299.2 515.164)" fill="black"/>
<circle cx="1385.33" cy="799.174" r="4.06163" transform="rotate(120 1385.33 799.174)" fill="black"/>
<circle cx="1314.58" cy="800.706" r="4.06163" transform="rotate(120 1314.58 800.706)" fill="black"/>
<circle cx="1398.66" cy="196.807" r="2.60602" transform="rotate(-60 1398.66 196.807)" fill="black"/>
<circle cx="1253.02" cy="631.724" r="1.08584" transform="rotate(180 1253.02 631.724)" fill="black"/>
<circle cx="1369.85" cy="556.106" r="2.60602" transform="rotate(-60 1369.85 556.106)" fill="black"/>
<circle cx="1301.67" cy="429.468" r="1.52018" transform="rotate(180 1301.67 429.468)" fill="black"/>
<circle cx="1234.78" cy="631.724" r="1.08584" transform="rotate(180 1234.78 631.724)" fill="black"/>
<circle cx="1393.31" cy="515.482" r="2.60602" transform="rotate(-60 1393.31 515.482)" fill="black"/>
<circle cx="1225.66" cy="647.36" r="1.08584" transform="rotate(180 1225.66 647.36)" fill="black"/>
<circle cx="1370.43" cy="475.191" r="2.60602" transform="rotate(-60 1370.43 475.191)" fill="black"/>
<circle cx="1375.2" cy="155.968" r="2.60602" transform="rotate(-60 1375.2 155.968)" fill="black"/>
<ellipse cx="1225.66" cy="616.305" rx="1.08584" ry="0.868672" transform="rotate(180 1225.66 616.305)" fill="black"/>
<circle cx="1439.64" cy="515.15" r="2.60602" transform="rotate(-60 1439.64 515.15)" fill="black"/>
<circle cx="1261.93" cy="616.305" r="0.868672" transform="rotate(180 1261.93 616.305)" fill="black"/>
<circle cx="1393.16" cy="595.644" r="2.60602" transform="rotate(-60 1393.16 595.644)" fill="black"/>
<circle cx="1314.7" cy="405.579" r="1.52018" transform="rotate(180 1314.7 405.579)" fill="black"/>
</mask>
<g mask="url(#mask3_512_5603)">
<g filter="url(#filter3_f_512_5603)">
<path d="M963.919 96.3088C963.919 -75.0655 1102.85 -213.992 1274.22 -213.992C1445.59 -213.992 1584.52 -75.0655 1584.52 96.3088C1584.52 267.683 1445.59 406.61 1274.22 406.61C1102.85 406.61 963.919 267.683 963.919 96.3088Z" fill="#CC00FF" fill-opacity="0.2"/>
<path d="M934.633 636.023C934.633 464.649 1073.56 325.722 1244.93 325.722C1416.31 325.722 1555.23 464.649 1555.23 636.023C1555.23 807.397 1416.31 946.324 1244.93 946.324C1073.56 946.324 934.633 807.397 934.633 636.023Z" fill="#9E00FF" fill-opacity="0.2"/>
<path d="M1540.3 136.368C1658.69 45.8393 1800.56 32.4678 1857.17 106.502C1913.78 180.536 1863.69 313.94 1745.3 404.468C1626.91 494.996 1485.04 508.368 1428.43 434.334C1371.82 360.3 1421.91 226.896 1540.3 136.368Z" fill="#FF72CF" fill-opacity="0.4"/>
<path d="M1314.37 869.932C1432.77 779.404 1574.63 766.033 1631.24 840.066C1687.85 914.1 1637.77 1047.5 1519.37 1138.03C1400.98 1228.56 1259.11 1241.93 1202.5 1167.9C1145.9 1093.87 1195.98 960.461 1314.37 869.932Z" fill="#E61B1B" fill-opacity="0.1"/>
<path d="M1499.45 648.574C1499.45 477.2 1638.38 338.274 1809.75 338.274C1981.12 338.274 2120.05 477.2 2120.05 648.574C2120.05 819.949 1981.12 958.875 1809.75 958.875C1638.38 958.875 1499.45 819.949 1499.45 648.574Z" fill="#FF5C00" fill-opacity="0.05"/>
<path d="M1404.62 1029.3C1404.62 857.928 1543.54 719.002 1714.92 719.002C1886.29 719.002 2025.22 857.928 2025.22 1029.3C2025.22 1200.68 1886.29 1339.6 1714.92 1339.6C1543.54 1339.6 1404.62 1200.68 1404.62 1029.3Z" fill="#FFC700" fill-opacity="0.2"/>
</g>
</g>
<mask id="mask4_512_5603" style="mask-type:alpha" maskUnits="userSpaceOnUse" x="731" y="-574" width="648" height="816">
<path d="M1232.72 17.6973C1232.72 35.3282 1247.01 49.621 1264.64 49.621C1264.64 31.99 1250.35 17.6973 1232.72 17.6973Z" fill="#D9D9D9"/>
<path d="M1264.64 49.621C1264.64 67.252 1250.35 81.5447 1232.72 81.5447C1232.72 63.9137 1247.01 49.621 1264.64 49.621Z" fill="#D9D9D9"/>
<path d="M1264.64 49.621C1264.64 67.2519 1278.93 81.5447 1296.57 81.5447C1296.57 63.922 1282.29 49.6344 1264.67 49.621C1282.29 49.6076 1296.57 35.32 1296.57 17.6973C1278.93 17.6973 1264.64 31.99 1264.64 49.621Z" fill="#D9D9D9"/>
<path fill-rule="evenodd" clip-rule="evenodd" d="M806.811 98.9178C817.006 98.9178 825.271 90.7506 825.271 80.6757C825.271 70.6009 817.006 62.4336 806.811 62.4336C796.617 62.4336 788.352 70.6009 788.352 80.6757C788.352 90.7506 796.617 98.9178 806.811 98.9178ZM806.811 89.9168C811.976 89.9168 816.162 85.7794 816.162 80.6757C816.162 75.572 811.976 71.4346 806.811 71.4346C801.647 71.4346 797.46 75.572 797.46 80.6757C797.46 85.7794 801.647 89.9168 806.811 89.9168Z" fill="#D9D9D9"/>
<path d="M1015.55 13.7881L1036.24 49.6208H994.862L1015.55 13.7881Z" fill="#D9D9D9"/>
<path d="M1201.48 117.687L1178.49 157.499L1132.52 157.499L1109.54 117.687L1132.52 77.8755L1178.49 77.8755L1201.48 117.687Z" stroke="black" stroke-width="2"/>
<path d="M1229.48 -13.762L1300.66 -13.762L1336.25 47.8788L1300.66 109.52L1229.48 109.52L1193.89 47.8788L1229.48 -13.762Z" stroke="black" stroke-width="2"/>
<path d="M784.177 41.8259L830.147 41.8259L853.133 81.6378L830.147 121.45L784.177 121.45L761.191 81.6378L784.177 41.8259Z" stroke="black" stroke-width="2"/>
<path d="M1061.55 36.9013L1038.57 76.7131L992.594 76.7131L969.609 36.9013L992.594 -2.91059L1038.57 -2.91059L1061.55 36.9013Z" stroke="black" stroke-width="2"/>
<path d="M1132.78 238.929L1109.37 198.391L1132.78 157.852L1179.59 157.852L1202.99 198.391" stroke="black" stroke-width="2"/>
<path d="M1206.98 -41.4132L1184 -1.60132L1138.03 -1.60133L1115.04 -41.4132L1138.03 -81.225L1184 -81.225L1206.98 -41.4132Z" stroke="black" stroke-width="2"/>
<path d="M1140.45 37.4809L1125.68 63.0665L1096.14 63.0665L1081.36 37.4809L1096.14 11.8952L1125.68 11.8953L1140.45 37.4809Z" stroke="black" stroke-width="2"/>
<path d="M1132.12 157.892L1109.14 197.703L1063.17 197.703L1040.18 157.892L1063.17 118.08L1109.14 118.08L1132.12 157.892Z" stroke="black" stroke-width="2"/>
<path d="M925.084 120.728L901.521 79.9162L854.396 79.9162L830.833 120.728L854.396 161.54" stroke="black" stroke-width="2"/>
<path d="M922.765 119.48L969.891 119.48L993.453 78.6678L969.891 37.8559L922.765 37.8559" stroke="black" stroke-width="2"/>
<path d="M1011.89 187.761L997.117 213.347L967.573 213.347L952.801 187.761L967.573 162.176L997.117 162.176L1011.89 187.761Z" stroke="black" stroke-width="2"/>
<path d="M827.186 -3.93117L855.227 -3.93117L869.247 -28.2153L855.227 -52.4995L827.186 -52.4995" stroke="black" stroke-width="2"/>
<path d="M1062.2 36.1059L1038.63 76.9178L1062.2 117.73L1109.32 117.73L1132.89 76.9178" stroke="black" stroke-width="2"/>
<circle cx="1178.95" cy="157.193" r="2.60602" transform="rotate(120 1178.95 157.193)" fill="black"/>
<circle cx="1039.34" cy="77.5925" r="2.60602" transform="rotate(120 1039.34 77.5925)" fill="black"/>
<circle cx="1132.61" cy="157.525" r="2.60602" transform="rotate(120 1132.61 157.525)" fill="black"/>
<circle cx="853.109" cy="80.6758" r="2.60602" fill="black"/>
<circle cx="993.439" cy="77.1726" r="2.60602" transform="rotate(120 993.439 77.1726)" fill="black"/>
<circle cx="1109.16" cy="198.149" r="2.60602" transform="rotate(120 1109.16 198.149)" fill="black"/>
<circle cx="901.32" cy="79.8072" r="2.60602" fill="black"/>
<circle cx="970.086" cy="119.359" r="2.60602" transform="rotate(120 970.086 119.359)" fill="black"/>
<circle cx="1132.04" cy="238.44" r="2.60602" transform="rotate(120 1132.04 238.44)" fill="black"/>
<circle cx="1202.4" cy="198.032" r="2.60602" transform="rotate(120 1202.4 198.032)" fill="black"/>
<circle cx="924.34" cy="119.332" r="2.60602" fill="black"/>
<circle cx="924.346" cy="119.532" r="2.60602" transform="rotate(120 924.346 119.532)" fill="black"/>
<circle cx="1109.3" cy="117.986" r="2.60602" transform="rotate(120 1109.3 117.986)" fill="black"/>
<circle cx="830.958" cy="121.503" r="2.60602" fill="black"/>
<circle cx="853.109" cy="160.594" r="2.60602" fill="black"/>
<circle cx="969.157" cy="37.575" r="2.60602" transform="rotate(120 969.157 37.575)" fill="black"/>
<circle cx="922.688" cy="38.6306" r="2.60602" transform="rotate(120 922.688 38.6306)" fill="black"/>
</mask>
<g mask="url(#mask4_512_5603)">
<g filter="url(#filter4_f_512_5603)">
<path d="M1613.69 257.691C1613.69 429.065 1474.76 567.992 1303.38 567.992C1132.01 567.992 993.084 429.065 993.084 257.691C993.084 86.3168 1132.01 -52.6096 1303.38 -52.6096C1474.76 -52.6096 1613.69 86.3168 1613.69 257.691Z" fill="#CC00FF" fill-opacity="0.2"/>
<path d="M1642.97 -282.023C1642.97 -110.649 1504.05 28.2778 1332.67 28.2778C1161.3 28.2778 1022.37 -110.649 1022.37 -282.023C1022.37 -453.397 1161.3 -592.324 1332.67 -592.324C1504.05 -592.324 1642.97 -453.397 1642.97 -282.023Z" fill="#9E00FF" fill-opacity="0.2"/>
<path d="M1037.3 217.632C918.911 308.161 777.044 321.532 720.434 247.498C663.825 173.464 713.91 40.0603 832.303 -50.4681C950.696 -140.996 1092.56 -154.368 1149.17 -80.3342C1205.78 -6.30029 1155.7 127.104 1037.3 217.632Z" fill="#FF72CF" fill-opacity="0.4"/>
<path d="M1263.23 -515.932C1144.84 -425.404 1002.97 -412.033 946.361 -486.066C889.751 -560.1 939.837 -693.504 1058.23 -784.033C1176.62 -874.561 1318.49 -887.933 1375.1 -813.899C1431.71 -739.865 1381.62 -606.461 1263.23 -515.932Z" fill="#E61B1B" fill-opacity="0.1"/>
<path d="M1078.15 -294.574C1078.15 -123.2 939.228 15.7263 767.854 15.7263C596.48 15.7263 457.553 -123.2 457.553 -294.574C457.553 -465.949 596.48 -604.875 767.854 -604.875C939.228 -604.875 1078.15 -465.949 1078.15 -294.574Z" fill="#FF5C00" fill-opacity="0.05"/>
<path d="M1172.99 -675.303C1172.99 -503.928 1034.06 -365.002 862.688 -365.002C691.313 -365.002 552.387 -503.928 552.387 -675.303C552.387 -846.677 691.313 -985.604 862.688 -985.604C1034.06 -985.604 1172.99 -846.677 1172.99 -675.303Z" fill="#FFC700" fill-opacity="0.2"/>
</g>
</g>
</g>
<defs>
<filter id="filter0_f_512_5603" x="-447.447" y="-612.604" width="1585.42" height="1953.6" filterUnits="userSpaceOnUse" color-interpolation-filters="sRGB">
<feFlood flood-opacity="0" result="BackgroundImageFix"/>
<feBlend mode="normal" in="SourceGraphic" in2="BackgroundImageFix" result="shape"/>
<feGaussianBlur stdDeviation="100" result="effect1_foregroundBlur_512_5603"/>
</filter>
<filter id="filter1_f_512_5603" x="-400.367" y="142.396" width="1585.42" height="1953.6" filterUnits="userSpaceOnUse" color-interpolation-filters="sRGB">
<feFlood flood-opacity="0" result="BackgroundImageFix"/>
<feBlend mode="normal" in="SourceGraphic" in2="BackgroundImageFix" result="shape"/>
<feGaussianBlur stdDeviation="100" result="effect1_foregroundBlur_512_5603"/>
</filter>
<filter id="filter2_f_512_5603" x="119.633" y="-287.992" width="1585.42" height="1953.6" filterUnits="userSpaceOnUse" color-interpolation-filters="sRGB">
<feFlood flood-opacity="0" result="BackgroundImageFix"/>
<feBlend mode="normal" in="SourceGraphic" in2="BackgroundImageFix" result="shape"/>
<feGaussianBlur stdDeviation="100" result="effect1_foregroundBlur_512_5603"/>
</filter>
<filter id="filter3_f_512_5603" x="734.633" y="-413.992" width="1585.42" height="1953.6" filterUnits="userSpaceOnUse" color-interpolation-filters="sRGB">
<feFlood flood-opacity="0" result="BackgroundImageFix"/>
<feBlend mode="normal" in="SourceGraphic" in2="BackgroundImageFix" result="shape"/>
<feGaussianBlur stdDeviation="100" result="effect1_foregroundBlur_512_5603"/>
</filter>
<filter id="filter4_f_512_5603" x="257.553" y="-1185.6" width="1585.42" height="1953.6" filterUnits="userSpaceOnUse" color-interpolation-filters="sRGB">
<feFlood flood-opacity="0" result="BackgroundImageFix"/>
<feBlend mode="normal" in="SourceGraphic" in2="BackgroundImageFix" result="shape"/>
<feGaussianBlur stdDeviation="100" result="effect1_foregroundBlur_512_5603"/>
</filter>
<clipPath id="clip0_512_5603">
<rect width="1440" height="1024" fill="white"/>
</clipPath>
</defs>
</svg>
