<svg xmlns="http://www.w3.org/2000/svg" width="636" height="629" fill="none"><g clip-path="url(#a)"><path fill="url(#b)" d="M81.773 524H56.389v-74.909h25.896c7.437 0 13.826 1.5 19.166 4.499 5.365 2.975 9.486 7.254 12.363 12.838 2.877 5.584 4.316 12.266 4.316 20.044 0 7.803-1.451 14.509-4.353 20.117-2.877 5.609-7.035 9.913-12.472 12.912C95.891 522.5 89.381 524 81.773 524Zm-11.814-11.741h11.155c5.219 0 9.571-.951 13.058-2.853 3.487-1.926 6.109-4.792 7.864-8.596 1.756-3.828 2.634-8.607 2.634-14.338 0-5.73-.878-10.485-2.634-14.265-1.755-3.804-4.352-6.644-7.79-8.522-3.414-1.902-7.657-2.853-12.73-2.853H69.959v51.427Zm84.985 12.838c-5.486 0-10.241-1.207-14.264-3.621-4.024-2.414-7.145-5.791-9.364-10.132-2.195-4.34-3.292-9.412-3.292-15.215 0-5.804 1.097-10.888 3.292-15.253 2.219-4.365 5.34-7.754 9.364-10.168 4.023-2.414 8.778-3.621 14.264-3.621 5.487 0 10.242 1.207 14.265 3.621 4.024 2.414 7.133 5.803 9.327 10.168 2.219 4.365 3.329 9.449 3.329 15.253 0 5.803-1.11 10.875-3.329 15.215-2.194 4.341-5.303 7.718-9.327 10.132-4.023 2.414-8.778 3.621-14.265 3.621Zm.074-10.607c2.974 0 5.462-.817 7.461-2.451 2-1.658 3.487-3.877 4.463-6.657.999-2.779 1.499-5.876 1.499-9.29 0-3.438-.5-6.547-1.499-9.327-.976-2.804-2.463-5.035-4.463-6.694-1.999-1.658-4.487-2.487-7.461-2.487-3.048 0-5.584.829-7.608 2.487-2 1.659-3.5 3.89-4.499 6.694-.976 2.78-1.463 5.889-1.463 9.327 0 3.414.487 6.511 1.463 9.29.999 2.78 2.499 4.999 4.499 6.657 2.024 1.634 4.56 2.451 7.608 2.451Zm58.934 10.498c-4.414 0-8.364-1.134-11.851-3.402-3.487-2.268-6.242-5.56-8.266-9.876s-3.036-9.558-3.036-15.728c0-6.242 1.024-11.509 3.072-15.801 2.073-4.316 4.865-7.571 8.376-9.766 3.512-2.219 7.425-3.328 11.741-3.328 3.292 0 5.999.56 8.12 1.682 2.122 1.097 3.804 2.426 5.048 3.987 1.244 1.536 2.207 2.987 2.89 4.353h.548v-28.018h13.278V524H230.85v-8.852h-.804c-.683 1.366-1.671 2.817-2.963 4.353-1.293 1.512-2.999 2.804-5.121 3.877-2.121 1.073-4.791 1.61-8.01 1.61Zm3.694-10.864c2.804 0 5.194-.756 7.169-2.267 1.975-1.537 3.475-3.67 4.499-6.401 1.024-2.731 1.536-5.914 1.536-9.547 0-3.633-.512-6.791-1.536-9.473-1-2.683-2.487-4.767-4.462-6.255-1.951-1.487-4.353-2.231-7.206-2.231-2.95 0-5.413.768-7.388 2.304-1.976 1.536-3.463 3.658-4.463 6.365-1 2.706-1.499 5.803-1.499 9.29 0 3.511.499 6.645 1.499 9.4 1.024 2.731 2.524 4.889 4.499 6.474 2 1.561 4.45 2.341 7.352 2.341Zm56.502 11.01c-3.56 0-6.767-.634-9.62-1.902-2.828-1.292-5.072-3.194-6.73-5.706-1.634-2.512-2.451-5.609-2.451-9.291 0-3.17.586-5.791 1.756-7.864a13.6 13.6 0 0 1 4.792-4.974c2.024-1.244 4.304-2.182 6.84-2.816a55.582 55.582 0 0 1 7.937-1.427c3.292-.341 5.962-.646 8.01-.914 2.048-.293 3.536-.732 4.462-1.317.951-.61 1.427-1.548 1.427-2.816v-.22c0-2.755-.817-4.889-2.451-6.401-1.634-1.512-3.987-2.268-7.059-2.268-3.243 0-5.816.708-7.718 2.122-1.877 1.414-3.145 3.084-3.804 5.011l-12.363-1.756c.976-3.414 2.585-6.267 4.828-8.559 2.244-2.316 4.987-4.048 8.23-5.194 3.243-1.17 6.828-1.755 10.754-1.755 2.706 0 5.401.317 8.083.951 2.682.634 5.133 1.682 7.352 3.145 2.219 1.439 3.999 3.402 5.34 5.889 1.366 2.487 2.049 5.596 2.049 9.327V524h-12.729v-7.718h-.439c-.805 1.561-1.939 3.024-3.402 4.39-1.438 1.341-3.255 2.426-5.45 3.255-2.17.805-4.718 1.207-7.644 1.207Zm3.438-9.73c2.658 0 4.962-.524 6.913-1.572 1.951-1.073 3.451-2.488 4.499-4.243a10.808 10.808 0 0 0 1.609-5.743v-6.62c-.414.341-1.121.658-2.121.951-.975.292-2.073.548-3.292.768-1.219.219-2.426.414-3.621.585-1.195.171-2.231.317-3.109.439-1.975.268-3.743.707-5.304 1.317-1.56.609-2.792 1.463-3.694 2.56-.902 1.073-1.353 2.463-1.353 4.17 0 2.438.89 4.279 2.67 5.523 1.78 1.244 4.048 1.865 6.803 1.865Zm64.046 9.693c-5.487 0-10.242-1.207-14.265-3.621-4.023-2.414-7.145-5.791-9.364-10.132-2.194-4.34-3.292-9.412-3.292-15.215 0-5.804 1.098-10.888 3.292-15.253 2.219-4.365 5.341-7.754 9.364-10.168 4.023-2.414 8.778-3.621 14.265-3.621 5.486 0 10.241 1.207 14.265 3.621 4.023 2.414 7.132 5.803 9.327 10.168 2.219 4.365 3.328 9.449 3.328 15.253 0 5.803-1.109 10.875-3.328 15.215-2.195 4.341-5.304 7.718-9.327 10.132-4.024 2.414-8.779 3.621-14.265 3.621Zm.073-10.607c2.975 0 5.462-.817 7.462-2.451 1.999-1.658 3.487-3.877 4.462-6.657 1-2.779 1.5-5.876 1.5-9.29 0-3.438-.5-6.547-1.5-9.327-.975-2.804-2.463-5.035-4.462-6.694-2-1.658-4.487-2.487-7.462-2.487-3.048 0-5.584.829-7.608 2.487-1.999 1.659-3.499 3.89-4.499 6.694-.975 2.78-1.463 5.889-1.463 9.327 0 3.414.488 6.511 1.463 9.29 1 2.78 2.5 4.999 4.499 6.657 2.024 1.634 4.56 2.451 7.608 2.451Zm46.242 10.315c-2.219 0-4.121-.781-5.706-2.341-1.585-1.561-2.365-3.463-2.341-5.706-.024-2.195.756-4.072 2.341-5.633 1.585-1.561 3.487-2.341 5.706-2.341 2.146 0 4.011.78 5.596 2.341 1.61 1.561 2.427 3.438 2.451 5.633-.024 1.487-.414 2.841-1.17 4.06a8.41 8.41 0 0 1-2.927 2.926c-1.194.707-2.511 1.061-3.95 1.061Zm42.566.183c-4.413 0-8.364-1.134-11.851-3.402-3.487-2.268-6.242-5.56-8.266-9.876s-3.036-9.558-3.036-15.728c0-6.242 1.024-11.509 3.073-15.801 2.072-4.316 4.864-7.571 8.376-9.766 3.511-2.219 7.425-3.328 11.741-3.328 3.292 0 5.998.56 8.12 1.682 2.121 1.097 3.804 2.426 5.048 3.987 1.243 1.536 2.206 2.987 2.889 4.353h.549v-28.018h13.277V524h-13.021v-8.852h-.805c-.683 1.366-1.67 2.817-2.963 4.353-1.292 1.512-2.999 2.804-5.12 3.877-2.122 1.073-4.792 1.61-8.011 1.61Zm3.695-10.864c2.804 0 5.193-.756 7.169-2.267 1.975-1.537 3.474-3.67 4.499-6.401 1.024-2.731 1.536-5.914 1.536-9.547 0-3.633-.512-6.791-1.536-9.473-1-2.683-2.488-4.767-4.463-6.255-1.951-1.487-4.352-2.231-7.205-2.231-2.951 0-5.414.768-7.389 2.304-1.975 1.536-3.463 3.658-4.462 6.365-1 2.706-1.5 5.803-1.5 9.29 0 3.511.5 6.645 1.5 9.4 1.024 2.731 2.524 4.889 4.499 6.474 1.999 1.561 4.45 2.341 7.352 2.341Zm65.207 10.973c-5.633 0-10.498-1.17-14.594-3.511-4.073-2.365-7.206-5.706-9.401-10.022-2.194-4.341-3.292-9.449-3.292-15.326 0-5.779 1.098-10.851 3.292-15.216 2.219-4.389 5.316-7.803 9.291-10.241 3.975-2.463 8.644-3.694 14.009-3.694 3.462 0 6.73.56 9.802 1.682a22.141 22.141 0 0 1 8.193 5.121c2.39 2.316 4.268 5.267 5.633 8.851 1.366 3.561 2.049 7.804 2.049 12.729v4.06h-46.05v-8.925h33.357c-.024-2.536-.573-4.791-1.645-6.766-1.073-2-2.573-3.573-4.499-4.719-1.902-1.146-4.121-1.719-6.657-1.719-2.707 0-5.085.659-7.133 1.975a13.618 13.618 0 0 0-4.791 5.121c-1.122 2.097-1.695 4.402-1.72 6.913v7.791c0 3.268.598 6.072 1.793 8.413 1.195 2.316 2.865 4.096 5.011 5.34 2.146 1.219 4.657 1.829 7.535 1.829 1.926 0 3.669-.269 5.23-.805 1.561-.561 2.914-1.378 4.06-2.451 1.146-1.073 2.012-2.402 2.597-3.987l12.363 1.39c-.78 3.268-2.268 6.121-4.462 8.559-2.171 2.414-4.95 4.292-8.34 5.633-3.389 1.317-7.266 1.975-11.631 1.975Zm84.757-57.279L564.165 524h-14.631l-20.008-56.182h14.119l12.912 41.734h.585l12.948-41.734h14.082Z"/><mask id="c" width="274" height="327" x="181" y="81" maskUnits="userSpaceOnUse" style="mask-type:alpha"><path fill="#D9D9D9" d="m454.9 81-81.4 58.5H262.4L181 81c8 31 12.3 63.5 12.3 96.9 0 20-1.5 39.7-4.5 58.9l36 47.1c5.5 5.5 8.9 13.2 8.9 21.6 0 10.5-5.3 19.7-13.4 25.2l19.5 37.2 78 40v.1h.2v-.1l78-40 19.5-37.2c-8.1-5.5-13.4-14.7-13.4-25.2 0-8.4 3.4-16.1 8.9-21.6l36-47.1c-2.9-19.2-4.5-38.9-4.5-58.9.1-33.5 4.4-65.9 12.4-96.9ZM275.5 274.4c-.9.6-1.8 1-2.8 1.1-.6.2-1.1.3-1.8.4-14.2 2.5-23.8-3.6-27.9-6.4-.3-.2-.7-.5-1-.7-.1-.1-.2-.2-.3-.2-4.4-3-16.4-18.7-16.4-18.7-.1-.2-.3-.3-.4-.5-.9-1.3-1.3-2.8-1.2-4.2.1-2.3 1.2-4.6 3.3-6 .5-.3 1-.6 1.6-.8.2-.1.3-.1.5-.2.1 0 .3-.1.4-.1.1 0 .3-.1.4-.1H230.5c15.7-1.7 24.1 1.3 24.1 1.3.1 0 .2 0 .2.1 1.3.2 2.6.6 3.8 1.1 10.5 4.2 16.4 15.8 16.4 15.8s3.8 5.9 3.9 11.3c0 2.6-1.1 5.3-3.4 6.8Zm58.4 47.4c-.1 1.3-.6 2.4-1.4 3.3l-11.1 11.1-.2.2-.2.2v5.6c0 1.8-1.5 3.3-3.3 3.3-1.8 0-3.3-1.5-3.3-3.3v-5.6l-.2-.2-.2-.2-11.2-11.2c-.8-.8-1.3-2-1.4-3.2V321.5c0-2.8 2.3-5.1 5.1-5.1h22.6c2.8 0 5.1 2.3 5.1 5.1-.2.1-.3.2-.3.3Z"/></mask><g mask="url(#c)"><g filter="url(#d)"><circle cx="468.5" cy="326.5" r="150.5" fill="#F75D21"/></g><g filter="url(#e)"><circle cx="317.5" cy="238.5" r="150.5" fill="#F75D21"/></g><g filter="url(#f)"><circle cx="503" cy="225" r="98" fill="#E44B0F"/></g><g filter="url(#g)"><circle cx="468.5" cy="25.5" r="150.5" fill="#F96A89"/></g><g filter="url(#h)"><circle cx="167.5" cy="213.5" r="150.5" fill="#FFD848"/></g><g filter="url(#i)"><circle cx="185.5" cy="-79.5" r="150.5" fill="#FFC700"/></g><g filter="url(#j)"><circle cx="210.5" cy="505.5" r="150.5" fill="#60C6FF"/></g></g></g><defs><filter id="d" width="501" height="501" x="218" y="76" color-interpolation-filters="sRGB" filterUnits="userSpaceOnUse"><feFlood flood-opacity="0" result="BackgroundImageFix"/><feBlend in="SourceGraphic" in2="BackgroundImageFix" result="shape"/><feGaussianBlur result="effect1_foregroundBlur_207_4148" stdDeviation="50"/></filter><filter id="e" width="501" height="501" x="67" y="-12" color-interpolation-filters="sRGB" filterUnits="userSpaceOnUse"><feFlood flood-opacity="0" result="BackgroundImageFix"/><feBlend in="SourceGraphic" in2="BackgroundImageFix" result="shape"/><feGaussianBlur result="effect1_foregroundBlur_207_4148" stdDeviation="50"/></filter><filter id="f" width="396" height="396" x="305" y="27" color-interpolation-filters="sRGB" filterUnits="userSpaceOnUse"><feFlood flood-opacity="0" result="BackgroundImageFix"/><feBlend in="SourceGraphic" in2="BackgroundImageFix" result="shape"/><feGaussianBlur result="effect1_foregroundBlur_207_4148" stdDeviation="50"/></filter><filter id="g" width="501" height="501" x="218" y="-225" color-interpolation-filters="sRGB" filterUnits="userSpaceOnUse"><feFlood flood-opacity="0" result="BackgroundImageFix"/><feBlend in="SourceGraphic" in2="BackgroundImageFix" result="shape"/><feGaussianBlur result="effect1_foregroundBlur_207_4148" stdDeviation="50"/></filter><filter id="h" width="501" height="501" x="-83" y="-37" color-interpolation-filters="sRGB" filterUnits="userSpaceOnUse"><feFlood flood-opacity="0" result="BackgroundImageFix"/><feBlend in="SourceGraphic" in2="BackgroundImageFix" result="shape"/><feGaussianBlur result="effect1_foregroundBlur_207_4148" stdDeviation="50"/></filter><filter id="i" width="501" height="501" x="-65" y="-330" color-interpolation-filters="sRGB" filterUnits="userSpaceOnUse"><feFlood flood-opacity="0" result="BackgroundImageFix"/><feBlend in="SourceGraphic" in2="BackgroundImageFix" result="shape"/><feGaussianBlur result="effect1_foregroundBlur_207_4148" stdDeviation="50"/></filter><filter id="j" width="501" height="501" x="-40" y="255" color-interpolation-filters="sRGB" filterUnits="userSpaceOnUse"><feFlood flood-opacity="0" result="BackgroundImageFix"/><feBlend in="SourceGraphic" in2="BackgroundImageFix" result="shape"/><feGaussianBlur result="effect1_foregroundBlur_207_4148" stdDeviation="50"/></filter><linearGradient id="b" x1="93.833" x2="526.835" y1="424" y2="514.983" gradientUnits="userSpaceOnUse"><stop stop-color="#FFC700"/><stop offset=".482" stop-color="#FF5C00"/><stop offset="1" stop-color="#F62BAD"/></linearGradient><clipPath id="a"><path fill="#fff" d="M0 0h636v629H0z"/></clipPath></defs></svg>