<svg width="636" height="629" viewBox="0 0 636 629" fill="none" xmlns="http://www.w3.org/2000/svg">
<g clip-path="url(#clip0_207_4148)">
<path d="M81.7727 524H56.3885V449.091H82.2848C89.7221 449.091 96.1108 450.591 101.451 453.59C106.816 456.565 110.937 460.844 113.814 466.428C116.691 472.012 118.13 478.694 118.13 486.472C118.13 494.275 116.679 500.981 113.777 506.589C110.9 512.198 106.742 516.502 101.305 519.501C95.8913 522.5 89.3807 524 81.7727 524ZM69.9585 512.259H81.1143C86.3326 512.259 90.6853 511.308 94.1722 509.406C97.6592 507.48 100.281 504.614 102.036 500.81C103.792 496.982 104.67 492.203 104.67 486.472C104.67 480.742 103.792 475.987 102.036 472.207C100.281 468.403 97.6836 465.563 94.2454 463.685C90.8316 461.783 86.5887 460.832 81.5167 460.832H69.9585V512.259ZM154.944 525.097C149.458 525.097 144.703 523.89 140.68 521.476C136.656 519.062 133.535 515.685 131.316 511.344C129.121 507.004 128.024 501.932 128.024 496.129C128.024 490.325 129.121 485.241 131.316 480.876C133.535 476.511 136.656 473.122 140.68 470.708C144.703 468.294 149.458 467.087 154.944 467.087C160.431 467.087 165.186 468.294 169.209 470.708C173.233 473.122 176.342 476.511 178.536 480.876C180.755 485.241 181.865 490.325 181.865 496.129C181.865 501.932 180.755 507.004 178.536 511.344C176.342 515.685 173.233 519.062 169.209 521.476C165.186 523.89 160.431 525.097 154.944 525.097ZM155.018 514.49C157.992 514.49 160.48 513.673 162.479 512.039C164.479 510.381 165.966 508.162 166.942 505.382C167.941 502.603 168.441 499.506 168.441 496.092C168.441 492.654 167.941 489.545 166.942 486.765C165.966 483.961 164.479 481.73 162.479 480.071C160.48 478.413 157.992 477.584 155.018 477.584C151.97 477.584 149.434 478.413 147.41 480.071C145.41 481.73 143.91 483.961 142.911 486.765C141.935 489.545 141.448 492.654 141.448 496.092C141.448 499.506 141.935 502.603 142.911 505.382C143.91 508.162 145.41 510.381 147.41 512.039C149.434 513.673 151.97 514.49 155.018 514.49ZM213.952 524.988C209.538 524.988 205.588 523.854 202.101 521.586C198.614 519.318 195.859 516.026 193.835 511.71C191.811 507.394 190.799 502.152 190.799 495.982C190.799 489.74 191.823 484.473 193.871 480.181C195.944 475.865 198.736 472.61 202.247 470.415C205.759 468.196 209.672 467.087 213.988 467.087C217.28 467.087 219.987 467.647 222.108 468.769C224.23 469.866 225.912 471.195 227.156 472.756C228.4 474.292 229.363 475.743 230.046 477.109H230.594V449.091H243.872V524H230.85V515.148H230.046C229.363 516.514 228.375 517.965 227.083 519.501C225.79 521.013 224.084 522.305 221.962 523.378C219.841 524.451 217.171 524.988 213.952 524.988ZM217.646 514.124C220.45 514.124 222.84 513.368 224.815 511.857C226.79 510.32 228.29 508.187 229.314 505.456C230.338 502.725 230.85 499.542 230.85 495.909C230.85 492.276 230.338 489.118 229.314 486.436C228.314 483.753 226.827 481.669 224.852 480.181C222.901 478.694 220.499 477.95 217.646 477.95C214.696 477.95 212.233 478.718 210.258 480.254C208.282 481.79 206.795 483.912 205.795 486.619C204.795 489.325 204.296 492.422 204.296 495.909C204.296 499.42 204.795 502.554 205.795 505.309C206.819 508.04 208.319 510.198 210.294 511.783C212.294 513.344 214.744 514.124 217.646 514.124ZM274.148 525.134C270.588 525.134 267.381 524.5 264.528 523.232C261.7 521.94 259.456 520.038 257.798 517.526C256.164 515.014 255.347 511.917 255.347 508.235C255.347 505.065 255.933 502.444 257.103 500.371C258.274 498.299 259.871 496.641 261.895 495.397C263.919 494.153 266.199 493.215 268.735 492.581C271.295 491.922 273.941 491.447 276.672 491.154C279.964 490.813 282.634 490.508 284.682 490.24C286.73 489.947 288.218 489.508 289.144 488.923C290.095 488.313 290.571 487.375 290.571 486.107V485.887C290.571 483.132 289.754 480.998 288.12 479.486C286.486 477.974 284.133 477.218 281.061 477.218C277.818 477.218 275.245 477.926 273.343 479.34C271.466 480.754 270.198 482.424 269.539 484.351L257.176 482.595C258.152 479.181 259.761 476.328 262.004 474.036C264.248 471.72 266.991 469.988 270.234 468.842C273.477 467.672 277.062 467.087 280.988 467.087C283.694 467.087 286.389 467.404 289.071 468.038C291.753 468.672 294.204 469.72 296.423 471.183C298.642 472.622 300.422 474.585 301.763 477.072C303.129 479.559 303.812 482.668 303.812 486.399V524H291.083V516.282H290.644C289.839 517.843 288.705 519.306 287.242 520.672C285.804 522.013 283.987 523.098 281.792 523.927C279.622 524.732 277.074 525.134 274.148 525.134ZM277.586 515.404C280.244 515.404 282.548 514.88 284.499 513.832C286.45 512.759 287.95 511.344 288.998 509.589C290.071 507.833 290.607 505.919 290.607 503.846V497.226C290.193 497.567 289.486 497.884 288.486 498.177C287.511 498.469 286.413 498.725 285.194 498.945C283.975 499.164 282.768 499.359 281.573 499.53C280.378 499.701 279.342 499.847 278.464 499.969C276.489 500.237 274.721 500.676 273.16 501.286C271.6 501.895 270.368 502.749 269.466 503.846C268.564 504.919 268.113 506.309 268.113 508.016C268.113 510.454 269.003 512.295 270.783 513.539C272.563 514.783 274.831 515.404 277.586 515.404ZM341.632 525.097C336.145 525.097 331.39 523.89 327.367 521.476C323.344 519.062 320.222 515.685 318.003 511.344C315.809 507.004 314.711 501.932 314.711 496.129C314.711 490.325 315.809 485.241 318.003 480.876C320.222 476.511 323.344 473.122 327.367 470.708C331.39 468.294 336.145 467.087 341.632 467.087C347.118 467.087 351.873 468.294 355.897 470.708C359.92 473.122 363.029 476.511 365.224 480.876C367.443 485.241 368.552 490.325 368.552 496.129C368.552 501.932 367.443 507.004 365.224 511.344C363.029 515.685 359.92 519.062 355.897 521.476C351.873 523.89 347.118 525.097 341.632 525.097ZM341.705 514.49C344.68 514.49 347.167 513.673 349.167 512.039C351.166 510.381 352.654 508.162 353.629 505.382C354.629 502.603 355.129 499.506 355.129 496.092C355.129 492.654 354.629 489.545 353.629 486.765C352.654 483.961 351.166 481.73 349.167 480.071C347.167 478.413 344.68 477.584 341.705 477.584C338.657 477.584 336.121 478.413 334.097 480.071C332.098 481.73 330.598 483.961 329.598 486.765C328.623 489.545 328.135 492.654 328.135 496.092C328.135 499.506 328.623 502.603 329.598 505.382C330.598 508.162 332.098 510.381 334.097 512.039C336.121 513.673 338.657 514.49 341.705 514.49ZM387.947 524.805C385.728 524.805 383.826 524.024 382.241 522.464C380.656 520.903 379.876 519.001 379.9 516.758C379.876 514.563 380.656 512.686 382.241 511.125C383.826 509.564 385.728 508.784 387.947 508.784C390.093 508.784 391.958 509.564 393.543 511.125C395.153 512.686 395.97 514.563 395.994 516.758C395.97 518.245 395.58 519.599 394.824 520.818C394.092 522.037 393.117 523.012 391.897 523.744C390.703 524.451 389.386 524.805 387.947 524.805ZM430.513 524.988C426.1 524.988 422.149 523.854 418.662 521.586C415.175 519.318 412.42 516.026 410.396 511.71C408.372 507.394 407.36 502.152 407.36 495.982C407.36 489.74 408.384 484.473 410.433 480.181C412.505 475.865 415.297 472.61 418.809 470.415C422.32 468.196 426.234 467.087 430.55 467.087C433.842 467.087 436.548 467.647 438.67 468.769C440.791 469.866 442.474 471.195 443.718 472.756C444.961 474.292 445.924 475.743 446.607 477.109H447.156V449.091H460.433V524H447.412V515.148H446.607C445.924 516.514 444.937 517.965 443.644 519.501C442.352 521.013 440.645 522.305 438.524 523.378C436.402 524.451 433.732 524.988 430.513 524.988ZM434.208 514.124C437.012 514.124 439.401 513.368 441.377 511.857C443.352 510.32 444.851 508.187 445.876 505.456C446.9 502.725 447.412 499.542 447.412 495.909C447.412 492.276 446.9 489.118 445.876 486.436C444.876 483.753 443.388 481.669 441.413 480.181C439.462 478.694 437.061 477.95 434.208 477.95C431.257 477.95 428.794 478.718 426.819 480.254C424.844 481.79 423.356 483.912 422.357 486.619C421.357 489.325 420.857 492.422 420.857 495.909C420.857 499.42 421.357 502.554 422.357 505.309C423.381 508.04 424.881 510.198 426.856 511.783C428.855 513.344 431.306 514.124 434.208 514.124ZM499.415 525.097C493.782 525.097 488.917 523.927 484.821 521.586C480.748 519.221 477.615 515.88 475.42 511.564C473.226 507.223 472.128 502.115 472.128 496.238C472.128 490.459 473.226 485.387 475.42 481.022C477.639 476.633 480.736 473.219 484.711 470.781C488.686 468.318 493.355 467.087 498.72 467.087C502.182 467.087 505.45 467.647 508.522 468.769C511.619 469.866 514.35 471.573 516.715 473.89C519.105 476.206 520.983 479.157 522.348 482.741C523.714 486.302 524.397 490.545 524.397 495.47V499.53H478.347V490.605H511.704C511.68 488.069 511.131 485.814 510.059 483.839C508.986 481.839 507.486 480.266 505.56 479.12C503.658 477.974 501.439 477.401 498.903 477.401C496.196 477.401 493.818 478.06 491.77 479.376C489.722 480.669 488.125 482.376 486.979 484.497C485.857 486.594 485.284 488.899 485.259 491.41V499.201C485.259 502.469 485.857 505.273 487.052 507.614C488.247 509.93 489.917 511.71 492.063 512.954C494.209 514.173 496.72 514.783 499.598 514.783C501.524 514.783 503.267 514.514 504.828 513.978C506.389 513.417 507.742 512.6 508.888 511.527C510.034 510.454 510.9 509.125 511.485 507.54L523.848 508.93C523.068 512.198 521.58 515.051 519.386 517.489C517.215 519.903 514.436 521.781 511.046 523.122C507.657 524.439 503.78 525.097 499.415 525.097ZM584.172 467.818L564.165 524H549.534L529.526 467.818H543.645L556.557 509.552H557.142L570.09 467.818H584.172Z" fill="url(#paint0_linear_207_4148)"/>
<mask id="mask0_207_4148" style="mask-type:alpha" maskUnits="userSpaceOnUse" x="181" y="81" width="274" height="327">
<path d="M454.9 81L373.5 139.5H318H317.9H262.4L181 81C189 112 193.3 144.5 193.3 177.9C193.3 197.9 191.8 217.6 188.8 236.8L224.8 283.9C230.3 289.4 233.7 297.1 233.7 305.5C233.7 316 228.4 325.2 220.3 330.7L239.8 367.9L317.8 407.9V408H317.9H318V407.9L396 367.9L415.5 330.7C407.4 325.2 402.1 316 402.1 305.5C402.1 297.1 405.5 289.4 411 283.9L447 236.8C444.1 217.6 442.5 197.9 442.5 177.9C442.6 144.4 446.9 112 454.9 81ZM275.5 274.4C274.6 275 273.7 275.4 272.7 275.5C272.1 275.7 271.6 275.8 270.9 275.9C256.7 278.4 247.1 272.3 243 269.5C242.7 269.3 242.3 269 242 268.8C241.9 268.7 241.8 268.6 241.7 268.6C237.3 265.6 225.3 249.9 225.3 249.9C225.2 249.7 225 249.6 224.9 249.4C224 248.1 223.6 246.6 223.7 245.2C223.8 242.9 224.9 240.6 227 239.2C227.5 238.9 228 238.6 228.6 238.4C228.8 238.3 228.9 238.3 229.1 238.2C229.2 238.2 229.4 238.1 229.5 238.1C229.6 238.1 229.8 238 229.9 238H230H230.1C230.2 238 230.4 238 230.5 238C246.2 236.3 254.6 239.3 254.6 239.3C254.7 239.3 254.8 239.3 254.8 239.4C256.1 239.6 257.4 240 258.6 240.5C269.1 244.7 275 256.3 275 256.3C275 256.3 278.8 262.2 278.9 267.6C278.9 270.2 277.8 272.9 275.5 274.4ZM333.9 321.8C333.8 323.1 333.3 324.2 332.5 325.1L321.4 336.2C321.3 336.3 321.2 336.4 321.2 336.4L321 336.6V342.2C321 344 319.5 345.5 317.7 345.5C315.9 345.5 314.4 344 314.4 342.2V336.6L314.2 336.4C314.1 336.3 314.1 336.3 314 336.2L302.8 325C302 324.2 301.5 323 301.4 321.8V321.7C301.4 321.6 301.4 321.6 301.4 321.5C301.4 318.7 303.7 316.4 306.5 316.4H306.8H317.8H328.8H329.1C331.9 316.4 334.2 318.7 334.2 321.5C334 321.6 333.9 321.7 333.9 321.8Z" fill="#D9D9D9"/>
</mask>
<g mask="url(#mask0_207_4148)">
<g filter="url(#filter0_f_207_4148)">
<circle cx="468.5" cy="326.5" r="150.5" fill="#F75D21"/>
</g>
<g filter="url(#filter1_f_207_4148)">
<circle cx="317.5" cy="238.5" r="150.5" fill="#F75D21"/>
</g>
<g filter="url(#filter2_f_207_4148)">
<circle cx="503" cy="225" r="98" fill="#E44B0F"/>
</g>
<g filter="url(#filter3_f_207_4148)">
<circle cx="468.5" cy="25.5" r="150.5" fill="#F96A89"/>
</g>
<g filter="url(#filter4_f_207_4148)">
<circle cx="167.5" cy="213.5" r="150.5" fill="#FFD848"/>
</g>
<g filter="url(#filter5_f_207_4148)">
<circle cx="185.5" cy="-79.5" r="150.5" fill="#FFC700"/>
</g>
<g filter="url(#filter6_f_207_4148)">
<circle cx="210.5" cy="505.5" r="150.5" fill="#60C6FF"/>
</g>
</g>
</g>
<defs>
<filter id="filter0_f_207_4148" x="218" y="76" width="501" height="501" filterUnits="userSpaceOnUse" color-interpolation-filters="sRGB">
<feFlood flood-opacity="0" result="BackgroundImageFix"/>
<feBlend mode="normal" in="SourceGraphic" in2="BackgroundImageFix" result="shape"/>
<feGaussianBlur stdDeviation="50" result="effect1_foregroundBlur_207_4148"/>
</filter>
<filter id="filter1_f_207_4148" x="67" y="-12" width="501" height="501" filterUnits="userSpaceOnUse" color-interpolation-filters="sRGB">
<feFlood flood-opacity="0" result="BackgroundImageFix"/>
<feBlend mode="normal" in="SourceGraphic" in2="BackgroundImageFix" result="shape"/>
<feGaussianBlur stdDeviation="50" result="effect1_foregroundBlur_207_4148"/>
</filter>
<filter id="filter2_f_207_4148" x="305" y="27" width="396" height="396" filterUnits="userSpaceOnUse" color-interpolation-filters="sRGB">
<feFlood flood-opacity="0" result="BackgroundImageFix"/>
<feBlend mode="normal" in="SourceGraphic" in2="BackgroundImageFix" result="shape"/>
<feGaussianBlur stdDeviation="50" result="effect1_foregroundBlur_207_4148"/>
</filter>
<filter id="filter3_f_207_4148" x="218" y="-225" width="501" height="501" filterUnits="userSpaceOnUse" color-interpolation-filters="sRGB">
<feFlood flood-opacity="0" result="BackgroundImageFix"/>
<feBlend mode="normal" in="SourceGraphic" in2="BackgroundImageFix" result="shape"/>
<feGaussianBlur stdDeviation="50" result="effect1_foregroundBlur_207_4148"/>
</filter>
<filter id="filter4_f_207_4148" x="-83" y="-37" width="501" height="501" filterUnits="userSpaceOnUse" color-interpolation-filters="sRGB">
<feFlood flood-opacity="0" result="BackgroundImageFix"/>
<feBlend mode="normal" in="SourceGraphic" in2="BackgroundImageFix" result="shape"/>
<feGaussianBlur stdDeviation="50" result="effect1_foregroundBlur_207_4148"/>
</filter>
<filter id="filter5_f_207_4148" x="-65" y="-330" width="501" height="501" filterUnits="userSpaceOnUse" color-interpolation-filters="sRGB">
<feFlood flood-opacity="0" result="BackgroundImageFix"/>
<feBlend mode="normal" in="SourceGraphic" in2="BackgroundImageFix" result="shape"/>
<feGaussianBlur stdDeviation="50" result="effect1_foregroundBlur_207_4148"/>
</filter>
<filter id="filter6_f_207_4148" x="-40" y="255" width="501" height="501" filterUnits="userSpaceOnUse" color-interpolation-filters="sRGB">
<feFlood flood-opacity="0" result="BackgroundImageFix"/>
<feBlend mode="normal" in="SourceGraphic" in2="BackgroundImageFix" result="shape"/>
<feGaussianBlur stdDeviation="50" result="effect1_foregroundBlur_207_4148"/>
</filter>
<linearGradient id="paint0_linear_207_4148" x1="93.8333" y1="424" x2="526.835" y2="514.983" gradientUnits="userSpaceOnUse">
<stop stop-color="#FFC700"/>
<stop offset="0.482292" stop-color="#FF5C00"/>
<stop offset="1" stop-color="#F62BAD"/>
</linearGradient>
<clipPath id="clip0_207_4148">
<rect width="636" height="629" fill="white"/>
</clipPath>
</defs>
</svg>
