<svg xmlns="http://www.w3.org/2000/svg" width="1440" height="1024" fill="none"><g clip-path="url(#a)"><mask id="b" width="648" height="816" x="26" y="-1" maskUnits="userSpaceOnUse" style="mask-type:alpha"><circle cx="523.375" cy="188.936" r="29.535" fill="#D9D9D9"/><path fill="#D9D9D9" d="M527.718 590.697c0 17.631 14.293 31.924 31.924 31.924 0-17.631-14.293-31.924-31.924-31.924ZM559.642 622.621c0 17.631-14.293 31.924-31.924 31.924 0-17.631 14.293-31.924 31.924-31.924ZM559.642 622.621c0 17.631 14.293 31.924 31.924 31.924 0-17.623-14.28-31.911-31.899-31.924 17.619-.013 31.899-14.301 31.899-31.924-17.631 0-31.924 14.293-31.924 31.924ZM310.468 423.478c-8.133 8.133-8.133 21.32 0 29.453 8.133-8.133 8.133-21.32 0-29.453Z"/><path fill="#D9D9D9" d="M310.468 452.931c-8.133 8.133-21.32 8.133-29.453 0 8.133-8.133 21.32-8.133 29.453 0Z"/><path fill="#D9D9D9" d="M310.468 452.931c-8.133 8.133-8.133 21.32 0 29.453 8.129-8.13 8.133-21.308.011-29.442 8.135 8.122 21.312 8.118 29.442-.011-8.133-8.133-21.32-8.133-29.453 0ZM385.908 223.471l9.676 18.773 18.773 9.676-18.773 9.676-9.676 18.773-9.676-18.773-18.773-9.676 18.773-9.676 9.676-18.773Z"/><path fill="#D9D9D9" fill-rule="evenodd" d="M101.811 672.918c10.195 0 18.46-8.167 18.46-18.242 0-10.075-8.265-18.242-18.46-18.242-10.194 0-18.459 8.167-18.459 18.242 0 10.075 8.265 18.242 18.459 18.242Zm0-9.001c5.165 0 9.352-4.138 9.352-9.241 0-5.104-4.187-9.241-9.352-9.241-5.164 0-9.35 4.137-9.35 9.241 0 5.103 4.186 9.241 9.35 9.241Z" clip-rule="evenodd"/><path fill="#D9D9D9" d="m192.943 341.823-14.865 14.874 15.1 15.11-15.069 15.08 14.865 14.874 15.069-15.079 14.643 14.652 14.865-14.874-14.643-14.653 14.674-14.683-14.865-14.874-14.674 14.683-15.1-15.11ZM247.065 153l18.243 10.533v21.065l-18.243 10.533-18.243-10.533v-21.065L247.065 153ZM310.55 586.788l20.688 35.833h-41.376l20.688-35.833Z"/><path stroke="#000" stroke-width="2" d="M154.317 93.622h45.97l22.986 39.812-22.986 39.812h-45.97l-22.986-39.812 22.986-39.812ZM123.022 473.43h26.886l13.443 23.284-13.443 23.284h-26.886l-13.444-23.284 13.444-23.284ZM593.199 280.407h17.117l8.558 14.824-8.558 14.823h-17.117l-8.558-14.823 8.558-14.824ZM571.617 331.057l-22.986 39.812h-45.97l-22.986-39.812 22.986-39.812h45.97l22.986 39.812ZM451.516 189.397l36.147-62.607h72.293l36.146 62.607-36.146 62.608h-72.293l-36.147-62.608ZM496.477 690.687l-22.986 39.812H427.52l-22.985-39.812 22.985-39.811h45.971l22.986 39.811ZM63.218 247.819h71.177l35.588 61.64-35.588 61.641H63.218L27.63 309.459l35.588-61.64ZM524.483 559.238h71.177l35.588 61.641-35.588 61.641h-71.177l-35.588-61.641 35.588-61.641ZM79.177 614.826h45.97l22.986 39.812-22.986 39.812h-45.97L56.19 654.638l22.986-39.812ZM530.851 475.16h26.372l13.186 22.838-13.186 22.838h-26.372l-13.185-22.838 13.185-22.838ZM431.691 250.27l-22.986 39.812h-45.97l-22.986-39.812 22.985-39.811h45.971l22.986 39.811ZM356.551 609.901l-22.986 39.812h-45.971l-22.985-39.812 22.985-39.812h45.971l22.986 39.812ZM293.666 92.498l-23.405 40.538h-46.81l-23.405-40.538 23.405-40.539M205.704 472.356l-13.926 24.122h-27.853l-13.927-24.122 13.927-24.121M646.874 279.36l-9.074 15.717h-18.149l-9.075-15.717 9.075-15.718M502.916 452.299l-23.405-40.539 23.405-40.538h46.81l23.405 40.538M559.235 0l36.478 63.182-36.478 63.181H486.28l-36.478-63.181M427.776 811.929l-23.405-40.538 23.405-40.539h46.81l23.405 40.539M382.561 112.032h28.065l14.032 24.305-14.032 24.304h-28.065l-14.032-24.304 14.032-24.305ZM287.658 413.293h45.971l22.985 39.812-22.985 39.812h-45.971l-22.986-39.812 22.986-39.812ZM501.982 531.587l-22.985 39.812h-45.971l-22.986-39.812 22.986-39.812h45.971l22.985 39.812ZM435.452 610.481l-14.771 25.586h-29.544l-14.772-25.586 14.772-25.586h29.544l14.771 25.586ZM223.81 133.581h45.971l22.986 39.812-22.986 39.812H223.81l-22.985-39.812 22.985-39.812ZM164.372 497.207h26.887l13.443 23.284-13.443 23.284h-26.887l-13.443-23.284 13.443-23.284ZM620.143 295.9h17.117l8.558 14.824-8.558 14.823h-17.117l-8.558-14.823 8.558-14.824ZM502.265 371.261l-22.986 39.812h-45.971l-22.985-39.812 22.985-39.812h45.971l22.986 39.812ZM427.124 730.892l-22.985 39.811h-45.971l-22.985-39.811 22.985-39.812h45.971l22.985 39.812ZM279.802 371.195l-36.166-62.641h-72.331l-36.166 62.641 36.166 62.641M220.084 693.728l-23.563-40.812h-47.125l-23.563 40.812 23.563 40.812M612.916 520.83l-13.763-23.838h-27.526l-13.763 23.838 13.763 23.839M292.905 332.849h47.126l23.563-40.812-23.563-40.811h-47.126"/><path stroke="#000" stroke-width="2" d="M217.765 692.48h47.126l23.562-40.812-23.562-40.812h-47.126M339.473 136.808h28.064l14.033 24.305-14.033 24.304h-28.064l-14.033-24.304 14.033-24.305ZM205.723 473.43h26.886l13.443 23.284-13.443 23.284h-26.886l-13.443-23.284 13.443-23.284ZM647.087 280.407h17.117l8.558 14.824-8.558 14.823h-17.117l-8.558-14.823 8.558-14.824ZM329.331 504.518h26.887l13.443 23.284-13.443 23.284h-26.887l-13.443-23.284 13.443-23.284ZM400.451 380.637l-14.901 25.811h-29.804l-14.901-25.811 14.901-25.81h29.804l14.901 25.81ZM306.889 760.761l-14.772 25.586h-29.544l-14.772-25.586 14.772-25.585h29.544l14.772 25.585ZM153.305 255.032h47.125l23.563-40.812-23.563-40.812h-47.125M122.186 569.069h28.041l14.02-24.284-14.02-24.285h-28.041M592.454 342.377h18.271l9.136-15.823-9.136-15.824h-18.271M432.338 249.476l-23.563 40.811 23.563 40.812h47.125l23.563-40.812M357.197 609.106l-23.562 40.812 23.562 40.812h47.126l23.563-40.812"/><circle cx="199.795" cy="93.382" r="2.606" fill="#000"/><circle cx="149.787" cy="472.775" r="1.52" fill="#000"/><circle cx="163.528" cy="449.755" r="1.52" fill="#000"/><circle cx="610.46" cy="279.64" r="1.086" fill="#000"/><circle cx="549.086" cy="370.562" r="2.606" fill="#000" transform="rotate(120 549.086 370.562)"/><circle cx="573.409" cy="411.836" r="2.606" fill="#000" transform="rotate(120 573.409 411.836)"/><circle cx="487.277" cy="127.826" r="4.062" fill="#000" transform="rotate(-60 487.277 127.826)"/><circle cx="558.024" cy="126.294" r="4.062" fill="#000" transform="rotate(-60 558.024 126.294)"/><circle cx="473.946" cy="730.193" r="2.606" fill="#000" transform="rotate(120 473.946 730.193)"/><circle cx="200.663" cy="254.086" r="2.606" fill="#000"/><circle cx="223.249" cy="214.128" r="2.606" fill="#000"/><circle cx="153.321" cy="254.086" r="2.606" fill="#000"/><circle cx="409.477" cy="290.962" r="2.606" fill="#000" transform="rotate(120 409.477 290.962)"/><circle cx="334.337" cy="650.593" r="2.606" fill="#000" transform="rotate(120 334.337 650.593)"/><circle cx="223.249" cy="133.341" r="2.606" fill="#000"/><circle cx="163.686" cy="496.664" r="1.52" fill="#000"/><circle cx="619.58" cy="295.276" r="1.086" fill="#000"/><circle cx="502.753" cy="370.894" r="2.606" fill="#000" transform="rotate(120 502.753 370.894)"/><circle cx="427.613" cy="730.525" r="2.606" fill="#000" transform="rotate(120 427.613 730.525)"/><circle cx="148.109" cy="653.676" r="2.606" fill="#000"/><circle cx="570.935" cy="497.532" r="1.52" fill="#000"/><circle cx="363.579" cy="290.542" r="2.606" fill="#000" transform="rotate(120 363.579 290.542)"/><circle cx="288.439" cy="650.173" r="2.606" fill="#000" transform="rotate(120 288.439 650.173)"/><circle cx="270.157" cy="133.341" r="2.606" fill="#000"/><ellipse cx="191.7" cy="496.664" fill="#000" rx="1.737" ry="1.52"/><circle cx="637.823" cy="295.276" r="1.086" fill="#000"/><circle cx="479.299" cy="411.518" r="2.606" fill="#000" transform="rotate(120 479.299 411.518)"/><circle cx="404.159" cy="771.149" r="2.606" fill="#000" transform="rotate(120 404.159 771.149)"/><circle cx="196.32" cy="652.807" r="2.606" fill="#000"/><circle cx="340.226" cy="332.729" r="2.606" fill="#000" transform="rotate(120 340.226 332.729)"/><circle cx="265.086" cy="692.359" r="2.606" fill="#000" transform="rotate(120 265.086 692.359)"/><circle cx="293.611" cy="93.382" r="2.606" fill="#000"/><circle cx="222.815" cy="54.726" r="2.606" fill="#000"/><circle cx="205.816" cy="472.775" r="1.52" fill="#000"/><circle cx="646.944" cy="279.64" r="1.086" fill="#000"/><circle cx="502.177" cy="451.809" r="2.606" fill="#000" transform="rotate(120 502.177 451.809)"/><circle cx="427.037" cy="811.44" r="2.606" fill="#000" transform="rotate(120 427.037 811.44)"/><circle cx="497.4" cy="771.032" r="2.606" fill="#000" transform="rotate(120 497.4 771.032)"/><circle cx="293.611" cy="173.3" r="2.606" fill="#000"/><circle cx="205.816" cy="520.552" r="1.52" fill="#000"/><ellipse cx="646.944" cy="310.695" fill="#000" rx="1.086" ry=".869"/><circle cx="432.967" cy="411.85" r="2.606" fill="#000" transform="rotate(120 432.967 411.85)"/><circle cx="294.48" cy="332.701" r="2.606" fill="#000"/><circle cx="219.34" cy="692.332" r="2.606" fill="#000"/><circle cx="294.486" cy="332.902" r="2.606" fill="#000" transform="rotate(120 294.486 332.902)"/><circle cx="293.696" cy="252.434" r="2.606" fill="#000" transform="rotate(120 293.696 252.434)"/><circle cx="219.346" cy="692.532" r="2.606" fill="#000" transform="rotate(120 219.346 692.532)"/><circle cx="200.663" cy="173.3" r="2.606" fill="#000"/><circle cx="150.221" cy="520.552" r="1.52" fill="#000"/><circle cx="610.677" cy="310.695" r=".869" fill="#000"/><circle cx="479.441" cy="331.356" r="2.606" fill="#000" transform="rotate(120 479.441 331.356)"/><circle cx="404.3" cy="690.986" r="2.606" fill="#000" transform="rotate(120 404.3 690.986)"/><circle cx="135.296" cy="370.706" r="4.126" fill="#000"/><circle cx="170.477" cy="309.03" r="4.126" fill="#000"/><circle cx="172.649" cy="431.513" r="4.126" fill="#000"/><circle cx="280.798" cy="370.706" r="4.126" fill="#000"/><circle cx="125.958" cy="694.503" r="2.606" fill="#000"/><circle cx="148.109" cy="733.594" r="2.606" fill="#000"/><circle cx="557.905" cy="521.421" r="1.52" fill="#000"/><circle cx="339.297" cy="250.945" r="2.606" fill="#000" transform="rotate(120 339.297 250.945)"/><circle cx="264.157" cy="610.575" r="2.606" fill="#000" transform="rotate(120 264.157 610.575)"/><circle cx="217.688" cy="611.631" r="2.606" fill="#000" transform="rotate(120 217.688 611.631)"/></mask><g filter="url(#c)" mask="url(#b)"><path fill="#C0F" fill-opacity=".2" d="M908.685 830.691c0 171.379-138.926 310.299-310.301 310.299-171.374 0-310.3-138.92-310.3-310.299 0-171.374 138.926-310.301 310.3-310.301 171.375 0 310.301 138.927 310.301 310.301Z"/><path fill="#9E00FF" fill-opacity=".2" d="M937.972 290.977c0 171.374-138.927 310.301-310.301 310.301S317.37 462.351 317.37 290.977s138.927-310.3 310.301-310.3 310.301 138.926 310.301 310.3Z"/><path fill="#FF72CF" fill-opacity=".4" d="M332.304 790.632c-118.393 90.529-260.26 103.9-316.87 29.866-56.61-74.034-6.524-207.438 111.869-297.966 118.393-90.528 260.261-103.9 316.87-29.866 56.61 74.034 6.524 207.438-111.869 297.966Z"/><path fill="#E61B1B" fill-opacity=".1" d="M558.231 57.068c-118.393 90.528-260.261 103.899-316.87 29.865-56.61-74.033-6.524-207.437 111.869-297.966 118.393-90.528 260.26-103.9 316.87-29.866 56.609 74.034 6.524 207.438-111.869 297.966Z"/><path fill="#FF5C00" fill-opacity=".05" d="M373.155 278.426c0 171.374-138.927 310.3-310.3 310.3-171.375 0-310.302-138.926-310.302-310.3 0-171.375 138.927-310.301 310.301-310.301s310.301 138.926 310.301 310.301Z"/><path fill="#FFC700" fill-opacity=".2" d="M467.988-102.303c0 171.375-138.926 310.301-310.3 310.301-171.375 0-310.301-138.926-310.301-310.301 0-171.374 138.926-310.301 310.301-310.301 171.374 0 310.3 138.927 310.3 310.301Z"/></g><mask id="d" width="649" height="816" x="63" y="754" maskUnits="userSpaceOnUse" style="mask-type:alpha"><circle cx="29.535" cy="29.535" r="29.535" fill="#D9D9D9" transform="matrix(-1 0 0 1 243.764 914.401)"/><path fill="#D9D9D9" d="m351.697 976.471-9.676 18.773-18.773 9.676 18.773 9.68 9.676 18.77 9.676-18.77 18.773-9.68-18.773-9.676-9.676-18.773ZM490.539 908l-18.243 10.533v21.065l18.243 10.533 18.243-10.533v-21.065L490.539 908Z"/><path stroke="#000" stroke-width="2" d="M583.288 848.622h-45.971l-22.985 39.812 22.985 39.812h45.971l22.985-39.812-22.985-39.812ZM286.088 944.397l-36.146-62.607h-72.293l-36.147 62.607 36.147 62.613h72.293l36.146-62.613ZM674.386 1002.82h-71.177l-35.588 61.64 35.588 61.64h71.177l35.589-61.64-35.589-61.64ZM305.914 1005.27l22.985 39.81h45.971l22.985-39.81-22.985-39.811h-45.971l-22.985 39.811ZM443.939 847.498l23.405 40.538h46.809l23.405-40.538-23.405-40.539M90.73 1034.36l9.075 15.72h18.149l9.074-15.72-9.074-15.72M178.369 755l-36.478 63.182 36.478 63.181h72.956l36.478-63.181M355.043 867.032h-28.064l-14.033 24.305 14.033 24.304h28.064l14.033-24.304-14.033-24.305ZM513.794 888.581h-45.971l-22.985 39.812 22.985 39.812h45.971l22.986-39.812-22.986-39.812ZM444.699 1087.85h-47.125l-23.563-40.81 23.563-40.81h47.125M398.132 891.808h-28.065l-14.032 24.305 14.032 24.304h28.065l14.032-24.304-14.032-24.305ZM584.299 1010.03h-47.125l-23.563-40.81 23.563-40.812h47.125M305.267 1004.48l23.563 40.81-23.563 40.81h-47.126l-23.562-40.81"/><circle cx="2.606" cy="2.606" r="2.606" fill="#000" transform="matrix(-1 0 0 1 540.416 845.776)"/><circle cx="4.062" cy="4.062" r="4.062" fill="#000" transform="scale(-1 1) rotate(-60 637.9 663.75)"/><circle cx="4.062" cy="4.062" r="4.062" fill="#000" transform="scale(-1 1) rotate(-60 671.946 601.717)"/><circle cx="2.606" cy="2.606" r="2.606" fill="#000" transform="matrix(-1 0 0 1 539.547 1006.48)"/><circle cx="2.606" cy="2.606" r="2.606" fill="#000" transform="matrix(-1 0 0 1 516.962 966.521)"/><circle cx="2.606" cy="2.606" r="2.606" fill="#000" transform="matrix(-1 0 0 1 586.89 1006.48)"/><circle cx="2.606" cy="2.606" r="2.606" fill="#000" transform="matrix(-1 0 0 1 516.962 885.735)"/><circle cx="2.606" cy="2.606" r="2.606" fill="#000" transform="matrix(-1 0 0 1 470.053 885.735)"/><circle cx="2.606" cy="2.606" r="2.606" fill="#000" transform="matrix(-1 0 0 1 446.599 845.776)"/><circle cx="2.606" cy="2.606" r="2.606" fill="#000" transform="matrix(-1 0 0 1 517.396 807.12)"/><circle cx="2.606" cy="2.606" r="2.606" fill="#000" transform="matrix(-1 0 0 1 446.599 925.694)"/><circle cx="2.606" cy="2.606" r="2.606" fill="#000" transform="scale(1 -1) rotate(-60 -651.464 -884.593)"/><circle cx="2.606" cy="2.606" r="2.606" fill="#000" transform="matrix(-1 0 0 1 539.547 925.694)"/><circle cx="2.606" cy="2.606" r="2.606" fill="#000" transform="scale(1 -1) rotate(-60 -672.973 -844.357)"/></mask><g filter="url(#e)" mask="url(#d)"><path fill="#C0F" fill-opacity=".2" d="M-171.081 1585.69c0 171.38 138.927 310.3 310.301 310.3s310.301-138.92 310.301-310.3c0-171.37-138.927-310.3-310.301-310.3s-310.301 138.93-310.301 310.3Z"/><path fill="#9E00FF" fill-opacity=".2" d="M-200.367 1045.98c0 171.37 138.926 310.3 310.3 310.3 171.375 0 310.301-138.93 310.301-310.3 0-171.377-138.926-310.304-310.301-310.304-171.374 0-310.3 138.927-310.3 310.304Z"/><path fill="#FF72CF" fill-opacity=".4" d="M405.3 1545.63c118.393 90.53 260.261 103.9 316.87 29.87 56.61-74.04 6.524-207.44-111.869-297.97-118.393-90.53-260.26-103.9-316.87-29.86-56.609 74.03-6.524 207.43 111.869 297.96Z"/><path fill="#E61B1B" fill-opacity=".1" d="M179.374 812.068c118.393 90.528 260.26 103.899 316.87 29.866 56.609-74.034 6.524-207.438-111.869-297.967-118.393-90.528-260.261-103.9-316.87-29.866-56.61 74.034-6.524 207.438 111.869 297.967Z"/><path fill="#FF5C00" fill-opacity=".05" d="M364.45 1033.43c0 171.37 138.926 310.3 310.3 310.3 171.375 0 310.301-138.93 310.301-310.3 0-171.379-138.926-310.305-310.301-310.305-171.374 0-310.3 138.926-310.3 310.305Z"/><path fill="#FFC700" fill-opacity=".2" d="M269.616 652.697c0 171.375 138.927 310.301 310.301 310.301s310.301-138.926 310.301-310.301c0-171.374-138.927-310.301-310.301-310.301S269.616 481.323 269.616 652.697Z"/></g><mask id="f" width="649" height="816" x="583" y="238" maskUnits="userSpaceOnUse" style="mask-type:alpha"><circle cx="734.229" cy="864.064" r="29.535" fill="#D9D9D9" transform="rotate(-180 734.229 864.064)"/><path fill="#D9D9D9" d="M728.886 464.303c0-17.631-14.293-31.924-31.923-31.924 0 17.631 14.292 31.924 31.923 31.924ZM696.963 432.379c0-17.631 14.292-31.924 31.923-31.924 0 17.631-14.293 31.924-31.923 31.924ZM696.963 432.379c0-17.631-14.293-31.924-31.924-31.924 0 17.623 14.279 31.911 31.899 31.924-17.62.013-31.899 14.301-31.899 31.924 17.631 0 31.924-14.293 31.924-31.924ZM947.136 629.522c8.134-8.133 8.134-21.32 0-29.453-8.133 8.133-8.133 21.32 0 29.453ZM947.136 600.069c8.134-8.133 21.32-8.133 29.453 0-8.133 8.133-21.319 8.133-29.453 0Z"/><path fill="#D9D9D9" d="M947.136 600.069c8.134-8.133 8.134-21.32 0-29.453-8.129 8.13-8.133 21.308-.011 29.442-8.134-8.122-21.312-8.118-29.441.011 8.133 8.133 21.319 8.133 29.452 0ZM871.697 831.529l-9.676-18.773-18.773-9.676 18.773-9.676 9.676-18.773 9.676 18.773 18.773 9.676-18.773 9.676-9.676 18.773Z"/><path fill="#D9D9D9" fill-rule="evenodd" d="M1155.79 381.082c-10.19 0-18.46 8.167-18.46 18.242 0 10.075 8.27 18.242 18.46 18.242 10.2 0 18.46-8.167 18.46-18.242 0-10.075-8.26-18.242-18.46-18.242Zm0 9.001c-5.16 0-9.35 4.138-9.35 9.241 0 5.104 4.19 9.241 9.35 9.241 5.17 0 9.35-4.137 9.35-9.241 0-5.103-4.18-9.241-9.35-9.241Z" clip-rule="evenodd"/><path fill="#D9D9D9" d="m1064.66 711.177 14.87-14.874-15.1-15.11 15.07-15.08-14.87-14.874-15.07 15.079-14.64-14.652-14.87 14.874 14.65 14.653-14.68 14.683 14.87 14.874 14.67-14.683 15.1 15.11ZM1010.54 900l-18.244-10.533v-21.065l18.244-10.533 18.24 10.533v21.065L1010.54 900ZM947.054 466.212l-20.688-35.833h41.376l-20.688 35.833Z"/><path stroke="#000" stroke-width="2" d="M1103.29 959.378h-45.97l-22.99-39.812 22.99-39.812h45.97l22.98 39.812-22.98 39.812ZM1134.58 579.57h-26.88l-13.45-23.284 13.45-23.284h26.88l13.45 23.284-13.45 23.284ZM664.405 772.593h-17.116l-8.559-14.824 8.559-14.823h17.116l8.559 14.823-8.559 14.824ZM685.988 721.943l22.985-39.812h45.971l22.985 39.812-22.985 39.812h-45.971l-22.985-39.812ZM806.088 863.603l-36.146 62.607h-72.293l-36.147-62.607 36.147-62.608h72.293l36.146 62.608ZM761.128 362.313l22.985-39.812h45.971l22.985 39.812-22.985 39.811h-45.971l-22.985-39.811ZM1194.39 805.181h-71.18l-35.59-61.64 35.59-61.641h71.18l35.58 61.641-35.58 61.64ZM733.121 493.762h-71.176l-35.589-61.641 35.589-61.641h71.176l35.589 61.641-35.589 61.641ZM1178.43 438.174h-45.97l-22.99-39.812 22.99-39.812h45.97l22.98 39.812-22.98 39.812ZM726.753 577.84h-26.371l-13.186-22.838 13.186-22.838h26.371l13.186 22.838-13.186 22.838ZM825.914 802.73l22.985-39.812h45.971l22.985 39.812-22.985 39.811h-45.971l-22.985-39.811ZM901.054 443.099l22.985-39.812h45.971l22.986 39.812-22.986 39.812h-45.971l-22.985-39.812ZM963.939 960.502l23.405-40.538h46.806l23.41 40.538-23.41 40.538M1051.9 580.644l13.93-24.122h27.85l13.93 24.122-13.93 24.121M610.73 773.64l9.075-15.717h18.149l9.074 15.717-9.074 15.718M754.688 600.701l23.405 40.539-23.405 40.538h-46.81l-23.404-40.538M698.369 1053l-36.478-63.182 36.478-63.181h72.956l36.478 63.181M829.828 241.071l23.405 40.538-23.405 40.539h-46.809l-23.405-40.539M875.043 940.968h-28.064l-14.033-24.305 14.033-24.304h28.064l14.033 24.304-14.033 24.305ZM969.947 639.707h-45.971l-22.985-39.812 22.985-39.812h45.971l22.985 39.812-22.985 39.812ZM755.623 521.413l22.985-39.812h45.971l22.985 39.812-22.985 39.812h-45.971l-22.985-39.812ZM822.152 442.519l14.772-25.586h29.544l14.772 25.586-14.772 25.586h-29.544l-14.772-25.586ZM1033.79 919.419h-45.967l-22.985-39.812 22.985-39.812h45.967l22.99 39.812-22.99 39.812ZM1093.23 555.793h-26.88l-13.45-23.284 13.45-23.284h26.88l13.45 23.284-13.45 23.284ZM637.461 757.1h-17.117l-8.558-14.824 8.558-14.823h17.117l8.558 14.823-8.558 14.824ZM755.34 681.739l22.985-39.812h45.971l22.985 39.812-22.985 39.812h-45.971l-22.985-39.812ZM830.48 322.108l22.985-39.811h45.971l22.986 39.811-22.986 39.812h-45.971l-22.985-39.812ZM977.803 681.805l36.167 62.641h72.33l36.17-62.641-36.17-62.641M1037.52 359.272l23.56 40.812h47.13l23.56-40.812-23.56-40.812M644.688 532.17l13.763 23.838h27.526l13.763-23.838-13.763-23.839M964.699 720.151h-47.125l-23.563 40.812 23.563 40.811h47.125"/><path stroke="#000" stroke-width="2" d="M1039.84 360.52h-47.126l-23.563 40.812 23.563 40.812h47.126M918.132 916.192h-28.065l-14.032-24.305 14.032-24.304h28.065l14.032 24.304-14.032 24.305ZM1051.88 579.57H1025l-13.45-23.284 13.45-23.284h26.88l13.44 23.284-13.44 23.284ZM610.518 772.593h-17.117l-8.559-14.824 8.559-14.823h17.117l8.558 14.823-8.558 14.824ZM928.273 548.482h-26.886l-13.443-23.284 13.443-23.284h26.886l13.443 23.284-13.443 23.284ZM857.153 672.363l14.902-25.811h29.803l14.902 25.811-14.902 25.81h-29.803l-14.902-25.81ZM950.716 292.239l14.771-25.586h29.544l14.769 25.586-14.769 25.585h-29.544l-14.771-25.585ZM1104.3 797.968h-47.13l-23.56 40.812 23.56 40.812h47.13M1135.42 483.931h-28.04l-14.02 24.284 14.02 24.285h28.04M665.151 710.623h-18.272l-9.135 15.823 9.135 15.824h18.272M825.267 803.524l23.563-40.811-23.563-40.812h-47.126l-23.562 40.812M900.407 443.894l23.563-40.812-23.563-40.812h-47.125l-23.563 40.812"/><circle cx="1057.81" cy="959.618" r="2.606" fill="#000" transform="rotate(-180 1057.81 959.618)"/><circle cx="1107.82" cy="580.225" r="1.52" fill="#000" transform="rotate(-180 1107.82 580.225)"/><circle cx="1094.08" cy="603.245" r="1.52" fill="#000" transform="rotate(-180 1094.08 603.245)"/><circle cx="647.145" cy="773.36" r="1.086" fill="#000" transform="rotate(-180 647.145 773.36)"/><circle cx="708.519" cy="682.438" r="2.606" fill="#000" transform="rotate(-60 708.519 682.438)"/><circle cx="684.195" cy="641.164" r="2.606" fill="#000" transform="rotate(-60 684.195 641.164)"/><circle cx="770.327" cy="925.174" r="4.062" fill="#000" transform="rotate(120 770.327 925.174)"/><circle cx="699.581" cy="926.706" r="4.062" fill="#000" transform="rotate(120 699.581 926.706)"/><circle cx="783.659" cy="322.807" r="2.606" fill="#000" transform="rotate(-60 783.659 322.807)"/><circle cx="1056.94" cy="798.914" r="2.606" fill="#000" transform="rotate(-180 1056.94 798.914)"/><circle cx="1034.36" cy="838.872" r="2.606" fill="#000" transform="rotate(-180 1034.36 838.872)"/><circle cx="1104.28" cy="798.914" r="2.606" fill="#000" transform="rotate(-180 1104.28 798.914)"/><circle cx="848.127" cy="762.038" r="2.606" fill="#000" transform="rotate(-60 848.127 762.038)"/><circle cx="923.267" cy="402.407" r="2.606" fill="#000" transform="rotate(-60 923.267 402.407)"/><circle cx="1034.36" cy="919.659" r="2.606" fill="#000" transform="rotate(-180 1034.36 919.659)"/><circle cx="1093.92" cy="556.336" r="1.52" fill="#000" transform="rotate(-180 1093.92 556.336)"/><circle cx="638.024" cy="757.724" r="1.086" fill="#000" transform="rotate(-180 638.024 757.724)"/><circle cx="754.851" cy="682.106" r="2.606" fill="#000" transform="rotate(-60 754.851 682.106)"/><circle cx="829.992" cy="322.475" r="2.606" fill="#000" transform="rotate(-60 829.992 322.475)"/><circle cx="1109.5" cy="399.324" r="2.606" fill="#000" transform="rotate(-180 1109.5 399.324)"/><circle cx="686.67" cy="555.468" r="1.52" fill="#000" transform="rotate(-180 686.67 555.468)"/><circle cx="894.026" cy="762.458" r="2.606" fill="#000" transform="rotate(-60 894.026 762.458)"/><circle cx="969.166" cy="402.827" r="2.606" fill="#000" transform="rotate(-60 969.166 402.827)"/><circle cx="987.447" cy="919.659" r="2.606" fill="#000" transform="rotate(-180 987.447 919.659)"/><ellipse cx="1065.9" cy="556.336" fill="#000" rx="1.737" ry="1.52" transform="rotate(-180 1065.9 556.336)"/><circle cx="619.782" cy="757.724" r="1.086" fill="#000" transform="rotate(-180 619.782 757.724)"/><circle cx="778.305" cy="641.482" r="2.606" fill="#000" transform="rotate(-60 778.305 641.482)"/><circle cx="853.446" cy="281.851" r="2.606" fill="#000" transform="rotate(-60 853.446 281.851)"/><circle cx="1061.28" cy="400.193" r="2.606" fill="#000" transform="rotate(-180 1061.28 400.193)"/><circle cx="917.379" cy="720.271" r="2.606" fill="#000" transform="rotate(-60 917.379 720.271)"/><circle cx="992.519" cy="360.641" r="2.606" fill="#000" transform="rotate(-60 992.519 360.641)"/><circle cx="963.993" cy="959.618" r="2.606" fill="#000" transform="rotate(-180 963.993 959.618)"/><circle cx="1034.79" cy="998.274" r="2.606" fill="#000" transform="rotate(-180 1034.79 998.274)"/><circle cx="1051.79" cy="580.225" r="1.52" fill="#000" transform="rotate(-180 1051.79 580.225)"/><circle cx="610.661" cy="773.36" r="1.086" fill="#000" transform="rotate(-180 610.661 773.36)"/><circle cx="755.427" cy="601.191" r="2.606" fill="#000" transform="rotate(-60 755.427 601.191)"/><circle cx="830.567" cy="241.56" r="2.606" fill="#000" transform="rotate(-60 830.567 241.56)"/><circle cx="760.204" cy="281.968" r="2.606" fill="#000" transform="rotate(-60 760.204 281.968)"/><circle cx="963.993" cy="879.7" r="2.606" fill="#000" transform="rotate(-180 963.993 879.7)"/><circle cx="1051.79" cy="532.448" r="1.52" fill="#000" transform="rotate(-180 1051.79 532.448)"/><ellipse cx="610.661" cy="742.305" fill="#000" rx="1.086" ry=".869" transform="rotate(-180 610.661 742.305)"/><circle cx="824.638" cy="641.15" r="2.606" fill="#000" transform="rotate(-60 824.638 641.15)"/><circle cx="963.124" cy="720.299" r="2.606" fill="#000" transform="rotate(-180 963.124 720.299)"/><circle cx="1038.26" cy="360.668" r="2.606" fill="#000" transform="rotate(-180 1038.26 360.668)"/><circle cx="963.118" cy="720.098" r="2.606" fill="#000" transform="rotate(-60 963.118 720.098)"/><circle cx="963.908" cy="800.566" r="2.606" fill="#000" transform="rotate(-60 963.908 800.566)"/><circle cx="1038.26" cy="360.468" r="2.606" fill="#000" transform="rotate(-60 1038.26 360.468)"/><circle cx="1056.94" cy="879.7" r="2.606" fill="#000" transform="rotate(-180 1056.94 879.7)"/><circle cx="1107.38" cy="532.448" r="1.52" fill="#000" transform="rotate(-180 1107.38 532.448)"/><circle cx="646.928" cy="742.305" r=".869" fill="#000" transform="rotate(-180 646.928 742.305)"/><circle cx="778.164" cy="721.644" r="2.606" fill="#000" transform="rotate(-60 778.164 721.644)"/><circle cx="853.304" cy="362.014" r="2.606" fill="#000" transform="rotate(-60 853.304 362.014)"/><circle cx="1122.31" cy="682.294" r="4.126" fill="#000" transform="rotate(-180 1122.31 682.294)"/><circle cx="1087.13" cy="743.97" r="4.126" fill="#000" transform="rotate(-180 1087.13 743.97)"/><circle cx="1084.96" cy="621.487" r="4.126" fill="#000" transform="rotate(-180 1084.96 621.487)"/><circle cx="976.806" cy="682.294" r="4.126" fill="#000" transform="rotate(-180 976.806 682.294)"/><circle cx="1131.65" cy="358.497" r="2.606" fill="#000" transform="rotate(-180 1131.65 358.497)"/><circle cx="1109.5" cy="319.406" r="2.606" fill="#000" transform="rotate(-180 1109.5 319.406)"/><circle cx="699.7" cy="531.579" r="1.52" fill="#000" transform="rotate(-180 699.7 531.579)"/><circle cx="918.308" cy="802.055" r="2.606" fill="#000" transform="rotate(-60 918.308 802.055)"/><circle cx="993.448" cy="442.425" r="2.606" fill="#000" transform="rotate(-60 993.448 442.425)"/><circle cx="1039.92" cy="441.369" r="2.606" fill="#000" transform="rotate(-60 1039.92 441.369)"/></mask><g filter="url(#g)" mask="url(#f)"><path fill="#C0F" fill-opacity=".2" d="M348.919 222.309c0-171.375 138.927-310.3 310.301-310.3s310.301 138.925 310.301 310.3c0 171.374-138.927 310.301-310.301 310.301S348.919 393.683 348.919 222.309Z"/><path fill="#9E00FF" fill-opacity=".2" d="M319.633 762.023c0-171.374 138.926-310.301 310.3-310.301 171.375 0 310.301 138.927 310.301 310.301S801.308 1072.32 629.933 1072.32c-171.374 0-310.3-138.923-310.3-310.297Z"/><path fill="#FF72CF" fill-opacity=".4" d="M925.3 262.368c118.39-90.529 260.26-103.9 316.87-29.866 56.61 74.034 6.52 207.438-111.87 297.966-118.39 90.528-260.259 103.9-316.869 29.866-56.609-74.034-6.524-207.438 111.869-297.966Z"/><path fill="#E61B1B" fill-opacity=".1" d="M699.374 995.932c118.393-90.528 260.26-103.899 316.866-29.866 56.61 74.034 6.53 207.434-111.865 297.964-118.393 90.53-260.261 103.9-316.87 29.87-56.61-74.03-6.524-207.44 111.869-297.968Z"/><path fill="#FF5C00" fill-opacity=".05" d="M884.45 774.574c0-171.374 138.93-310.3 310.3-310.3s310.3 138.926 310.3 310.3c0 171.375-138.93 310.306-310.3 310.306s-310.3-138.931-310.3-310.306Z"/><path fill="#FFC700" fill-opacity=".2" d="M789.616 1155.3c0-171.372 138.927-310.298 310.304-310.298 171.37 0 310.3 138.926 310.3 310.298 0 171.38-138.93 310.3-310.3 310.3-171.377 0-310.304-138.92-310.304-310.3Z"/></g><mask id="h" width="649" height="816" x="1198" y="112" maskUnits="userSpaceOnUse" style="mask-type:alpha"><circle cx="1349.23" cy="738.064" r="29.535" fill="#D9D9D9" transform="rotate(180 1349.23 738.064)"/><path fill="#D9D9D9" d="M1344.89 337.303c0-17.631-14.3-31.924-31.93-31.924 0 17.631 14.3 31.924 31.93 31.924ZM1312.96 305.379c0-17.631 14.3-31.924 31.93-31.924 0 17.631-14.3 31.924-31.93 31.924ZM1312.96 305.379c0-17.631-14.29-31.924-31.92-31.924 0 17.623 14.28 31.911 31.9 31.924-17.62.013-31.9 14.301-31.9 31.924 17.63 0 31.92-14.293 31.92-31.924Z"/><path stroke="#000" stroke-width="2" d="M1279.41 646.593h-17.12l-8.56-14.824 8.56-14.823h17.12l8.55 14.823-8.55 14.824ZM1300.99 595.943l22.98-39.812h45.97l22.99 39.812-22.99 39.812h-45.97l-22.98-39.812ZM1421.09 737.603l-36.15 62.607h-72.29l-36.15-62.607 36.15-62.608h72.29l36.15 62.608ZM1376.13 236.313l22.98-39.812h45.97l22.99 39.812-22.99 39.811h-45.97l-22.98-39.811ZM1348.12 367.762h-71.18l-35.58-61.641 35.58-61.641h71.18l35.59 61.641-35.59 61.641ZM1341.75 451.84h-26.37l-13.18-22.838 13.18-22.838h26.37l13.19 22.838-13.19 22.838ZM1440.91 676.73l22.99-39.812h45.97l22.99 39.812-22.99 39.811h-45.97l-22.99-39.811ZM1225.73 647.64l9.07-15.717h18.15l9.08 15.717-9.08 15.718M1369.69 474.701l23.4 40.539-23.4 40.538h-46.81l-23.41-40.538M1313.37 927l-36.48-63.182 36.48-63.181h72.95l36.48 63.181M1444.83 115.071l23.4 40.538-23.4 40.539h-46.81l-23.41-40.539M1490.04 814.968h-28.06l-14.03-24.305 14.03-24.304h28.06l14.04 24.304-14.04 24.305ZM1370.62 395.413l22.99-39.812h45.97l22.98 39.812-22.98 39.812h-45.97l-22.99-39.812ZM1437.15 316.519l14.77-25.586h29.55l14.77 25.586-14.77 25.586h-29.55l-14.77-25.586ZM1252.46 631.1h-17.12l-8.55-14.824 8.55-14.823h17.12l8.56 14.823-8.56 14.824ZM1370.34 555.739l22.99-39.812h45.97l22.98 39.812-22.98 39.812h-45.97l-22.99-39.812ZM1445.48 196.108l22.99-39.811h45.97l22.98 39.811-22.98 39.812h-45.97l-22.99-39.812ZM1259.69 406.17l13.76 23.838h27.53l13.76-23.838-13.76-23.839M1225.52 646.593h-17.12l-8.56-14.824 8.56-14.823h17.12l8.56 14.823-8.56 14.824ZM1280.15 584.623h-18.27l-9.14 15.823 9.14 15.824h18.27M1440.27 677.524l23.56-40.811-23.56-40.812h-47.13l-23.56 40.812"/><path stroke="#000" stroke-width="2" d="m1515.41 317.894 23.56-40.812-23.56-40.812h-47.13l-23.56 40.812"/><circle cx="1262.14" cy="647.36" r="1.086" fill="#000" transform="rotate(180 1262.14 647.36)"/><circle cx="1323.52" cy="556.438" r="2.606" fill="#000" transform="rotate(-60 1323.52 556.438)"/><circle cx="1299.2" cy="515.164" r="2.606" fill="#000" transform="rotate(-60 1299.2 515.164)"/><circle cx="1385.33" cy="799.174" r="4.062" fill="#000" transform="rotate(120 1385.33 799.174)"/><circle cx="1314.58" cy="800.706" r="4.062" fill="#000" transform="rotate(120 1314.58 800.706)"/><circle cx="1398.66" cy="196.807" r="2.606" fill="#000" transform="rotate(-60 1398.66 196.807)"/><circle cx="1253.02" cy="631.724" r="1.086" fill="#000" transform="rotate(180 1253.02 631.724)"/><circle cx="1369.85" cy="556.106" r="2.606" fill="#000" transform="rotate(-60 1369.85 556.106)"/><circle cx="1301.67" cy="429.468" r="1.52" fill="#000" transform="rotate(180 1301.67 429.468)"/><circle cx="1234.78" cy="631.724" r="1.086" fill="#000" transform="rotate(180 1234.78 631.724)"/><circle cx="1393.31" cy="515.482" r="2.606" fill="#000" transform="rotate(-60 1393.31 515.482)"/><circle cx="1225.66" cy="647.36" r="1.086" fill="#000" transform="rotate(180 1225.66 647.36)"/><circle cx="1370.43" cy="475.191" r="2.606" fill="#000" transform="rotate(-60 1370.43 475.191)"/><circle cx="1375.2" cy="155.968" r="2.606" fill="#000" transform="rotate(-60 1375.2 155.968)"/><ellipse cx="1225.66" cy="616.305" fill="#000" rx="1.086" ry=".869" transform="rotate(180 1225.66 616.305)"/><circle cx="1439.64" cy="515.15" r="2.606" fill="#000" transform="rotate(-60 1439.64 515.15)"/><circle cx="1261.93" cy="616.305" r=".869" fill="#000" transform="rotate(180 1261.93 616.305)"/><circle cx="1393.16" cy="595.644" r="2.606" fill="#000" transform="rotate(-60 1393.16 595.644)"/><circle cx="1314.7" cy="405.579" r="1.52" fill="#000" transform="rotate(180 1314.7 405.579)"/></mask><g filter="url(#i)" mask="url(#h)"><path fill="#C0F" fill-opacity=".2" d="M963.919 96.309c0-171.375 138.931-310.301 310.301-310.301 171.37 0 310.3 138.927 310.3 310.3 0 171.375-138.93 310.302-310.3 310.302S963.919 267.683 963.919 96.309Z"/><path fill="#9E00FF" fill-opacity=".2" d="M934.633 636.023c0-171.374 138.927-310.301 310.297-310.301 171.38 0 310.3 138.927 310.3 310.301s-138.92 310.301-310.3 310.301c-171.37 0-310.297-138.927-310.297-310.301Z"/><path fill="#FF72CF" fill-opacity=".4" d="M1540.3 136.368c118.39-90.529 260.26-103.9 316.87-29.866 56.61 74.034 6.52 207.438-111.87 297.966-118.39 90.528-260.26 103.9-316.87 29.866-56.61-74.034-6.52-207.438 111.87-297.966Z"/><path fill="#E61B1B" fill-opacity=".1" d="M1314.37 869.932c118.4-90.528 260.26-103.899 316.87-29.866 56.61 74.034 6.53 207.434-111.87 297.964-118.39 90.53-260.26 103.9-316.87 29.87-56.6-74.03-6.52-207.439 111.87-297.968Z"/><path fill="#FF5C00" fill-opacity=".05" d="M1499.45 648.574c0-171.374 138.93-310.3 310.3-310.3s310.3 138.926 310.3 310.3c0 171.375-138.93 310.301-310.3 310.301s-310.3-138.926-310.3-310.301Z"/><path fill="#FFC700" fill-opacity=".2" d="M1404.62 1029.3c0-171.372 138.92-310.298 310.3-310.298 171.37 0 310.3 138.926 310.3 310.298 0 171.38-138.93 310.3-310.3 310.3-171.38 0-310.3-138.92-310.3-310.3Z"/></g><mask id="j" width="648" height="816" x="731" y="-574" maskUnits="userSpaceOnUse" style="mask-type:alpha"><path fill="#D9D9D9" d="M1232.72 17.697c0 17.631 14.29 31.924 31.92 31.924 0-17.631-14.29-31.924-31.92-31.924ZM1264.64 49.621c0 17.631-14.29 31.924-31.92 31.924 0-17.631 14.29-31.924 31.92-31.924ZM1264.64 49.621c0 17.63 14.29 31.924 31.93 31.924 0-17.623-14.28-31.91-31.9-31.924 17.62-.013 31.9-14.301 31.9-31.924-17.64 0-31.93 14.293-31.93 31.924Z"/><path fill="#D9D9D9" fill-rule="evenodd" d="M806.811 98.918c10.195 0 18.46-8.167 18.46-18.242 0-10.075-8.265-18.242-18.46-18.242-10.194 0-18.459 8.167-18.459 18.242 0 10.075 8.265 18.242 18.459 18.242Zm0-9.001c5.165 0 9.351-4.138 9.351-9.241 0-5.104-4.186-9.241-9.351-9.241-5.164 0-9.351 4.137-9.351 9.24 0 5.104 4.187 9.242 9.351 9.242Z" clip-rule="evenodd"/><path fill="#D9D9D9" d="m1015.55 13.788 20.69 35.833h-41.378l20.688-35.833Z"/><path stroke="#000" stroke-width="2" d="m1201.48 117.687-22.99 39.812h-45.97l-22.98-39.812 22.98-39.811h45.97l22.99 39.811ZM1229.48-13.762h71.18l35.59 61.64-35.59 61.642h-71.18l-35.59-61.641 35.59-61.641ZM784.177 41.826h45.97l22.986 39.812-22.986 39.812h-45.97l-22.986-39.812 22.986-39.812ZM1061.55 36.901l-22.98 39.812h-45.976l-22.985-39.812L992.594-2.91h45.976l22.98 39.812ZM1132.78 238.929l-23.41-40.538 23.41-40.539h46.81l23.4 40.539M1206.98-41.413 1184-1.601h-45.97l-22.99-39.812 22.99-39.812H1184l22.98 39.812ZM1140.45 37.48l-14.77 25.587h-29.54l-14.78-25.586 14.78-25.586h29.54l14.77 25.586ZM1132.12 157.892l-22.98 39.811h-45.97l-22.99-39.811 22.99-39.812h45.97l22.98 39.812ZM925.084 120.728l-23.563-40.812h-47.125l-23.563 40.812 23.563 40.812"/><path stroke="#000" stroke-width="2" d="M922.765 119.48h47.126l23.562-40.812-23.562-40.812h-47.126M1011.89 187.761l-14.773 25.586h-29.544l-14.772-25.586 14.772-25.585h29.544l14.773 25.585ZM827.186-3.931h28.041l14.02-24.284-14.02-24.284h-28.041M1062.2 36.106l-23.57 40.812 23.57 40.812h47.12l23.57-40.812"/><circle cx="1178.95" cy="157.193" r="2.606" fill="#000" transform="rotate(120 1178.95 157.193)"/><circle cx="1039.34" cy="77.593" r="2.606" fill="#000" transform="rotate(120 1039.34 77.593)"/><circle cx="1132.61" cy="157.525" r="2.606" fill="#000" transform="rotate(120 1132.61 157.525)"/><circle cx="853.109" cy="80.676" r="2.606" fill="#000"/><circle cx="993.439" cy="77.173" r="2.606" fill="#000" transform="rotate(120 993.439 77.173)"/><circle cx="1109.16" cy="198.149" r="2.606" fill="#000" transform="rotate(120 1109.16 198.149)"/><circle cx="901.32" cy="79.807" r="2.606" fill="#000"/><circle cx="970.086" cy="119.359" r="2.606" fill="#000" transform="rotate(120 970.086 119.359)"/><circle cx="1132.04" cy="238.44" r="2.606" fill="#000" transform="rotate(120 1132.04 238.44)"/><circle cx="1202.4" cy="198.032" r="2.606" fill="#000" transform="rotate(120 1202.4 198.032)"/><circle cx="924.34" cy="119.332" r="2.606" fill="#000"/><circle cx="924.346" cy="119.532" r="2.606" fill="#000" transform="rotate(120 924.346 119.532)"/><circle cx="1109.3" cy="117.986" r="2.606" fill="#000" transform="rotate(120 1109.3 117.986)"/><circle cx="830.958" cy="121.503" r="2.606" fill="#000"/><circle cx="853.109" cy="160.594" r="2.606" fill="#000"/><circle cx="969.157" cy="37.575" r="2.606" fill="#000" transform="rotate(120 969.157 37.575)"/><circle cx="922.688" cy="38.631" r="2.606" fill="#000" transform="rotate(120 922.688 38.63)"/></mask><g filter="url(#k)" mask="url(#j)"><path fill="#C0F" fill-opacity=".2" d="M1613.69 257.691c0 171.374-138.93 310.301-310.31 310.301-171.37 0-310.296-138.927-310.296-310.301s138.926-310.3 310.296-310.3c171.38 0 310.31 138.926 310.31 310.3Z"/><path fill="#9E00FF" fill-opacity=".2" d="M1642.97-282.023c0 171.374-138.92 310.3-310.3 310.3-171.37 0-310.3-138.926-310.3-310.3 0-171.374 138.93-310.301 310.3-310.301 171.38 0 310.3 138.927 310.3 310.301Z"/><path fill="#FF72CF" fill-opacity=".4" d="M1037.3 217.632c-118.389 90.529-260.256 103.9-316.866 29.866-56.609-74.034-6.524-207.438 111.869-297.966 118.393-90.528 260.257-103.9 316.867-29.866 56.61 74.034 6.53 207.438-111.87 297.966Z"/><path fill="#E61B1B" fill-opacity=".1" d="M1263.23-515.932c-118.39 90.528-260.26 103.899-316.869 29.866-56.61-74.034-6.524-207.438 111.869-297.967 118.39-90.528 260.26-103.9 316.87-29.866 56.61 74.034 6.52 207.438-111.87 297.967Z"/><path fill="#FF5C00" fill-opacity=".05" d="M1078.15-294.574c0 171.374-138.922 310.3-310.296 310.3S457.553-123.2 457.553-294.574c0-171.375 138.927-310.301 310.301-310.301s310.296 138.926 310.296 310.301Z"/><path fill="#FFC700" fill-opacity=".2" d="M1172.99-675.303c0 171.375-138.93 310.301-310.302 310.301-171.375 0-310.301-138.926-310.301-310.301 0-171.374 138.926-310.301 310.301-310.301 171.372 0 310.302 138.927 310.302 310.301Z"/></g></g><defs><filter id="c" width="1585.42" height="1953.6" x="-447.447" y="-612.604" color-interpolation-filters="sRGB" filterUnits="userSpaceOnUse"><feFlood flood-opacity="0" result="BackgroundImageFix"/><feBlend in="SourceGraphic" in2="BackgroundImageFix" result="shape"/><feGaussianBlur result="effect1_foregroundBlur_512_5603" stdDeviation="100"/></filter><filter id="e" width="1585.42" height="1953.6" x="-400.367" y="142.396" color-interpolation-filters="sRGB" filterUnits="userSpaceOnUse"><feFlood flood-opacity="0" result="BackgroundImageFix"/><feBlend in="SourceGraphic" in2="BackgroundImageFix" result="shape"/><feGaussianBlur result="effect1_foregroundBlur_512_5603" stdDeviation="100"/></filter><filter id="g" width="1585.42" height="1953.6" x="119.633" y="-287.992" color-interpolation-filters="sRGB" filterUnits="userSpaceOnUse"><feFlood flood-opacity="0" result="BackgroundImageFix"/><feBlend in="SourceGraphic" in2="BackgroundImageFix" result="shape"/><feGaussianBlur result="effect1_foregroundBlur_512_5603" stdDeviation="100"/></filter><filter id="i" width="1585.42" height="1953.6" x="734.633" y="-413.992" color-interpolation-filters="sRGB" filterUnits="userSpaceOnUse"><feFlood flood-opacity="0" result="BackgroundImageFix"/><feBlend in="SourceGraphic" in2="BackgroundImageFix" result="shape"/><feGaussianBlur result="effect1_foregroundBlur_512_5603" stdDeviation="100"/></filter><filter id="k" width="1585.42" height="1953.6" x="257.553" y="-1185.6" color-interpolation-filters="sRGB" filterUnits="userSpaceOnUse"><feFlood flood-opacity="0" result="BackgroundImageFix"/><feBlend in="SourceGraphic" in2="BackgroundImageFix" result="shape"/><feGaussianBlur result="effect1_foregroundBlur_512_5603" stdDeviation="100"/></filter><clipPath id="a"><path fill="#fff" d="M0 0h1440v1024H0z"/></clipPath></defs></svg>